G04 #@! TF.GenerationSoftware,KiCad,Pcbnew,no-vcs-found-96b3286~58~ubuntu16.10.1*
G04 #@! TF.CreationDate,2017-03-05T12:49:51+01:00*
G04 #@! TF.ProjectId,cc2538module,6363323533386D6F64756C652E6B6963,rev?*
G04 #@! TF.FileFunction,Legend,Top*
G04 #@! TF.FilePolarity,Positive*
%FSLAX46Y46*%
G04 Gerber Fmt 4.6, Leading zero omitted, Abs format (unit mm)*
G04 Created by KiCad (PCBNEW no-vcs-found-96b3286~58~ubuntu16.10.1) date Sun Mar  5 12:49:51 2017*
%MOMM*%
%LPD*%
G01*
G04 APERTURE LIST*
%ADD10C,0.150000*%
%ADD11C,0.120000*%
G04 APERTURE END LIST*
D10*
X78414174Y-78885224D02*
X102794174Y-78885224D01*
X102794174Y-78885224D02*
X102794174Y-57805224D01*
X102694174Y-57805224D02*
X95104174Y-51275224D01*
X95104174Y-51275224D02*
X85904174Y-51275224D01*
X85904174Y-51275224D02*
X78414174Y-57805224D01*
X78414174Y-57805224D02*
X78414174Y-78885224D01*
X78414174Y-57805224D02*
X78414174Y-78885224D01*
X85904174Y-51275224D02*
X78414174Y-57805224D01*
X95104174Y-51275224D02*
X85904174Y-51275224D01*
X102694174Y-57805224D02*
X95104174Y-51275224D01*
X102794174Y-78885224D02*
X102794174Y-57805224D01*
X78414174Y-78885224D02*
X102794174Y-78885224D01*
X78414174Y-78885224D02*
X102794174Y-78885224D01*
X102794174Y-78885224D02*
X102794174Y-57805224D01*
X102694174Y-57805224D02*
X95104174Y-51275224D01*
X95104174Y-51275224D02*
X85904174Y-51275224D01*
X85904174Y-51275224D02*
X78414174Y-57805224D01*
X78414174Y-57805224D02*
X78414174Y-78885224D01*
D11*
X89300000Y-78250000D02*
X89300000Y-76800000D01*
X90200000Y-78250000D02*
X90200000Y-76800000D01*
X89300000Y-78250000D02*
X90200000Y-78250000D01*
D10*
X78414174Y-57805224D02*
X78414174Y-78885224D01*
X85904174Y-51275224D02*
X78414174Y-57805224D01*
X95104174Y-51275224D02*
X85904174Y-51275224D01*
X102694174Y-57805224D02*
X95104174Y-51275224D01*
X102794174Y-78885224D02*
X102794174Y-57805224D01*
X78414174Y-78885224D02*
X102794174Y-78885224D01*
D11*
X88050000Y-78250000D02*
X88950000Y-78250000D01*
X88950000Y-78250000D02*
X88950000Y-76800000D01*
X88050000Y-78250000D02*
X88050000Y-76800000D01*
X90550000Y-78260000D02*
X90550000Y-76810000D01*
X91450000Y-78260000D02*
X91450000Y-76810000D01*
X90550000Y-78260000D02*
X91450000Y-78260000D01*
X91800000Y-78290000D02*
X92700000Y-78290000D01*
X92700000Y-78290000D02*
X92700000Y-76840000D01*
X91800000Y-78290000D02*
X91800000Y-76840000D01*
X99870440Y-77928000D02*
X100170440Y-77928000D01*
X100170440Y-77928000D02*
X100170440Y-74628000D01*
X100170440Y-74628000D02*
X99870440Y-74628000D01*
X97670440Y-77928000D02*
X97370440Y-77928000D01*
X97370440Y-77928000D02*
X97370440Y-74628000D01*
X97370440Y-74628000D02*
X97670440Y-74628000D01*
X81277000Y-74628000D02*
X81577000Y-74628000D01*
X81277000Y-77928000D02*
X81277000Y-74628000D01*
X81577000Y-77928000D02*
X81277000Y-77928000D01*
X84077000Y-74628000D02*
X83777000Y-74628000D01*
X84077000Y-77928000D02*
X84077000Y-74628000D01*
X83777000Y-77928000D02*
X84077000Y-77928000D01*
X83717928Y-62508560D02*
X81317928Y-62508560D01*
X83717928Y-64108560D02*
X83717928Y-62508560D01*
X81317928Y-64108560D02*
X83717928Y-64108560D01*
X97737973Y-58477713D02*
X97737973Y-55777713D01*
X95437973Y-58477713D02*
X97737973Y-58477713D01*
D10*
X86963000Y-62700920D02*
X87663000Y-62700920D01*
X93513000Y-62700920D02*
X94263000Y-62700920D01*
X86963000Y-62700920D02*
X86963000Y-63450920D01*
X94263000Y-62700920D02*
X94263000Y-63400920D01*
X94263000Y-70000920D02*
X94263000Y-69250920D01*
X86963000Y-69850920D02*
X86963000Y-69250920D01*
X93513000Y-70000920D02*
X94263000Y-70000920D01*
X89000000Y-57800000D02*
X89000000Y-57400000D01*
X89000000Y-57400000D02*
X88600000Y-57400000D01*
X88600000Y-57400000D02*
X88600000Y-57800000D01*
X88600000Y-57800000D02*
X89000000Y-57800000D01*
X88200000Y-57200000D02*
X89400000Y-57200000D01*
X89400000Y-57200000D02*
X89400000Y-59200000D01*
X89400000Y-59200000D02*
X88200000Y-59200000D01*
X88200000Y-59200000D02*
X88200000Y-57200000D01*
X81320000Y-57040000D02*
G75*
G03X81320000Y-57040000I-200000J0D01*
G01*
X81820000Y-58290000D02*
X82820000Y-58290000D01*
X82820000Y-58290000D02*
X82820000Y-56790000D01*
X82820000Y-56790000D02*
X81820000Y-56790000D01*
X81820000Y-56790000D02*
X81820000Y-58290000D01*
M02*
