G04 #@! TF.GenerationSoftware,KiCad,Pcbnew,no-vcs-found-0f0cb64~58~ubuntu16.10.1*
G04 #@! TF.CreationDate,2017-03-28T21:56:20+02:00*
G04 #@! TF.ProjectId,cc2538module,6363323533386D6F64756C652E6B6963,rev?*
G04 #@! TF.FileFunction,Legend,Bot*
G04 #@! TF.FilePolarity,Positive*
%FSLAX46Y46*%
G04 Gerber Fmt 4.6, Leading zero omitted, Abs format (unit mm)*
G04 Created by KiCad (PCBNEW no-vcs-found-0f0cb64~58~ubuntu16.10.1) date Tue Mar 28 21:56:20 2017*
%MOMM*%
%LPD*%
G01*
G04 APERTURE LIST*
%ADD10C,0.150000*%
%ADD11C,0.050000*%
%ADD12C,0.203200*%
G04 APERTURE END LIST*
D10*
D11*
X97010952Y-54673809D02*
X96896666Y-54711904D01*
X96706190Y-54711904D01*
X96630000Y-54673809D01*
X96591904Y-54635714D01*
X96553809Y-54559523D01*
X96553809Y-54483333D01*
X96591904Y-54407142D01*
X96630000Y-54369047D01*
X96706190Y-54330952D01*
X96858571Y-54292857D01*
X96934761Y-54254761D01*
X96972857Y-54216666D01*
X97010952Y-54140476D01*
X97010952Y-54064285D01*
X96972857Y-53988095D01*
X96934761Y-53950000D01*
X96858571Y-53911904D01*
X96668095Y-53911904D01*
X96553809Y-53950000D01*
X95906190Y-54673809D02*
X95982380Y-54711904D01*
X96134761Y-54711904D01*
X96210952Y-54673809D01*
X96249047Y-54597619D01*
X96249047Y-54292857D01*
X96210952Y-54216666D01*
X96134761Y-54178571D01*
X95982380Y-54178571D01*
X95906190Y-54216666D01*
X95868095Y-54292857D01*
X95868095Y-54369047D01*
X96249047Y-54445238D01*
X95525238Y-54178571D02*
X95525238Y-54711904D01*
X95525238Y-54254761D02*
X95487142Y-54216666D01*
X95410952Y-54178571D01*
X95296666Y-54178571D01*
X95220476Y-54216666D01*
X95182380Y-54292857D01*
X95182380Y-54711904D01*
X94839523Y-54673809D02*
X94763333Y-54711904D01*
X94610952Y-54711904D01*
X94534761Y-54673809D01*
X94496666Y-54597619D01*
X94496666Y-54559523D01*
X94534761Y-54483333D01*
X94610952Y-54445238D01*
X94725238Y-54445238D01*
X94801428Y-54407142D01*
X94839523Y-54330952D01*
X94839523Y-54292857D01*
X94801428Y-54216666D01*
X94725238Y-54178571D01*
X94610952Y-54178571D01*
X94534761Y-54216666D01*
X94039523Y-54711904D02*
X94115714Y-54673809D01*
X94153809Y-54635714D01*
X94191904Y-54559523D01*
X94191904Y-54330952D01*
X94153809Y-54254761D01*
X94115714Y-54216666D01*
X94039523Y-54178571D01*
X93925238Y-54178571D01*
X93849047Y-54216666D01*
X93810952Y-54254761D01*
X93772857Y-54330952D01*
X93772857Y-54559523D01*
X93810952Y-54635714D01*
X93849047Y-54673809D01*
X93925238Y-54711904D01*
X94039523Y-54711904D01*
X93430000Y-54711904D02*
X93430000Y-54178571D01*
X93430000Y-54330952D02*
X93391904Y-54254761D01*
X93353809Y-54216666D01*
X93277619Y-54178571D01*
X93201428Y-54178571D01*
X92972857Y-54673809D02*
X92896666Y-54711904D01*
X92744285Y-54711904D01*
X92668095Y-54673809D01*
X92630000Y-54597619D01*
X92630000Y-54559523D01*
X92668095Y-54483333D01*
X92744285Y-54445238D01*
X92858571Y-54445238D01*
X92934761Y-54407142D01*
X92972857Y-54330952D01*
X92972857Y-54292857D01*
X92934761Y-54216666D01*
X92858571Y-54178571D01*
X92744285Y-54178571D01*
X92668095Y-54216666D01*
X91677619Y-53911904D02*
X91677619Y-54559523D01*
X91639523Y-54635714D01*
X91601428Y-54673809D01*
X91525238Y-54711904D01*
X91372857Y-54711904D01*
X91296666Y-54673809D01*
X91258571Y-54635714D01*
X91220476Y-54559523D01*
X91220476Y-53911904D01*
X90839523Y-54178571D02*
X90839523Y-54711904D01*
X90839523Y-54254761D02*
X90801428Y-54216666D01*
X90725238Y-54178571D01*
X90610952Y-54178571D01*
X90534761Y-54216666D01*
X90496666Y-54292857D01*
X90496666Y-54711904D01*
X90001428Y-54711904D02*
X90077619Y-54673809D01*
X90115714Y-54597619D01*
X90115714Y-53911904D01*
X89391904Y-54673809D02*
X89468095Y-54711904D01*
X89620476Y-54711904D01*
X89696666Y-54673809D01*
X89734761Y-54597619D01*
X89734761Y-54292857D01*
X89696666Y-54216666D01*
X89620476Y-54178571D01*
X89468095Y-54178571D01*
X89391904Y-54216666D01*
X89353809Y-54292857D01*
X89353809Y-54369047D01*
X89734761Y-54445238D01*
X88668095Y-54711904D02*
X88668095Y-54292857D01*
X88706190Y-54216666D01*
X88782380Y-54178571D01*
X88934761Y-54178571D01*
X89010952Y-54216666D01*
X88668095Y-54673809D02*
X88744285Y-54711904D01*
X88934761Y-54711904D01*
X89010952Y-54673809D01*
X89049047Y-54597619D01*
X89049047Y-54521428D01*
X89010952Y-54445238D01*
X88934761Y-54407142D01*
X88744285Y-54407142D01*
X88668095Y-54369047D01*
X88325238Y-54673809D02*
X88249047Y-54711904D01*
X88096666Y-54711904D01*
X88020476Y-54673809D01*
X87982380Y-54597619D01*
X87982380Y-54559523D01*
X88020476Y-54483333D01*
X88096666Y-54445238D01*
X88210952Y-54445238D01*
X88287142Y-54407142D01*
X88325238Y-54330952D01*
X88325238Y-54292857D01*
X88287142Y-54216666D01*
X88210952Y-54178571D01*
X88096666Y-54178571D01*
X88020476Y-54216666D01*
X87639523Y-54711904D02*
X87639523Y-53911904D01*
X87296666Y-54711904D02*
X87296666Y-54292857D01*
X87334761Y-54216666D01*
X87410952Y-54178571D01*
X87525238Y-54178571D01*
X87601428Y-54216666D01*
X87639523Y-54254761D01*
X86610952Y-54673809D02*
X86687142Y-54711904D01*
X86839523Y-54711904D01*
X86915714Y-54673809D01*
X86953809Y-54597619D01*
X86953809Y-54292857D01*
X86915714Y-54216666D01*
X86839523Y-54178571D01*
X86687142Y-54178571D01*
X86610952Y-54216666D01*
X86572857Y-54292857D01*
X86572857Y-54369047D01*
X86953809Y-54445238D01*
X85887142Y-54711904D02*
X85887142Y-53911904D01*
X85887142Y-54673809D02*
X85963333Y-54711904D01*
X86115714Y-54711904D01*
X86191904Y-54673809D01*
X86230000Y-54635714D01*
X86268095Y-54559523D01*
X86268095Y-54330952D01*
X86230000Y-54254761D01*
X86191904Y-54216666D01*
X86115714Y-54178571D01*
X85963333Y-54178571D01*
X85887142Y-54216666D01*
X96725238Y-55961904D02*
X96991904Y-55580952D01*
X97182380Y-55961904D02*
X97182380Y-55161904D01*
X96877619Y-55161904D01*
X96801428Y-55200000D01*
X96763333Y-55238095D01*
X96725238Y-55314285D01*
X96725238Y-55428571D01*
X96763333Y-55504761D01*
X96801428Y-55542857D01*
X96877619Y-55580952D01*
X97182380Y-55580952D01*
X96039523Y-55961904D02*
X96039523Y-55542857D01*
X96077619Y-55466666D01*
X96153809Y-55428571D01*
X96306190Y-55428571D01*
X96382380Y-55466666D01*
X96039523Y-55923809D02*
X96115714Y-55961904D01*
X96306190Y-55961904D01*
X96382380Y-55923809D01*
X96420476Y-55847619D01*
X96420476Y-55771428D01*
X96382380Y-55695238D01*
X96306190Y-55657142D01*
X96115714Y-55657142D01*
X96039523Y-55619047D01*
X95315714Y-55961904D02*
X95315714Y-55161904D01*
X95315714Y-55923809D02*
X95391904Y-55961904D01*
X95544285Y-55961904D01*
X95620476Y-55923809D01*
X95658571Y-55885714D01*
X95696666Y-55809523D01*
X95696666Y-55580952D01*
X95658571Y-55504761D01*
X95620476Y-55466666D01*
X95544285Y-55428571D01*
X95391904Y-55428571D01*
X95315714Y-55466666D01*
X94934761Y-55961904D02*
X94934761Y-55428571D01*
X94934761Y-55161904D02*
X94972857Y-55200000D01*
X94934761Y-55238095D01*
X94896666Y-55200000D01*
X94934761Y-55161904D01*
X94934761Y-55238095D01*
X94439523Y-55961904D02*
X94515714Y-55923809D01*
X94553809Y-55885714D01*
X94591904Y-55809523D01*
X94591904Y-55580952D01*
X94553809Y-55504761D01*
X94515714Y-55466666D01*
X94439523Y-55428571D01*
X94325238Y-55428571D01*
X94249047Y-55466666D01*
X94210952Y-55504761D01*
X94172857Y-55580952D01*
X94172857Y-55809523D01*
X94210952Y-55885714D01*
X94249047Y-55923809D01*
X94325238Y-55961904D01*
X94439523Y-55961904D01*
X93068095Y-55161904D02*
X92915714Y-55161904D01*
X92839523Y-55200000D01*
X92763333Y-55276190D01*
X92725238Y-55428571D01*
X92725238Y-55695238D01*
X92763333Y-55847619D01*
X92839523Y-55923809D01*
X92915714Y-55961904D01*
X93068095Y-55961904D01*
X93144285Y-55923809D01*
X93220476Y-55847619D01*
X93258571Y-55695238D01*
X93258571Y-55428571D01*
X93220476Y-55276190D01*
X93144285Y-55200000D01*
X93068095Y-55161904D01*
X92382380Y-55428571D02*
X92382380Y-55961904D01*
X92382380Y-55504761D02*
X92344285Y-55466666D01*
X92268095Y-55428571D01*
X92153809Y-55428571D01*
X92077619Y-55466666D01*
X92039523Y-55542857D01*
X92039523Y-55961904D01*
X91353809Y-55923809D02*
X91430000Y-55961904D01*
X91582380Y-55961904D01*
X91658571Y-55923809D01*
X91696666Y-55847619D01*
X91696666Y-55542857D01*
X91658571Y-55466666D01*
X91582380Y-55428571D01*
X91430000Y-55428571D01*
X91353809Y-55466666D01*
X91315714Y-55542857D01*
X91315714Y-55619047D01*
X91696666Y-55695238D01*
X90363333Y-55657142D02*
X89753809Y-55657142D01*
X88763333Y-55961904D02*
X88763333Y-55428571D01*
X88763333Y-55580952D02*
X88725238Y-55504761D01*
X88687142Y-55466666D01*
X88610952Y-55428571D01*
X88534761Y-55428571D01*
X87963333Y-55923809D02*
X88039523Y-55961904D01*
X88191904Y-55961904D01*
X88268095Y-55923809D01*
X88306190Y-55847619D01*
X88306190Y-55542857D01*
X88268095Y-55466666D01*
X88191904Y-55428571D01*
X88039523Y-55428571D01*
X87963333Y-55466666D01*
X87925238Y-55542857D01*
X87925238Y-55619047D01*
X88306190Y-55695238D01*
X87658571Y-55428571D02*
X87468095Y-55961904D01*
X87277619Y-55428571D01*
X86972857Y-55885714D02*
X86934761Y-55923809D01*
X86972857Y-55961904D01*
X87010952Y-55923809D01*
X86972857Y-55885714D01*
X86972857Y-55961904D01*
X86020476Y-55733333D02*
X85639523Y-55733333D01*
X86096666Y-55961904D02*
X85830000Y-55161904D01*
X85563333Y-55961904D01*
X99506190Y-56678571D02*
X99353809Y-57211904D01*
X99201428Y-56830952D01*
X99049047Y-57211904D01*
X98896666Y-56678571D01*
X98668095Y-56678571D02*
X98515714Y-57211904D01*
X98363333Y-56830952D01*
X98210952Y-57211904D01*
X98058571Y-56678571D01*
X97830000Y-56678571D02*
X97677619Y-57211904D01*
X97525238Y-56830952D01*
X97372857Y-57211904D01*
X97220476Y-56678571D01*
X96915714Y-57135714D02*
X96877619Y-57173809D01*
X96915714Y-57211904D01*
X96953809Y-57173809D01*
X96915714Y-57135714D01*
X96915714Y-57211904D01*
X96572857Y-57173809D02*
X96496666Y-57211904D01*
X96344285Y-57211904D01*
X96268095Y-57173809D01*
X96230000Y-57097619D01*
X96230000Y-57059523D01*
X96268095Y-56983333D01*
X96344285Y-56945238D01*
X96458571Y-56945238D01*
X96534761Y-56907142D01*
X96572857Y-56830952D01*
X96572857Y-56792857D01*
X96534761Y-56716666D01*
X96458571Y-56678571D01*
X96344285Y-56678571D01*
X96268095Y-56716666D01*
X95582380Y-57173809D02*
X95658571Y-57211904D01*
X95810952Y-57211904D01*
X95887142Y-57173809D01*
X95925238Y-57097619D01*
X95925238Y-56792857D01*
X95887142Y-56716666D01*
X95810952Y-56678571D01*
X95658571Y-56678571D01*
X95582380Y-56716666D01*
X95544285Y-56792857D01*
X95544285Y-56869047D01*
X95925238Y-56945238D01*
X95201428Y-56678571D02*
X95201428Y-57211904D01*
X95201428Y-56754761D02*
X95163333Y-56716666D01*
X95087142Y-56678571D01*
X94972857Y-56678571D01*
X94896666Y-56716666D01*
X94858571Y-56792857D01*
X94858571Y-57211904D01*
X94515714Y-57173809D02*
X94439523Y-57211904D01*
X94287142Y-57211904D01*
X94210952Y-57173809D01*
X94172857Y-57097619D01*
X94172857Y-57059523D01*
X94210952Y-56983333D01*
X94287142Y-56945238D01*
X94401428Y-56945238D01*
X94477619Y-56907142D01*
X94515714Y-56830952D01*
X94515714Y-56792857D01*
X94477619Y-56716666D01*
X94401428Y-56678571D01*
X94287142Y-56678571D01*
X94210952Y-56716666D01*
X93715714Y-57211904D02*
X93791904Y-57173809D01*
X93830000Y-57135714D01*
X93868095Y-57059523D01*
X93868095Y-56830952D01*
X93830000Y-56754761D01*
X93791904Y-56716666D01*
X93715714Y-56678571D01*
X93601428Y-56678571D01*
X93525238Y-56716666D01*
X93487142Y-56754761D01*
X93449047Y-56830952D01*
X93449047Y-57059523D01*
X93487142Y-57135714D01*
X93525238Y-57173809D01*
X93601428Y-57211904D01*
X93715714Y-57211904D01*
X93106190Y-57211904D02*
X93106190Y-56678571D01*
X93106190Y-56830952D02*
X93068095Y-56754761D01*
X93030000Y-56716666D01*
X92953809Y-56678571D01*
X92877619Y-56678571D01*
X92649047Y-57173809D02*
X92572857Y-57211904D01*
X92420476Y-57211904D01*
X92344285Y-57173809D01*
X92306190Y-57097619D01*
X92306190Y-57059523D01*
X92344285Y-56983333D01*
X92420476Y-56945238D01*
X92534761Y-56945238D01*
X92610952Y-56907142D01*
X92649047Y-56830952D01*
X92649047Y-56792857D01*
X92610952Y-56716666D01*
X92534761Y-56678571D01*
X92420476Y-56678571D01*
X92344285Y-56716666D01*
X91620476Y-56678571D02*
X91620476Y-57211904D01*
X91963333Y-56678571D02*
X91963333Y-57097619D01*
X91925238Y-57173809D01*
X91849047Y-57211904D01*
X91734761Y-57211904D01*
X91658571Y-57173809D01*
X91620476Y-57135714D01*
X91239523Y-56678571D02*
X91239523Y-57211904D01*
X91239523Y-56754761D02*
X91201428Y-56716666D01*
X91125238Y-56678571D01*
X91010952Y-56678571D01*
X90934761Y-56716666D01*
X90896666Y-56792857D01*
X90896666Y-57211904D01*
X90401428Y-57211904D02*
X90477619Y-57173809D01*
X90515714Y-57097619D01*
X90515714Y-56411904D01*
X89791904Y-57173809D02*
X89868095Y-57211904D01*
X90020476Y-57211904D01*
X90096666Y-57173809D01*
X90134761Y-57097619D01*
X90134761Y-56792857D01*
X90096666Y-56716666D01*
X90020476Y-56678571D01*
X89868095Y-56678571D01*
X89791904Y-56716666D01*
X89753809Y-56792857D01*
X89753809Y-56869047D01*
X90134761Y-56945238D01*
X89068095Y-57211904D02*
X89068095Y-56792857D01*
X89106190Y-56716666D01*
X89182380Y-56678571D01*
X89334761Y-56678571D01*
X89410952Y-56716666D01*
X89068095Y-57173809D02*
X89144285Y-57211904D01*
X89334761Y-57211904D01*
X89410952Y-57173809D01*
X89449047Y-57097619D01*
X89449047Y-57021428D01*
X89410952Y-56945238D01*
X89334761Y-56907142D01*
X89144285Y-56907142D01*
X89068095Y-56869047D01*
X88725238Y-57173809D02*
X88649047Y-57211904D01*
X88496666Y-57211904D01*
X88420476Y-57173809D01*
X88382380Y-57097619D01*
X88382380Y-57059523D01*
X88420476Y-56983333D01*
X88496666Y-56945238D01*
X88610952Y-56945238D01*
X88687142Y-56907142D01*
X88725238Y-56830952D01*
X88725238Y-56792857D01*
X88687142Y-56716666D01*
X88610952Y-56678571D01*
X88496666Y-56678571D01*
X88420476Y-56716666D01*
X88039523Y-57211904D02*
X88039523Y-56411904D01*
X87696666Y-57211904D02*
X87696666Y-56792857D01*
X87734761Y-56716666D01*
X87810952Y-56678571D01*
X87925238Y-56678571D01*
X88001428Y-56716666D01*
X88039523Y-56754761D01*
X87010952Y-57173809D02*
X87087142Y-57211904D01*
X87239523Y-57211904D01*
X87315714Y-57173809D01*
X87353809Y-57097619D01*
X87353809Y-56792857D01*
X87315714Y-56716666D01*
X87239523Y-56678571D01*
X87087142Y-56678571D01*
X87010952Y-56716666D01*
X86972857Y-56792857D01*
X86972857Y-56869047D01*
X87353809Y-56945238D01*
X86287142Y-57211904D02*
X86287142Y-56411904D01*
X86287142Y-57173809D02*
X86363333Y-57211904D01*
X86515714Y-57211904D01*
X86591904Y-57173809D01*
X86630000Y-57135714D01*
X86668095Y-57059523D01*
X86668095Y-56830952D01*
X86630000Y-56754761D01*
X86591904Y-56716666D01*
X86515714Y-56678571D01*
X86363333Y-56678571D01*
X86287142Y-56716666D01*
X85906190Y-57135714D02*
X85868095Y-57173809D01*
X85906190Y-57211904D01*
X85944285Y-57173809D01*
X85906190Y-57135714D01*
X85906190Y-57211904D01*
X85182380Y-57173809D02*
X85258571Y-57211904D01*
X85410952Y-57211904D01*
X85487142Y-57173809D01*
X85525238Y-57135714D01*
X85563333Y-57059523D01*
X85563333Y-56830952D01*
X85525238Y-56754761D01*
X85487142Y-56716666D01*
X85410952Y-56678571D01*
X85258571Y-56678571D01*
X85182380Y-56716666D01*
X84725238Y-57211904D02*
X84801428Y-57173809D01*
X84839523Y-57135714D01*
X84877619Y-57059523D01*
X84877619Y-56830952D01*
X84839523Y-56754761D01*
X84801428Y-56716666D01*
X84725238Y-56678571D01*
X84610952Y-56678571D01*
X84534761Y-56716666D01*
X84496666Y-56754761D01*
X84458571Y-56830952D01*
X84458571Y-57059523D01*
X84496666Y-57135714D01*
X84534761Y-57173809D01*
X84610952Y-57211904D01*
X84725238Y-57211904D01*
X84115714Y-57211904D02*
X84115714Y-56678571D01*
X84115714Y-56754761D02*
X84077619Y-56716666D01*
X84001428Y-56678571D01*
X83887142Y-56678571D01*
X83810952Y-56716666D01*
X83772857Y-56792857D01*
X83772857Y-57211904D01*
X83772857Y-56792857D02*
X83734761Y-56716666D01*
X83658571Y-56678571D01*
X83544285Y-56678571D01*
X83468095Y-56716666D01*
X83430000Y-56792857D01*
X83430000Y-57211904D01*
D10*
X102808680Y-78056080D02*
X102808680Y-58056080D01*
X100408680Y-58056080D02*
X100408680Y-78056080D01*
X78408680Y-78041487D02*
X78408680Y-58056080D01*
X80808680Y-58056080D02*
X80808680Y-78041533D01*
X100408680Y-78056080D02*
X102608680Y-78056080D01*
X102608680Y-78056080D02*
X102808680Y-78056080D01*
X102808680Y-58056080D02*
X100408680Y-58056080D01*
X80808680Y-58056080D02*
X78408680Y-58056080D01*
X78408680Y-78056080D02*
X80808680Y-78056080D01*
X93774057Y-78061502D02*
X87372157Y-78061502D01*
X87372358Y-78061502D02*
X87372358Y-71203502D01*
X87372358Y-71203502D02*
X93773158Y-71203502D01*
X93773158Y-71203502D02*
X93773158Y-78061549D01*
X93773158Y-78010702D02*
X93773158Y-78010702D01*
X81401355Y-59174824D02*
G75*
G03X81401355Y-59174824I-91581J0D01*
G01*
X88079555Y-70846024D02*
G75*
G03X88079555Y-70846024I-91581J0D01*
G01*
D12*
X82953013Y-64409803D02*
X82953013Y-65316946D01*
X83013489Y-65498375D01*
X83134441Y-65619327D01*
X83315870Y-65679803D01*
X83436822Y-65679803D01*
X81683013Y-65679803D02*
X82408727Y-65679803D01*
X82045870Y-65679803D02*
X82045870Y-64409803D01*
X82166822Y-64591232D01*
X82287775Y-64712184D01*
X82408727Y-64772660D01*
M02*
