M48
METRIC,TZ
T1C0.300
T2C0.305
T3C0.800
T4C0.800
%
G90
G05
T1
X81100Y-77850
X82450Y-73000
X85750Y-52900
X86200Y-53800
X86350Y-54750
X86500Y-77850
X86600Y-52350
X87600Y-52350
X93800Y-52350
X94800Y-52350
X95200Y-77850
X95550Y-53000
X96300Y-53650
X96950Y-78100
X97050Y-54300
X97800Y-54950
X98550Y-55600
X99300Y-56250
X99350Y-59700
X99600Y-68200
X99800Y-58800
X100100Y-56900
X100200Y-57900
T2
X81560Y-69310
X82300Y-56150
X82490Y-60210
X82649Y-65278
X83108Y-66154
X83730Y-59650
X83870Y-78100
X84010Y-65808
X84020Y-69018
X84510Y-69880
X84780Y-66602
X84787Y-56981
X85240Y-59090
X85493Y-76357
X85530Y-63524
X85660Y-71650
X86467Y-58133
X87013Y-71337
X87042Y-72301
X87060Y-69653
X87980Y-61867
X88124Y-72600
X88513Y-64251
X88513Y-65651
X88513Y-67051
X88513Y-68451
X89913Y-64251
X89913Y-65651
X89913Y-67051
X89913Y-68451
X90400Y-57600
X90427Y-58137
X90523Y-72600
X91313Y-64251
X91313Y-65651
X91313Y-67051
X91313Y-68451
X91350Y-60350
X91470Y-58270
X91900Y-70946
X92713Y-64251
X92713Y-65651
X92713Y-67051
X92713Y-68451
X92988Y-61258
X93880Y-72470
X93920Y-61890
X93962Y-70067
X94300Y-76250
X94730Y-71830
X94811Y-69584
X95420Y-57810
X95472Y-63014
X95729Y-65263
X95771Y-63932
X95840Y-59330
X96040Y-60926
X96138Y-74078
X96660Y-76670
X97032Y-71743
X97340Y-69850
X97380Y-62660
X97476Y-63677
X98080Y-71387
X98850Y-63550
X98890Y-62380
T3
X79609Y-59061
X79609Y-59061
X79609Y-59061
X79609Y-59061
X79609Y-61061
X79609Y-61061
X79609Y-61061
X79609Y-61061
X79609Y-63061
X79609Y-63061
X79609Y-63061
X79609Y-63061
X79609Y-65061
X79609Y-65061
X79609Y-65061
X79609Y-65061
X79609Y-67061
X79609Y-67061
X79609Y-67061
X79609Y-67061
X79609Y-69061
X79609Y-69061
X79609Y-69061
X79609Y-69061
X79609Y-71061
X79609Y-71061
X79609Y-71061
X79609Y-71061
X79609Y-73061
X79609Y-73061
X79609Y-73061
X79609Y-73061
X79609Y-75061
X79609Y-75061
X79609Y-75061
X79609Y-75061
X79609Y-77061
X79609Y-77061
X79609Y-77061
X79609Y-77061
X101609Y-59061
X101609Y-59061
X101609Y-59061
X101609Y-59061
X101609Y-61061
X101609Y-61061
X101609Y-61061
X101609Y-61061
X101609Y-63061
X101609Y-63061
X101609Y-63061
X101609Y-63061
X101609Y-65061
X101609Y-65061
X101609Y-65061
X101609Y-65061
X101609Y-67061
X101609Y-67061
X101609Y-67061
X101609Y-67061
X101609Y-69061
X101609Y-69061
X101609Y-69061
X101609Y-69061
X101609Y-71061
X101609Y-71061
X101609Y-71061
X101609Y-71061
X101609Y-73061
X101609Y-73061
X101609Y-73061
X101609Y-73061
X101609Y-75061
X101609Y-75061
X101609Y-75061
X101609Y-75061
X101609Y-77061
X101609Y-77061
X101609Y-77061
X101609Y-77061
T4
X82677Y-76278
X98770Y-76278
T0
M30
