G04 #@! TF.GenerationSoftware,KiCad,Pcbnew,no-vcs-found-96b3286~58~ubuntu16.10.1*
G04 #@! TF.CreationDate,2017-03-05T12:49:51+01:00*
G04 #@! TF.ProjectId,cc2538module,6363323533386D6F64756C652E6B6963,rev?*
G04 #@! TF.FileFunction,Copper,L1,Top,Signal*
G04 #@! TF.FilePolarity,Positive*
%FSLAX46Y46*%
G04 Gerber Fmt 4.6, Leading zero omitted, Abs format (unit mm)*
G04 Created by KiCad (PCBNEW no-vcs-found-96b3286~58~ubuntu16.10.1) date Sun Mar  5 12:49:51 2017*
%MOMM*%
%LPD*%
G01*
G04 APERTURE LIST*
%ADD10C,0.150000*%
%ADD11C,0.600000*%
%ADD12O,1.600000X1.360000*%
%ADD13R,1.360000X1.360000*%
%ADD14R,0.500000X0.600000*%
%ADD15R,0.700000X0.600000*%
%ADD16R,1.700000X0.900000*%
%ADD17R,0.600000X0.500000*%
%ADD18R,0.600000X1.100000*%
%ADD19R,0.800000X0.900000*%
%ADD20R,1.400000X1.400000*%
%ADD21R,0.800000X0.200000*%
%ADD22R,0.200000X0.800000*%
%ADD23R,0.600000X0.400000*%
%ADD24R,0.400000X0.600000*%
%ADD25R,1.150000X2.500000*%
%ADD26R,1.150000X1.200000*%
%ADD27R,1.200000X2.500000*%
%ADD28R,1.000000X0.350000*%
%ADD29R,0.600000X1.450000*%
%ADD30R,0.520000X0.300000*%
%ADD31C,0.762000*%
%ADD32C,0.340502*%
%ADD33C,0.152400*%
%ADD34C,0.355600*%
%ADD35C,0.304800*%
%ADD36C,0.200000*%
%ADD37C,0.254000*%
G04 APERTURE END LIST*
D10*
D11*
X86350000Y-54750000D03*
X86200000Y-53800000D03*
X99350000Y-59700000D03*
X99800000Y-58800000D03*
X100200000Y-57900000D03*
X98550000Y-55600000D03*
X97800000Y-54950000D03*
X82450000Y-73000000D03*
X99600000Y-68200000D03*
X96950000Y-78100000D03*
X81100000Y-77850000D03*
X86500000Y-77850000D03*
X95200000Y-77850000D03*
X85750000Y-52900000D03*
X87600000Y-52350000D03*
X86600000Y-52350000D03*
D12*
X101608680Y-77061080D03*
X101608680Y-75061080D03*
X101608680Y-73061080D03*
X101608680Y-71061080D03*
X101608680Y-69061080D03*
X101608680Y-67061080D03*
X101608680Y-65061080D03*
X101608680Y-63061080D03*
X101608680Y-61061080D03*
X101608680Y-59061080D03*
D13*
X79608680Y-59061080D03*
D12*
X79608680Y-61061080D03*
X79608680Y-63061080D03*
X79608680Y-65061080D03*
X79608680Y-67061080D03*
X79608680Y-69061080D03*
X79608680Y-71061080D03*
X79608680Y-73061080D03*
X79608680Y-75061080D03*
X79608680Y-77061080D03*
X79608680Y-77061080D03*
X79608680Y-75061080D03*
X79608680Y-73061080D03*
X79608680Y-71061080D03*
X79608680Y-69061080D03*
X79608680Y-67061080D03*
X79608680Y-65061080D03*
X79608680Y-63061080D03*
X79608680Y-61061080D03*
D13*
X79608680Y-59061080D03*
D12*
X101608680Y-59061080D03*
X101608680Y-61061080D03*
X101608680Y-63061080D03*
X101608680Y-65061080D03*
X101608680Y-67061080D03*
X101608680Y-69061080D03*
X101608680Y-71061080D03*
X101608680Y-73061080D03*
X101608680Y-75061080D03*
X101608680Y-77061080D03*
X101608680Y-77061080D03*
X101608680Y-75061080D03*
X101608680Y-73061080D03*
X101608680Y-71061080D03*
X101608680Y-69061080D03*
X101608680Y-67061080D03*
X101608680Y-65061080D03*
X101608680Y-63061080D03*
X101608680Y-61061080D03*
X101608680Y-59061080D03*
D13*
X79608680Y-59061080D03*
D12*
X79608680Y-61061080D03*
X79608680Y-63061080D03*
X79608680Y-65061080D03*
X79608680Y-67061080D03*
X79608680Y-69061080D03*
X79608680Y-71061080D03*
X79608680Y-73061080D03*
X79608680Y-75061080D03*
X79608680Y-77061080D03*
D11*
X93800000Y-52350000D03*
X100100000Y-56900000D03*
X99300000Y-56250000D03*
X97050000Y-54300000D03*
X96300000Y-53650000D03*
X95550000Y-53000000D03*
X94800000Y-52350000D03*
D14*
X96700000Y-74169580D03*
X96700000Y-73069580D03*
D15*
X89750000Y-77850000D03*
X89750000Y-76750000D03*
D12*
X79608680Y-77061080D03*
X79608680Y-75061080D03*
X79608680Y-73061080D03*
X79608680Y-71061080D03*
X79608680Y-69061080D03*
X79608680Y-67061080D03*
X79608680Y-65061080D03*
X79608680Y-63061080D03*
X79608680Y-61061080D03*
D13*
X79608680Y-59061080D03*
D12*
X101608680Y-59061080D03*
X101608680Y-61061080D03*
X101608680Y-63061080D03*
X101608680Y-65061080D03*
X101608680Y-67061080D03*
X101608680Y-69061080D03*
X101608680Y-71061080D03*
X101608680Y-73061080D03*
X101608680Y-75061080D03*
X101608680Y-77061080D03*
D15*
X88500000Y-76750000D03*
X88500000Y-77850000D03*
X91000000Y-77860000D03*
X91000000Y-76760000D03*
X92250000Y-76790000D03*
X92250000Y-77890000D03*
D16*
X98770440Y-77978000D03*
X98770440Y-74578000D03*
X82677000Y-74578000D03*
X82677000Y-77978000D03*
D14*
X98350000Y-62410000D03*
X98350000Y-61310000D03*
X94870000Y-60410000D03*
X94870000Y-59310000D03*
X84660000Y-77380000D03*
X84660000Y-76280000D03*
X86150000Y-69910000D03*
X86150000Y-71010000D03*
X94874973Y-56599213D03*
X94874973Y-57699213D03*
X83230000Y-60830000D03*
X83230000Y-61930000D03*
D17*
X85780000Y-61280000D03*
X84680000Y-61280000D03*
D14*
X84470000Y-58530000D03*
X84470000Y-57430000D03*
D17*
X81770000Y-59080000D03*
X82870000Y-59080000D03*
X93610000Y-71630000D03*
X92510000Y-71630000D03*
X95440000Y-69590000D03*
X96540000Y-69590000D03*
D14*
X98320000Y-63520000D03*
X98320000Y-64620000D03*
X85010000Y-70080000D03*
X85010000Y-71180000D03*
X93880000Y-59300000D03*
X93880000Y-60400000D03*
X92160000Y-59580000D03*
X92160000Y-58480000D03*
X84690000Y-62400000D03*
X84690000Y-63500000D03*
D17*
X85810000Y-60220000D03*
X84710000Y-60220000D03*
D14*
X81830000Y-60830000D03*
X81830000Y-61930000D03*
D18*
X81817928Y-63308560D03*
X83217928Y-63308560D03*
D19*
X96037973Y-57827713D03*
X96037973Y-56427713D03*
X97137973Y-56427713D03*
X97137973Y-57827713D03*
D20*
X92713000Y-67050920D03*
X92713000Y-68450920D03*
X92713000Y-65650920D03*
X92713000Y-64250920D03*
X91313000Y-67050920D03*
X91313000Y-68450920D03*
X91313000Y-65650920D03*
X91313000Y-64250920D03*
X89913000Y-67050920D03*
X89913000Y-68450920D03*
X89913000Y-65650920D03*
X89913000Y-64250920D03*
X88513000Y-64250920D03*
X88513000Y-65650920D03*
X88513000Y-67050920D03*
D21*
X87113000Y-65750920D03*
X87113000Y-63750920D03*
X87113000Y-64150920D03*
X87113000Y-64950920D03*
X87113000Y-65350920D03*
X87113000Y-64550920D03*
X87113000Y-68150920D03*
X87113000Y-66550920D03*
X87113000Y-67750920D03*
X87113000Y-67350920D03*
X87113000Y-66150920D03*
X87113000Y-66950920D03*
X87113000Y-68950920D03*
X87113000Y-68550920D03*
D22*
X93213000Y-62850920D03*
X92013000Y-62850920D03*
X92413000Y-62850920D03*
X92813000Y-62850920D03*
X90013000Y-62850920D03*
X90413000Y-62850920D03*
X91613000Y-62850920D03*
X91213000Y-62850920D03*
X90813000Y-62850920D03*
X88813000Y-62850920D03*
X89613000Y-62850920D03*
X89213000Y-62850920D03*
X88413000Y-62850920D03*
X88013000Y-62850920D03*
D21*
X94113000Y-63750920D03*
X94113000Y-64150920D03*
X94113000Y-64550920D03*
X94113000Y-64950920D03*
D22*
X93213000Y-69850920D03*
X92813000Y-69850920D03*
D20*
X88513000Y-68450920D03*
D21*
X94113000Y-65350920D03*
X94113000Y-65750920D03*
X94113000Y-66150920D03*
X94113000Y-66550920D03*
X94113000Y-66950920D03*
X94113000Y-67350920D03*
X94113000Y-67750920D03*
X94113000Y-68150920D03*
X94113000Y-68550920D03*
X94113000Y-68950920D03*
D22*
X92413000Y-69850920D03*
X92013000Y-69850920D03*
X91613000Y-69850920D03*
X91213000Y-69850920D03*
X90813000Y-69850920D03*
X90413000Y-69850920D03*
X90013000Y-69850920D03*
X89613000Y-69850920D03*
X89213000Y-69850920D03*
X88813000Y-69850920D03*
X88413000Y-69850920D03*
X88013000Y-69850920D03*
D23*
X96320000Y-62610000D03*
X96320000Y-61710000D03*
X84680000Y-75280000D03*
X84680000Y-74380000D03*
D24*
X85710000Y-62640000D03*
X86610000Y-62640000D03*
D23*
X96690000Y-75040000D03*
X96690000Y-75940000D03*
D24*
X97880000Y-73170000D03*
X98780000Y-73170000D03*
D23*
X92200000Y-74850000D03*
X92200000Y-75750000D03*
X91000000Y-75750000D03*
X91000000Y-74850000D03*
X89750000Y-74850000D03*
X89750000Y-75750000D03*
X88500000Y-75750000D03*
X88500000Y-74850000D03*
D25*
X88715000Y-53550000D03*
D26*
X90400000Y-55280000D03*
D27*
X92085000Y-53550000D03*
D28*
X87900000Y-58200000D03*
X89700000Y-58200000D03*
X87900000Y-57550000D03*
X87900000Y-58850000D03*
X89700000Y-58850000D03*
X89700000Y-57550000D03*
D29*
X83430000Y-55070000D03*
X85030000Y-55070000D03*
D30*
X81935000Y-57040000D03*
X81935000Y-57540000D03*
X81935000Y-58040000D03*
X82705000Y-58040000D03*
X82705000Y-57540000D03*
X82705000Y-57040000D03*
D31*
X85240000Y-59090000D03*
X98850000Y-63550000D03*
X93880002Y-72470000D03*
X96137585Y-74077585D03*
X91470000Y-58270000D03*
X95840000Y-59330000D03*
X95420000Y-57810000D03*
X88513000Y-68450920D03*
X89913000Y-68450920D03*
X91313000Y-68450920D03*
X92713000Y-68450920D03*
X92713000Y-67050920D03*
X91313000Y-67050920D03*
X89913000Y-67050920D03*
X88513000Y-67050920D03*
X88513000Y-64250920D03*
X88513000Y-65650920D03*
X89913000Y-65650920D03*
X91313000Y-65650920D03*
X92713000Y-65650920D03*
X92713000Y-64250920D03*
X91313000Y-64250920D03*
X89913000Y-64250920D03*
X85660000Y-71650000D03*
X86467479Y-58133287D03*
X82490000Y-60210000D03*
X98890000Y-62380000D03*
X83870000Y-78100000D03*
X97340000Y-69850000D03*
X90426703Y-58136579D03*
X90400000Y-57600000D03*
X94299990Y-76250000D03*
X97380000Y-62660000D03*
X85492867Y-76357133D03*
X81560000Y-69310000D03*
X83108403Y-66153502D03*
X82649153Y-65277891D03*
X87041504Y-72301390D03*
X90522789Y-72599590D03*
X87012616Y-71336610D03*
X91350000Y-60350000D03*
X95728954Y-65263277D03*
X91899723Y-70946315D03*
X96660000Y-76670000D03*
X94730000Y-71830000D03*
X92988019Y-61258019D03*
X84787158Y-56981120D03*
X87980000Y-61866718D03*
X94811454Y-69584382D03*
X84510000Y-69880000D03*
X85530000Y-63524212D03*
X88123522Y-72600410D03*
X98080000Y-71387422D03*
X95770846Y-63931694D03*
X95472482Y-63013765D03*
X84780000Y-66602355D03*
X84009538Y-65807685D03*
X93961705Y-70066610D03*
X82300000Y-56150000D03*
X96040000Y-60925798D03*
X84019513Y-69018018D03*
X83730000Y-59650000D03*
X97031632Y-71743033D03*
X97476422Y-63677488D03*
X93920000Y-61890000D03*
X87060000Y-69653390D03*
D32*
X84710000Y-60220000D02*
X84710000Y-58770000D01*
X84710000Y-58770000D02*
X84470000Y-58530000D01*
X84710000Y-60220000D02*
X84710000Y-59620000D01*
X84710000Y-59620000D02*
X85240000Y-59090000D01*
X84470000Y-58530000D02*
X84680000Y-58530000D01*
X84680000Y-58530000D02*
X85240000Y-59090000D01*
X98320000Y-63520000D02*
X98820000Y-63520000D01*
X98820000Y-63520000D02*
X98850000Y-63550000D01*
D33*
X93610000Y-72199998D02*
X93880002Y-72470000D01*
X93610000Y-71630000D02*
X93610000Y-72199998D01*
X96676400Y-74077585D02*
X96137585Y-74077585D01*
X96691575Y-74077585D02*
X96676400Y-74077585D01*
X96700000Y-74069160D02*
X96691575Y-74077585D01*
X92160000Y-58480000D02*
X91680000Y-58480000D01*
X91680000Y-58480000D02*
X91470000Y-58270000D01*
X93880000Y-59300000D02*
X94860000Y-59300000D01*
X94860000Y-59300000D02*
X94870000Y-59310000D01*
X94870000Y-59310000D02*
X95820000Y-59310000D01*
X95820000Y-59310000D02*
X95840000Y-59330000D01*
X94874973Y-57699213D02*
X95309213Y-57699213D01*
X95309213Y-57699213D02*
X95420000Y-57810000D01*
X96037973Y-57827713D02*
X95437713Y-57827713D01*
X95437713Y-57827713D02*
X95420000Y-57810000D01*
X88013000Y-69850920D02*
X88013000Y-69298520D01*
X88013000Y-69298520D02*
X88513000Y-68798520D01*
X88513000Y-68798520D02*
X88513000Y-68450920D01*
X89913000Y-68450920D02*
X88513000Y-68450920D01*
X91313000Y-68450920D02*
X89913000Y-68450920D01*
X92713000Y-68450920D02*
X91313000Y-68450920D01*
X92713000Y-67050920D02*
X92713000Y-68450920D01*
X91313000Y-67050920D02*
X92713000Y-67050920D01*
X89913000Y-67050920D02*
X91313000Y-67050920D01*
X88513000Y-67050920D02*
X89913000Y-67050920D01*
X88513000Y-65650920D02*
X88513000Y-67050920D01*
X88513000Y-65650920D02*
X88513000Y-64250920D01*
X89913000Y-65650920D02*
X88513000Y-65650920D01*
X91313000Y-65650920D02*
X89913000Y-65650920D01*
X92713000Y-65650920D02*
X91313000Y-65650920D01*
X92713000Y-64250920D02*
X92713000Y-65650920D01*
X91313000Y-64250920D02*
X92713000Y-64250920D01*
X89913000Y-64250920D02*
X91313000Y-64250920D01*
X88513000Y-64250920D02*
X89913000Y-64250920D01*
D32*
X86150000Y-71010000D02*
X86150000Y-71160000D01*
X86150000Y-71160000D02*
X85660000Y-71650000D01*
X85010000Y-71180000D02*
X85190000Y-71180000D01*
X85190000Y-71180000D02*
X85660000Y-71650000D01*
D34*
X86534192Y-58200000D02*
X86467479Y-58133287D01*
X87900000Y-58200000D02*
X86534192Y-58200000D01*
D33*
X82870000Y-59080000D02*
X82870000Y-58205000D01*
X82870000Y-58205000D02*
X82705000Y-58040000D01*
X83230000Y-60830000D02*
X83110000Y-60830000D01*
X83110000Y-60830000D02*
X82490000Y-60210000D01*
X81830000Y-60830000D02*
X81870000Y-60830000D01*
X81870000Y-60830000D02*
X82490000Y-60210000D01*
X82870000Y-59080000D02*
X82870000Y-59830000D01*
X82870000Y-59830000D02*
X82490000Y-60210000D01*
X98350000Y-62410000D02*
X98860000Y-62410000D01*
X98860000Y-62410000D02*
X98890000Y-62380000D01*
X84660000Y-77380000D02*
X84590000Y-77380000D01*
X84590000Y-77380000D02*
X83870000Y-78100000D01*
X82677000Y-77978000D02*
X83748000Y-77978000D01*
X83748000Y-77978000D02*
X83870000Y-78100000D01*
X97080000Y-69590000D02*
X97340000Y-69850000D01*
X96540000Y-69590000D02*
X97080000Y-69590000D01*
X84690000Y-62400000D02*
X85470000Y-62400000D01*
X85470000Y-62400000D02*
X85710000Y-62640000D01*
X85580000Y-62510000D02*
X85710000Y-62640000D01*
D34*
X89700000Y-58200000D02*
X90363282Y-58200000D01*
X90363282Y-58200000D02*
X90426703Y-58136579D01*
X89700000Y-57550000D02*
X90350000Y-57550000D01*
X90350000Y-57550000D02*
X90400000Y-57600000D01*
X89700000Y-58200000D02*
X87900000Y-58200000D01*
X89700000Y-57550000D02*
X89700000Y-58200000D01*
D33*
X97330000Y-62610000D02*
X97380000Y-62660000D01*
X96320000Y-62610000D02*
X97330000Y-62610000D01*
X81560000Y-73861000D02*
X81560000Y-69848815D01*
X82277000Y-74578000D02*
X81560000Y-73861000D01*
X82677000Y-74578000D02*
X82277000Y-74578000D01*
X81560000Y-69848815D02*
X81560000Y-69310000D01*
X84660000Y-76280000D02*
X85415734Y-76280000D01*
X85415734Y-76280000D02*
X85492867Y-76357133D01*
X84680000Y-75280000D02*
X82776600Y-75280000D01*
X82677000Y-75180400D02*
X82677000Y-74578000D01*
X82776600Y-75280000D02*
X82677000Y-75180400D01*
X84660000Y-76280000D02*
X84660000Y-75300000D01*
X84660000Y-75300000D02*
X84680000Y-75280000D01*
X84326531Y-65147284D02*
X83713716Y-65147284D01*
X83108403Y-65752597D02*
X83108403Y-66153502D01*
X84530167Y-65350920D02*
X84326531Y-65147284D01*
X83713716Y-65147284D02*
X83108403Y-65752597D01*
X87113000Y-65350920D02*
X84530167Y-65350920D01*
X84475563Y-64791673D02*
X83135371Y-64791673D01*
X83030152Y-64896892D02*
X82649153Y-65277891D01*
X83135371Y-64791673D02*
X83030152Y-64896892D01*
X87113000Y-64950920D02*
X84634810Y-64950920D01*
X84634810Y-64950920D02*
X84475563Y-64791673D01*
X87422503Y-71920391D02*
X87041504Y-72301390D01*
X88813000Y-69850920D02*
X88813000Y-70529894D01*
X88813000Y-70529894D02*
X87422503Y-71920391D01*
X87479710Y-71336610D02*
X87012616Y-71336610D01*
X88413000Y-69850920D02*
X88413000Y-70403320D01*
X88413000Y-70403320D02*
X87479710Y-71336610D01*
X92510000Y-71630000D02*
X92510000Y-71556592D01*
X92510000Y-71556592D02*
X91899723Y-70946315D01*
X91613000Y-69850920D02*
X91613000Y-70659592D01*
X91613000Y-70659592D02*
X91899723Y-70946315D01*
X90413000Y-62850920D02*
X90413000Y-61887000D01*
X90413000Y-61887000D02*
X91350000Y-60950000D01*
X91350000Y-60950000D02*
X91350000Y-60350000D01*
X90413000Y-62298520D02*
X90400000Y-62285520D01*
X90400000Y-62285520D02*
X90400000Y-61950000D01*
X92160000Y-59630000D02*
X91440000Y-60350000D01*
X91440000Y-60350000D02*
X91350000Y-60350000D01*
X92160000Y-59580000D02*
X92160000Y-59630000D01*
X91613000Y-62163342D02*
X92137324Y-61639018D01*
X92137324Y-61639018D02*
X92607020Y-61639018D01*
X91613000Y-62850920D02*
X91613000Y-62163342D01*
X92607020Y-61639018D02*
X92988019Y-61258019D01*
D32*
X95641311Y-65350920D02*
X95728954Y-65263277D01*
X95450000Y-65350920D02*
X95641311Y-65350920D01*
D33*
X94113000Y-68950920D02*
X94177992Y-68950920D01*
X94177992Y-68950920D02*
X94811454Y-69584382D01*
X97917600Y-64620000D02*
X98320000Y-64620000D01*
X97186680Y-65350920D02*
X97917600Y-64620000D01*
X95450000Y-65350920D02*
X97186680Y-65350920D01*
X82705000Y-57040000D02*
X84080000Y-57040000D01*
X84080000Y-57040000D02*
X84470000Y-57430000D01*
D35*
X91736408Y-70783000D02*
X91899723Y-70946315D01*
D33*
X96690000Y-75940000D02*
X96690000Y-76640000D01*
X96690000Y-76640000D02*
X96660000Y-76670000D01*
D35*
X93880000Y-60450000D02*
X93071981Y-61258019D01*
X93880000Y-60400000D02*
X93880000Y-60450000D01*
X93071981Y-61258019D02*
X92988019Y-61258019D01*
D33*
X94113000Y-65350920D02*
X95450000Y-65350920D01*
D35*
X85030000Y-56738278D02*
X84787158Y-56981120D01*
X85030000Y-55070000D02*
X85030000Y-56738278D01*
X84406159Y-57362119D02*
X84787158Y-56981120D01*
X84406159Y-57366159D02*
X84406159Y-57362119D01*
X84470000Y-57430000D02*
X84406159Y-57366159D01*
D32*
X85780000Y-61280000D02*
X87393282Y-61280000D01*
X87393282Y-61280000D02*
X87980000Y-61866718D01*
X88560000Y-62257838D02*
X88168880Y-61866718D01*
X88168880Y-61866718D02*
X87980000Y-61866718D01*
D35*
X84680000Y-74380000D02*
X84680000Y-73875200D01*
X84680000Y-73875200D02*
X84129001Y-73324201D01*
X84129001Y-70260999D02*
X84510000Y-69880000D01*
X84129001Y-73324201D02*
X84129001Y-70260999D01*
X84510000Y-69880000D02*
X84810000Y-69880000D01*
X84810000Y-69880000D02*
X85010000Y-70080000D01*
D33*
X85048815Y-69880000D02*
X84510000Y-69880000D01*
X86519080Y-68550920D02*
X85190000Y-69880000D01*
X87113000Y-68550920D02*
X86519080Y-68550920D01*
D35*
X94817072Y-69590000D02*
X94811454Y-69584382D01*
X95440000Y-69590000D02*
X94817072Y-69590000D01*
D32*
X94430455Y-69203383D02*
X94811454Y-69584382D01*
X94251444Y-69024372D02*
X94430455Y-69203383D01*
D33*
X85756708Y-63750920D02*
X85530000Y-63524212D01*
X87113000Y-63750920D02*
X85756708Y-63750920D01*
X85505788Y-63500000D02*
X85530000Y-63524212D01*
X84690000Y-63500000D02*
X85505788Y-63500000D01*
D35*
X88560000Y-62850920D02*
X88560000Y-62257838D01*
X85810000Y-60220000D02*
X85810000Y-61250000D01*
X85810000Y-61250000D02*
X85780000Y-61280000D01*
X88560000Y-62850920D02*
X89157399Y-62850920D01*
D33*
X88560000Y-62850920D02*
X88413000Y-62850920D01*
X88813000Y-62850920D02*
X88560000Y-62850920D01*
X87112080Y-63750000D02*
X87113000Y-63750920D01*
X89213000Y-62850920D02*
X88813000Y-62850920D01*
X90413000Y-62850920D02*
X90413000Y-62298520D01*
X90413000Y-62298520D02*
X90398600Y-62284120D01*
X89213000Y-69850920D02*
X89213000Y-71510932D01*
X89213000Y-71510932D02*
X88504521Y-72219411D01*
X88504521Y-72219411D02*
X88123522Y-72600410D01*
X97775201Y-71082623D02*
X98080000Y-71387422D01*
X92413000Y-70506228D02*
X92989395Y-71082623D01*
X92989395Y-71082623D02*
X97775201Y-71082623D01*
X92413000Y-69850920D02*
X92413000Y-70506228D01*
X100157600Y-73730000D02*
X101488680Y-75061080D01*
X101488680Y-75061080D02*
X101608680Y-75061080D01*
X93136692Y-70727012D02*
X98444406Y-70727012D01*
X92813000Y-69850920D02*
X92813000Y-70403320D01*
X92813000Y-70403320D02*
X93136692Y-70727012D01*
X98444406Y-70727012D02*
X100157600Y-72440206D01*
X100157600Y-72440206D02*
X100157600Y-73730000D01*
X101488680Y-59061080D02*
X99870000Y-60679760D01*
X101608680Y-59061080D02*
X101488680Y-59061080D01*
X94665400Y-65750920D02*
X94113000Y-65750920D01*
X95131666Y-65750920D02*
X94665400Y-65750920D01*
X99870000Y-64040930D02*
X97987243Y-65923687D01*
X97987243Y-65923687D02*
X95304433Y-65923687D01*
X99870000Y-60679760D02*
X99870000Y-64040930D01*
X95304433Y-65923687D02*
X95131666Y-65750920D01*
X95143935Y-66266098D02*
X95028757Y-66150920D01*
X100250000Y-64163839D02*
X98147741Y-66266098D01*
X101608680Y-61061080D02*
X101488680Y-61061080D01*
X98147741Y-66266098D02*
X95143935Y-66266098D01*
X101488680Y-61061080D02*
X100250000Y-62299760D01*
X95028757Y-66150920D02*
X94665400Y-66150920D01*
X100250000Y-62299760D02*
X100250000Y-64163839D01*
X94665400Y-66150920D02*
X94113000Y-66150920D01*
X98308239Y-66608509D02*
X94983437Y-66608509D01*
X94665400Y-66550920D02*
X94113000Y-66550920D01*
X94983437Y-66608509D02*
X94925848Y-66550920D01*
X100656280Y-64260468D02*
X98308239Y-66608509D01*
X101488680Y-63061080D02*
X100656280Y-63893480D01*
X100656280Y-63893480D02*
X100656280Y-64260468D01*
X94925848Y-66550920D02*
X94665400Y-66550920D01*
X101608680Y-63061080D02*
X101488680Y-63061080D01*
X101608680Y-65061080D02*
X101488680Y-65061080D01*
X101488680Y-65061080D02*
X99598840Y-66950920D01*
X99598840Y-66950920D02*
X94665400Y-66950920D01*
X94665400Y-66950920D02*
X94113000Y-66950920D01*
X101608680Y-67061080D02*
X99972922Y-67061080D01*
X99972922Y-67061080D02*
X99683082Y-67350920D01*
X99683082Y-67350920D02*
X94665400Y-67350920D01*
X94665400Y-67350920D02*
X94113000Y-67350920D01*
X101608680Y-69061080D02*
X98457164Y-69061080D01*
X98457164Y-69061080D02*
X97147004Y-67750920D01*
X97147004Y-67750920D02*
X94617121Y-67750920D01*
X94617121Y-67750920D02*
X94113000Y-67750920D01*
X101608680Y-71061080D02*
X99972922Y-71061080D01*
X97076722Y-68164880D02*
X94126960Y-68164880D01*
X94126960Y-68164880D02*
X94113000Y-68150920D01*
X99972922Y-71061080D02*
X97076722Y-68164880D01*
X101488680Y-73061080D02*
X96978520Y-68550920D01*
X94665400Y-68550920D02*
X94113000Y-68550920D01*
X101608680Y-73061080D02*
X101488680Y-73061080D01*
X96978520Y-68550920D02*
X94665400Y-68550920D01*
D35*
X79608680Y-59061080D02*
X81751080Y-59061080D01*
X81751080Y-59061080D02*
X81770000Y-59080000D01*
X79608680Y-59061080D02*
X80913920Y-59061080D01*
X80913920Y-59061080D02*
X81929399Y-58045601D01*
D33*
X79608680Y-59061080D02*
X81216320Y-59061080D01*
X81216320Y-59061080D02*
X81935000Y-58342400D01*
X81935000Y-58342400D02*
X81935000Y-58040000D01*
X79608680Y-61061080D02*
X79728680Y-61061080D01*
X85124631Y-67262765D02*
X85836476Y-66550920D01*
X81238527Y-64068018D02*
X81988752Y-64818243D01*
X81988752Y-64818243D02*
X81988752Y-65998341D01*
X83253176Y-67262765D02*
X85124631Y-67262765D01*
X86560600Y-66550920D02*
X87113000Y-66550920D01*
X85836476Y-66550920D02*
X86560600Y-66550920D01*
X81988752Y-65998341D02*
X83253176Y-67262765D01*
X81238527Y-62570927D02*
X81238527Y-64068018D01*
X79728680Y-61061080D02*
X81238527Y-62570927D01*
X81633141Y-64965541D02*
X81633141Y-66145639D01*
X85271929Y-67618376D02*
X85939385Y-66950920D01*
X86560600Y-66950920D02*
X87113000Y-66950920D01*
X83105878Y-67618376D02*
X85271929Y-67618376D01*
X79608680Y-63061080D02*
X79728680Y-63061080D01*
X79728680Y-63061080D02*
X81633141Y-64965541D01*
X81633141Y-66145639D02*
X83105878Y-67618376D01*
X85939385Y-66950920D02*
X86560600Y-66950920D01*
X86560600Y-67350920D02*
X87113000Y-67350920D01*
X82641587Y-67973987D02*
X85444292Y-67973987D01*
X86067359Y-67350920D02*
X86560600Y-67350920D01*
X79728680Y-65061080D02*
X82641587Y-67973987D01*
X85444292Y-67973987D02*
X86067359Y-67350920D01*
X79608680Y-65061080D02*
X79728680Y-65061080D01*
X86560600Y-67750920D02*
X87113000Y-67750920D01*
X86304260Y-67750920D02*
X86560600Y-67750920D01*
X85725582Y-68329598D02*
X86304260Y-67750920D01*
X81292562Y-68329598D02*
X85725582Y-68329598D01*
X80561080Y-69061080D02*
X81292562Y-68329598D01*
X79608680Y-69061080D02*
X80561080Y-69061080D01*
X94969521Y-64550920D02*
X95588747Y-63931694D01*
X94113000Y-64550920D02*
X94969521Y-64550920D01*
X95588747Y-63931694D02*
X95770846Y-63931694D01*
X94803390Y-63682857D02*
X95091483Y-63394764D01*
X95091483Y-63394764D02*
X95472482Y-63013765D01*
X94803390Y-64012930D02*
X94803390Y-63682857D01*
X94113000Y-64150920D02*
X94665400Y-64150920D01*
X94665400Y-64150920D02*
X94803390Y-64012930D01*
X85160999Y-66221356D02*
X84780000Y-66602355D01*
X85231435Y-66150920D02*
X85160999Y-66221356D01*
X87113000Y-66150920D02*
X85231435Y-66150920D01*
X84066303Y-65750920D02*
X84009538Y-65807685D01*
X87113000Y-65750920D02*
X84066303Y-65750920D01*
X93746015Y-69850920D02*
X93961705Y-70066610D01*
X93213000Y-69850920D02*
X93746015Y-69850920D01*
X81935000Y-56515000D02*
X82300000Y-56150000D01*
X81935000Y-57040000D02*
X81935000Y-56515000D01*
X94142002Y-62850920D02*
X96040000Y-60925798D01*
X96040000Y-60952922D02*
X96040000Y-60925798D01*
X93213000Y-62850920D02*
X94142002Y-62850920D01*
X81935000Y-57540000D02*
X81522600Y-57540000D01*
X81522600Y-57540000D02*
X81240000Y-57257400D01*
X81240000Y-57257400D02*
X81240000Y-56180000D01*
X81240000Y-56180000D02*
X82350000Y-55070000D01*
X82350000Y-55070000D02*
X83430000Y-55070000D01*
X84558328Y-69018018D02*
X84019513Y-69018018D01*
X85540071Y-69018018D02*
X84558328Y-69018018D01*
X87113000Y-68150920D02*
X86407169Y-68150920D01*
X86407169Y-68150920D02*
X85540071Y-69018018D01*
X83730000Y-59111185D02*
X83730000Y-59650000D01*
X83730000Y-58152600D02*
X83730000Y-59111185D01*
X82705000Y-57540000D02*
X83117400Y-57540000D01*
X83117400Y-57540000D02*
X83730000Y-58152600D01*
X87900000Y-57040000D02*
X89660000Y-55280000D01*
X89660000Y-55280000D02*
X90400000Y-55280000D01*
X87900000Y-57550000D02*
X87900000Y-57040000D01*
X88500000Y-75750000D02*
X88500000Y-76750000D01*
X88500000Y-74850000D02*
X88500000Y-73197092D01*
X88500000Y-73197092D02*
X89394389Y-72302703D01*
X89394389Y-72302703D02*
X89394389Y-72002702D01*
X89394389Y-72002702D02*
X90013000Y-71384091D01*
X90013000Y-71384091D02*
X90013000Y-70403320D01*
X90013000Y-70403320D02*
X90013000Y-69850920D01*
X89750000Y-74850000D02*
X89750000Y-72150000D01*
X89750000Y-72150000D02*
X90413000Y-71487000D01*
X90413000Y-71487000D02*
X90413000Y-70403320D01*
X90413000Y-70403320D02*
X90413000Y-69850920D01*
X89750000Y-75750000D02*
X89750000Y-76750000D01*
X91000000Y-75750000D02*
X91000000Y-76760000D01*
X91000000Y-74850000D02*
X91000000Y-74200000D01*
X90813000Y-70403320D02*
X90813000Y-69850920D01*
X91000000Y-74200000D02*
X91400000Y-73800000D01*
X91400000Y-73800000D02*
X91400000Y-72102908D01*
X91400000Y-72102908D02*
X90813000Y-71515908D01*
X90813000Y-71515908D02*
X90813000Y-70403320D01*
X91930599Y-72130599D02*
X91213000Y-71413000D01*
X91213000Y-71413000D02*
X91213000Y-69850920D01*
X91930599Y-74228199D02*
X91930599Y-72130599D01*
X92200000Y-74850000D02*
X92200000Y-74497600D01*
X92200000Y-74497600D02*
X91930599Y-74228199D01*
X92200000Y-75750000D02*
X92200000Y-76740000D01*
X92200000Y-76740000D02*
X92250000Y-76790000D01*
X95411961Y-64602876D02*
X96551034Y-64602876D01*
X95063917Y-64950920D02*
X95411961Y-64602876D01*
X96551034Y-64602876D02*
X97095423Y-64058487D01*
X94113000Y-64950920D02*
X95063917Y-64950920D01*
X97095423Y-64058487D02*
X97476422Y-63677488D01*
X97880000Y-72591401D02*
X97412631Y-72124032D01*
X97880000Y-73170000D02*
X97880000Y-72591401D01*
X97412631Y-72124032D02*
X97031632Y-71743033D01*
X97880000Y-73170000D02*
X96700000Y-73170000D01*
X98770440Y-74578000D02*
X98770440Y-73179560D01*
X98770440Y-73179560D02*
X98780000Y-73170000D01*
X96690000Y-75040000D02*
X98308440Y-75040000D01*
X98308440Y-75040000D02*
X98770440Y-74578000D01*
X88013000Y-62850920D02*
X86550920Y-62850920D01*
X86550920Y-62850920D02*
X86300000Y-62600000D01*
X95785830Y-61710000D02*
X95867600Y-61710000D01*
X94113000Y-63382830D02*
X95785830Y-61710000D01*
X94113000Y-63750920D02*
X94113000Y-63382830D01*
X95867600Y-61710000D02*
X96320000Y-61710000D01*
X96320000Y-61710000D02*
X97180000Y-61710000D01*
X97180000Y-61710000D02*
X97580000Y-61310000D01*
X97580000Y-61310000D02*
X98350000Y-61310000D01*
X83217928Y-63558560D02*
X83739819Y-64080451D01*
X86526906Y-64184614D02*
X86560600Y-64150920D01*
X85156572Y-64080451D02*
X85260735Y-64184614D01*
X83217928Y-63308560D02*
X83217928Y-63558560D01*
X83739819Y-64080451D02*
X85156572Y-64080451D01*
X85260735Y-64184614D02*
X86526906Y-64184614D01*
X86560600Y-64150920D02*
X87113000Y-64150920D01*
X83230000Y-61930000D02*
X83230000Y-63296488D01*
X83230000Y-63296488D02*
X83217928Y-63308560D01*
X81817928Y-63558560D02*
X82695430Y-64436062D01*
X84737719Y-64550920D02*
X86560600Y-64550920D01*
X84622861Y-64436062D02*
X84737719Y-64550920D01*
X81817928Y-63308560D02*
X81817928Y-63558560D01*
X82695430Y-64436062D02*
X84622861Y-64436062D01*
X86560600Y-64550920D02*
X87113000Y-64550920D01*
X81830000Y-61930000D02*
X81830000Y-63296488D01*
X81830000Y-63296488D02*
X81817928Y-63308560D01*
X92013000Y-62298520D02*
X92013000Y-62850920D01*
X93158481Y-62171519D02*
X92089479Y-62171519D01*
X92013000Y-62247998D02*
X92013000Y-62298520D01*
X92089479Y-62171519D02*
X92013000Y-62247998D01*
X93158481Y-62171519D02*
X93638481Y-62171519D01*
X93638481Y-62171519D02*
X93920000Y-61890000D01*
X94870000Y-60410000D02*
X94870000Y-60460000D01*
X94870000Y-60460000D02*
X93158481Y-62171519D01*
D35*
X86803390Y-69910000D02*
X87060000Y-69653390D01*
X86150000Y-69910000D02*
X86803390Y-69910000D01*
X86150000Y-69910000D02*
X86150000Y-69860000D01*
X86150000Y-69860000D02*
X87003479Y-69006521D01*
D33*
X93300599Y-58876479D02*
X93619964Y-58557114D01*
X93619964Y-58557114D02*
X97010972Y-58557114D01*
X97010972Y-58557114D02*
X97137973Y-58430113D01*
X93300599Y-59991501D02*
X93300599Y-58876479D01*
X91213000Y-62079100D02*
X93300599Y-59991501D01*
X97137973Y-58430113D02*
X97137973Y-57827713D01*
X91213000Y-62850920D02*
X91213000Y-62079100D01*
X94874973Y-56649213D02*
X94874973Y-56599213D01*
X92820000Y-59987858D02*
X92820000Y-58704186D01*
X92820000Y-58704186D02*
X94874973Y-56649213D01*
X90813000Y-61994858D02*
X92820000Y-59987858D01*
X90813000Y-62850920D02*
X90813000Y-61994858D01*
X94874973Y-56599213D02*
X95866473Y-56599213D01*
X95866473Y-56599213D02*
X96037973Y-56427713D01*
D36*
X89613001Y-60655843D02*
X88600000Y-59642842D01*
X88600000Y-59642842D02*
X88600000Y-58850000D01*
X88600000Y-58850000D02*
X87900000Y-58850000D01*
X89613001Y-62850919D02*
X89613001Y-60655843D01*
X89613000Y-62850920D02*
X89613001Y-62850919D01*
X89000000Y-59477158D02*
X89000000Y-58850000D01*
X90012999Y-60490157D02*
X89000000Y-59477158D01*
X89000000Y-58850000D02*
X89700000Y-58850000D01*
X90012999Y-62850919D02*
X90012999Y-60490157D01*
X90013000Y-62850920D02*
X90012999Y-62850919D01*
D37*
G36*
X80848800Y-73861000D02*
X80902937Y-74133165D01*
X81057106Y-74363894D01*
X81179560Y-74486348D01*
X81179560Y-75028000D01*
X81228843Y-75275765D01*
X81369191Y-75485809D01*
X81579235Y-75626157D01*
X81817513Y-75673553D01*
X81800081Y-75690954D01*
X81642180Y-76071223D01*
X81641821Y-76482971D01*
X81799058Y-76863515D01*
X81828492Y-76893000D01*
X81700690Y-76893000D01*
X81467301Y-76989673D01*
X81288673Y-77168302D01*
X81192000Y-77401691D01*
X81192000Y-77692250D01*
X81350750Y-77851000D01*
X82550000Y-77851000D01*
X82550000Y-77831000D01*
X82804000Y-77831000D01*
X82804000Y-77851000D01*
X82824000Y-77851000D01*
X82824000Y-78105000D01*
X82804000Y-78105000D01*
X82804000Y-78125000D01*
X82550000Y-78125000D01*
X82550000Y-78105000D01*
X81350750Y-78105000D01*
X81260790Y-78194960D01*
X80377281Y-78194960D01*
X80421558Y-78178357D01*
X80796379Y-77828156D01*
X81001552Y-77391266D01*
X80877934Y-77188080D01*
X79735680Y-77188080D01*
X79735680Y-77208080D01*
X79481680Y-77208080D01*
X79481680Y-77188080D01*
X79461680Y-77188080D01*
X79461680Y-76934080D01*
X79481680Y-76934080D01*
X79481680Y-76914080D01*
X79735680Y-76914080D01*
X79735680Y-76934080D01*
X80877934Y-76934080D01*
X81001552Y-76730894D01*
X80796379Y-76294004D01*
X80561492Y-76074545D01*
X80686638Y-75990925D01*
X80971695Y-75564309D01*
X81071793Y-75061080D01*
X80971695Y-74557851D01*
X80686638Y-74131235D01*
X80581644Y-74061080D01*
X80686638Y-73990925D01*
X80848800Y-73748234D01*
X80848800Y-73861000D01*
X80848800Y-73861000D01*
G37*
X80848800Y-73861000D02*
X80902937Y-74133165D01*
X81057106Y-74363894D01*
X81179560Y-74486348D01*
X81179560Y-75028000D01*
X81228843Y-75275765D01*
X81369191Y-75485809D01*
X81579235Y-75626157D01*
X81817513Y-75673553D01*
X81800081Y-75690954D01*
X81642180Y-76071223D01*
X81641821Y-76482971D01*
X81799058Y-76863515D01*
X81828492Y-76893000D01*
X81700690Y-76893000D01*
X81467301Y-76989673D01*
X81288673Y-77168302D01*
X81192000Y-77401691D01*
X81192000Y-77692250D01*
X81350750Y-77851000D01*
X82550000Y-77851000D01*
X82550000Y-77831000D01*
X82804000Y-77831000D01*
X82804000Y-77851000D01*
X82824000Y-77851000D01*
X82824000Y-78105000D01*
X82804000Y-78105000D01*
X82804000Y-78125000D01*
X82550000Y-78125000D01*
X82550000Y-78105000D01*
X81350750Y-78105000D01*
X81260790Y-78194960D01*
X80377281Y-78194960D01*
X80421558Y-78178357D01*
X80796379Y-77828156D01*
X81001552Y-77391266D01*
X80877934Y-77188080D01*
X79735680Y-77188080D01*
X79735680Y-77208080D01*
X79481680Y-77208080D01*
X79481680Y-77188080D01*
X79461680Y-77188080D01*
X79461680Y-76934080D01*
X79481680Y-76934080D01*
X79481680Y-76914080D01*
X79735680Y-76914080D01*
X79735680Y-76934080D01*
X80877934Y-76934080D01*
X81001552Y-76730894D01*
X80796379Y-76294004D01*
X80561492Y-76074545D01*
X80686638Y-75990925D01*
X80971695Y-75564309D01*
X81071793Y-75061080D01*
X80971695Y-74557851D01*
X80686638Y-74131235D01*
X80581644Y-74061080D01*
X80686638Y-73990925D01*
X80848800Y-73748234D01*
X80848800Y-73861000D01*
G36*
X85135000Y-71053000D02*
X85157000Y-71053000D01*
X85157000Y-71307000D01*
X85135000Y-71307000D01*
X85135000Y-71956250D01*
X85293750Y-72115000D01*
X85386310Y-72115000D01*
X85619699Y-72018327D01*
X85716652Y-71921374D01*
X85773690Y-71945000D01*
X85866250Y-71945000D01*
X86022998Y-71788252D01*
X86022998Y-71945000D01*
X86089381Y-71945000D01*
X86025680Y-72098408D01*
X86025328Y-72502598D01*
X86179679Y-72876156D01*
X86465235Y-73162211D01*
X86838522Y-73317214D01*
X87242712Y-73317566D01*
X87356786Y-73270431D01*
X87547253Y-73461231D01*
X87788800Y-73561531D01*
X87788800Y-74161048D01*
X87742191Y-74192191D01*
X87601843Y-74402235D01*
X87552560Y-74650000D01*
X87552560Y-75050000D01*
X87601843Y-75297765D01*
X87603336Y-75300000D01*
X87601843Y-75302235D01*
X87552560Y-75550000D01*
X87552560Y-75950000D01*
X87591058Y-76143546D01*
X87551843Y-76202235D01*
X87502560Y-76450000D01*
X87502560Y-77050000D01*
X87551843Y-77297765D01*
X87561299Y-77311916D01*
X87515000Y-77423691D01*
X87515000Y-77564250D01*
X87673750Y-77723000D01*
X88373000Y-77723000D01*
X88373000Y-77703000D01*
X88627000Y-77703000D01*
X88627000Y-77723000D01*
X89623000Y-77723000D01*
X89623000Y-77703000D01*
X89877000Y-77703000D01*
X89877000Y-77723000D01*
X90163750Y-77723000D01*
X90173750Y-77733000D01*
X90873000Y-77733000D01*
X90873000Y-77713000D01*
X91127000Y-77713000D01*
X91127000Y-77733000D01*
X91393750Y-77733000D01*
X91423750Y-77763000D01*
X92123000Y-77763000D01*
X92123000Y-77743000D01*
X92377000Y-77743000D01*
X92377000Y-77763000D01*
X93076250Y-77763000D01*
X93235000Y-77604250D01*
X93235000Y-77463691D01*
X93188701Y-77351916D01*
X93198157Y-77337765D01*
X93247440Y-77090000D01*
X93247440Y-76490000D01*
X93239724Y-76451208D01*
X93283814Y-76451208D01*
X93438165Y-76824766D01*
X93723721Y-77110821D01*
X94097008Y-77265824D01*
X94501198Y-77266176D01*
X94874756Y-77111825D01*
X95160811Y-76826269D01*
X95315814Y-76452982D01*
X95316166Y-76048792D01*
X95161815Y-75675234D01*
X94876259Y-75389179D01*
X94502972Y-75234176D01*
X94098782Y-75233824D01*
X93725224Y-75388175D01*
X93439169Y-75673731D01*
X93284166Y-76047018D01*
X93283814Y-76451208D01*
X93239724Y-76451208D01*
X93198157Y-76242235D01*
X93114280Y-76116706D01*
X93147440Y-75950000D01*
X93147440Y-75550000D01*
X93098157Y-75302235D01*
X93096664Y-75300000D01*
X93098157Y-75297765D01*
X93147440Y-75050000D01*
X93147440Y-74650000D01*
X93098157Y-74402235D01*
X92957809Y-74192191D01*
X92747765Y-74051843D01*
X92740047Y-74050308D01*
X92702895Y-73994706D01*
X92641799Y-73933610D01*
X92641799Y-72527440D01*
X92810000Y-72527440D01*
X93057765Y-72478157D01*
X93071916Y-72468701D01*
X93183691Y-72515000D01*
X93324250Y-72515000D01*
X93483000Y-72356250D01*
X93483000Y-71793823D01*
X93714031Y-71793823D01*
X93713824Y-72031208D01*
X93737000Y-72087298D01*
X93737000Y-72356250D01*
X93895750Y-72515000D01*
X93978217Y-72515000D01*
X94153731Y-72690821D01*
X94527018Y-72845824D01*
X94931208Y-72846176D01*
X95304766Y-72691825D01*
X95590821Y-72406269D01*
X95745824Y-72032982D01*
X95746032Y-71793823D01*
X96015587Y-71793823D01*
X96015456Y-71944241D01*
X96129427Y-72220072D01*
X95992191Y-72311771D01*
X95851843Y-72521815D01*
X95802560Y-72769580D01*
X95802560Y-73369580D01*
X95851843Y-73617345D01*
X95861299Y-73631496D01*
X95815000Y-73743271D01*
X95815000Y-73883830D01*
X95973750Y-74042580D01*
X96575000Y-74042580D01*
X96575000Y-74022580D01*
X96825000Y-74022580D01*
X96825000Y-74042580D01*
X96847000Y-74042580D01*
X96847000Y-74192560D01*
X96390000Y-74192560D01*
X96142235Y-74241843D01*
X96060316Y-74296580D01*
X95973750Y-74296580D01*
X95815000Y-74455330D01*
X95815000Y-74557578D01*
X95791843Y-74592235D01*
X95742560Y-74840000D01*
X95742560Y-75240000D01*
X95791843Y-75487765D01*
X95793336Y-75490000D01*
X95791843Y-75492235D01*
X95742560Y-75740000D01*
X95742560Y-76140000D01*
X95754675Y-76200908D01*
X95644176Y-76467018D01*
X95643824Y-76871208D01*
X95798175Y-77244766D01*
X96083731Y-77530821D01*
X96457018Y-77685824D01*
X96861208Y-77686176D01*
X97234766Y-77531825D01*
X97285440Y-77481239D01*
X97285440Y-77692250D01*
X97444190Y-77851000D01*
X98643440Y-77851000D01*
X98643440Y-77831000D01*
X98897440Y-77831000D01*
X98897440Y-77851000D01*
X100096690Y-77851000D01*
X100255440Y-77692250D01*
X100255440Y-77578938D01*
X100530722Y-77990925D01*
X100836081Y-78194960D01*
X100186650Y-78194960D01*
X100096690Y-78105000D01*
X98897440Y-78105000D01*
X98897440Y-78125000D01*
X98643440Y-78125000D01*
X98643440Y-78105000D01*
X97444190Y-78105000D01*
X97354230Y-78194960D01*
X93235000Y-78194960D01*
X93235000Y-78175750D01*
X93076250Y-78017000D01*
X92377000Y-78017000D01*
X92377000Y-78037000D01*
X92123000Y-78037000D01*
X92123000Y-78017000D01*
X91856250Y-78017000D01*
X91826250Y-77987000D01*
X91127000Y-77987000D01*
X91127000Y-78007000D01*
X90873000Y-78007000D01*
X90873000Y-77987000D01*
X90586250Y-77987000D01*
X90576250Y-77977000D01*
X89877000Y-77977000D01*
X89877000Y-77997000D01*
X89623000Y-77997000D01*
X89623000Y-77977000D01*
X88627000Y-77977000D01*
X88627000Y-77997000D01*
X88373000Y-77997000D01*
X88373000Y-77977000D01*
X87673750Y-77977000D01*
X87515000Y-78135750D01*
X87515000Y-78194960D01*
X85293066Y-78194960D01*
X85448327Y-78039698D01*
X85545000Y-77806309D01*
X85545000Y-77665750D01*
X85386250Y-77507000D01*
X84785000Y-77507000D01*
X84785000Y-77527000D01*
X84535000Y-77527000D01*
X84535000Y-77507000D01*
X84513000Y-77507000D01*
X84513000Y-77253000D01*
X84535000Y-77253000D01*
X84535000Y-77233000D01*
X84785000Y-77233000D01*
X84785000Y-77253000D01*
X85000998Y-77253000D01*
X85289885Y-77372957D01*
X85694075Y-77373309D01*
X86067633Y-77218958D01*
X86353688Y-76933402D01*
X86508691Y-76560115D01*
X86509043Y-76155925D01*
X86354692Y-75782367D01*
X86069136Y-75496312D01*
X85695849Y-75341309D01*
X85627440Y-75341249D01*
X85627440Y-75080000D01*
X85578157Y-74832235D01*
X85576664Y-74830000D01*
X85578157Y-74827765D01*
X85627440Y-74580000D01*
X85627440Y-74180000D01*
X85578157Y-73932235D01*
X85437809Y-73722191D01*
X85436835Y-73721540D01*
X85407463Y-73573875D01*
X85236776Y-73318424D01*
X84916401Y-72998049D01*
X84916401Y-71033000D01*
X85135000Y-71033000D01*
X85135000Y-71053000D01*
X85135000Y-71053000D01*
G37*
X85135000Y-71053000D02*
X85157000Y-71053000D01*
X85157000Y-71307000D01*
X85135000Y-71307000D01*
X85135000Y-71956250D01*
X85293750Y-72115000D01*
X85386310Y-72115000D01*
X85619699Y-72018327D01*
X85716652Y-71921374D01*
X85773690Y-71945000D01*
X85866250Y-71945000D01*
X86022998Y-71788252D01*
X86022998Y-71945000D01*
X86089381Y-71945000D01*
X86025680Y-72098408D01*
X86025328Y-72502598D01*
X86179679Y-72876156D01*
X86465235Y-73162211D01*
X86838522Y-73317214D01*
X87242712Y-73317566D01*
X87356786Y-73270431D01*
X87547253Y-73461231D01*
X87788800Y-73561531D01*
X87788800Y-74161048D01*
X87742191Y-74192191D01*
X87601843Y-74402235D01*
X87552560Y-74650000D01*
X87552560Y-75050000D01*
X87601843Y-75297765D01*
X87603336Y-75300000D01*
X87601843Y-75302235D01*
X87552560Y-75550000D01*
X87552560Y-75950000D01*
X87591058Y-76143546D01*
X87551843Y-76202235D01*
X87502560Y-76450000D01*
X87502560Y-77050000D01*
X87551843Y-77297765D01*
X87561299Y-77311916D01*
X87515000Y-77423691D01*
X87515000Y-77564250D01*
X87673750Y-77723000D01*
X88373000Y-77723000D01*
X88373000Y-77703000D01*
X88627000Y-77703000D01*
X88627000Y-77723000D01*
X89623000Y-77723000D01*
X89623000Y-77703000D01*
X89877000Y-77703000D01*
X89877000Y-77723000D01*
X90163750Y-77723000D01*
X90173750Y-77733000D01*
X90873000Y-77733000D01*
X90873000Y-77713000D01*
X91127000Y-77713000D01*
X91127000Y-77733000D01*
X91393750Y-77733000D01*
X91423750Y-77763000D01*
X92123000Y-77763000D01*
X92123000Y-77743000D01*
X92377000Y-77743000D01*
X92377000Y-77763000D01*
X93076250Y-77763000D01*
X93235000Y-77604250D01*
X93235000Y-77463691D01*
X93188701Y-77351916D01*
X93198157Y-77337765D01*
X93247440Y-77090000D01*
X93247440Y-76490000D01*
X93239724Y-76451208D01*
X93283814Y-76451208D01*
X93438165Y-76824766D01*
X93723721Y-77110821D01*
X94097008Y-77265824D01*
X94501198Y-77266176D01*
X94874756Y-77111825D01*
X95160811Y-76826269D01*
X95315814Y-76452982D01*
X95316166Y-76048792D01*
X95161815Y-75675234D01*
X94876259Y-75389179D01*
X94502972Y-75234176D01*
X94098782Y-75233824D01*
X93725224Y-75388175D01*
X93439169Y-75673731D01*
X93284166Y-76047018D01*
X93283814Y-76451208D01*
X93239724Y-76451208D01*
X93198157Y-76242235D01*
X93114280Y-76116706D01*
X93147440Y-75950000D01*
X93147440Y-75550000D01*
X93098157Y-75302235D01*
X93096664Y-75300000D01*
X93098157Y-75297765D01*
X93147440Y-75050000D01*
X93147440Y-74650000D01*
X93098157Y-74402235D01*
X92957809Y-74192191D01*
X92747765Y-74051843D01*
X92740047Y-74050308D01*
X92702895Y-73994706D01*
X92641799Y-73933610D01*
X92641799Y-72527440D01*
X92810000Y-72527440D01*
X93057765Y-72478157D01*
X93071916Y-72468701D01*
X93183691Y-72515000D01*
X93324250Y-72515000D01*
X93483000Y-72356250D01*
X93483000Y-71793823D01*
X93714031Y-71793823D01*
X93713824Y-72031208D01*
X93737000Y-72087298D01*
X93737000Y-72356250D01*
X93895750Y-72515000D01*
X93978217Y-72515000D01*
X94153731Y-72690821D01*
X94527018Y-72845824D01*
X94931208Y-72846176D01*
X95304766Y-72691825D01*
X95590821Y-72406269D01*
X95745824Y-72032982D01*
X95746032Y-71793823D01*
X96015587Y-71793823D01*
X96015456Y-71944241D01*
X96129427Y-72220072D01*
X95992191Y-72311771D01*
X95851843Y-72521815D01*
X95802560Y-72769580D01*
X95802560Y-73369580D01*
X95851843Y-73617345D01*
X95861299Y-73631496D01*
X95815000Y-73743271D01*
X95815000Y-73883830D01*
X95973750Y-74042580D01*
X96575000Y-74042580D01*
X96575000Y-74022580D01*
X96825000Y-74022580D01*
X96825000Y-74042580D01*
X96847000Y-74042580D01*
X96847000Y-74192560D01*
X96390000Y-74192560D01*
X96142235Y-74241843D01*
X96060316Y-74296580D01*
X95973750Y-74296580D01*
X95815000Y-74455330D01*
X95815000Y-74557578D01*
X95791843Y-74592235D01*
X95742560Y-74840000D01*
X95742560Y-75240000D01*
X95791843Y-75487765D01*
X95793336Y-75490000D01*
X95791843Y-75492235D01*
X95742560Y-75740000D01*
X95742560Y-76140000D01*
X95754675Y-76200908D01*
X95644176Y-76467018D01*
X95643824Y-76871208D01*
X95798175Y-77244766D01*
X96083731Y-77530821D01*
X96457018Y-77685824D01*
X96861208Y-77686176D01*
X97234766Y-77531825D01*
X97285440Y-77481239D01*
X97285440Y-77692250D01*
X97444190Y-77851000D01*
X98643440Y-77851000D01*
X98643440Y-77831000D01*
X98897440Y-77831000D01*
X98897440Y-77851000D01*
X100096690Y-77851000D01*
X100255440Y-77692250D01*
X100255440Y-77578938D01*
X100530722Y-77990925D01*
X100836081Y-78194960D01*
X100186650Y-78194960D01*
X100096690Y-78105000D01*
X98897440Y-78105000D01*
X98897440Y-78125000D01*
X98643440Y-78125000D01*
X98643440Y-78105000D01*
X97444190Y-78105000D01*
X97354230Y-78194960D01*
X93235000Y-78194960D01*
X93235000Y-78175750D01*
X93076250Y-78017000D01*
X92377000Y-78017000D01*
X92377000Y-78037000D01*
X92123000Y-78037000D01*
X92123000Y-78017000D01*
X91856250Y-78017000D01*
X91826250Y-77987000D01*
X91127000Y-77987000D01*
X91127000Y-78007000D01*
X90873000Y-78007000D01*
X90873000Y-77987000D01*
X90586250Y-77987000D01*
X90576250Y-77977000D01*
X89877000Y-77977000D01*
X89877000Y-77997000D01*
X89623000Y-77997000D01*
X89623000Y-77977000D01*
X88627000Y-77977000D01*
X88627000Y-77997000D01*
X88373000Y-77997000D01*
X88373000Y-77977000D01*
X87673750Y-77977000D01*
X87515000Y-78135750D01*
X87515000Y-78194960D01*
X85293066Y-78194960D01*
X85448327Y-78039698D01*
X85545000Y-77806309D01*
X85545000Y-77665750D01*
X85386250Y-77507000D01*
X84785000Y-77507000D01*
X84785000Y-77527000D01*
X84535000Y-77527000D01*
X84535000Y-77507000D01*
X84513000Y-77507000D01*
X84513000Y-77253000D01*
X84535000Y-77253000D01*
X84535000Y-77233000D01*
X84785000Y-77233000D01*
X84785000Y-77253000D01*
X85000998Y-77253000D01*
X85289885Y-77372957D01*
X85694075Y-77373309D01*
X86067633Y-77218958D01*
X86353688Y-76933402D01*
X86508691Y-76560115D01*
X86509043Y-76155925D01*
X86354692Y-75782367D01*
X86069136Y-75496312D01*
X85695849Y-75341309D01*
X85627440Y-75341249D01*
X85627440Y-75080000D01*
X85578157Y-74832235D01*
X85576664Y-74830000D01*
X85578157Y-74827765D01*
X85627440Y-74580000D01*
X85627440Y-74180000D01*
X85578157Y-73932235D01*
X85437809Y-73722191D01*
X85436835Y-73721540D01*
X85407463Y-73573875D01*
X85236776Y-73318424D01*
X84916401Y-72998049D01*
X84916401Y-71033000D01*
X85135000Y-71033000D01*
X85135000Y-71053000D01*
G36*
X83003337Y-69219226D02*
X83157688Y-69592784D01*
X83443244Y-69878839D01*
X83452877Y-69882839D01*
X83401538Y-69959674D01*
X83341601Y-70260999D01*
X83341601Y-73324201D01*
X83372703Y-73480560D01*
X82271200Y-73480560D01*
X82271200Y-70035629D01*
X82420821Y-69886269D01*
X82575824Y-69512982D01*
X82576176Y-69108792D01*
X82548081Y-69040798D01*
X83003492Y-69040798D01*
X83003337Y-69219226D01*
X83003337Y-69219226D01*
G37*
X83003337Y-69219226D02*
X83157688Y-69592784D01*
X83443244Y-69878839D01*
X83452877Y-69882839D01*
X83401538Y-69959674D01*
X83341601Y-70260999D01*
X83341601Y-73324201D01*
X83372703Y-73480560D01*
X82271200Y-73480560D01*
X82271200Y-70035629D01*
X82420821Y-69886269D01*
X82575824Y-69512982D01*
X82576176Y-69108792D01*
X82548081Y-69040798D01*
X83003492Y-69040798D01*
X83003337Y-69219226D01*
G36*
X96667000Y-69465000D02*
X96687000Y-69465000D01*
X96687000Y-69715000D01*
X96667000Y-69715000D01*
X96667000Y-69737000D01*
X96413000Y-69737000D01*
X96413000Y-69715000D01*
X96393000Y-69715000D01*
X96393000Y-69465000D01*
X96413000Y-69465000D01*
X96413000Y-69443000D01*
X96667000Y-69443000D01*
X96667000Y-69465000D01*
X96667000Y-69465000D01*
G37*
X96667000Y-69465000D02*
X96687000Y-69465000D01*
X96687000Y-69715000D01*
X96667000Y-69715000D01*
X96667000Y-69737000D01*
X96413000Y-69737000D01*
X96413000Y-69715000D01*
X96393000Y-69715000D01*
X96393000Y-69465000D01*
X96413000Y-69465000D01*
X96413000Y-69443000D01*
X96667000Y-69443000D01*
X96667000Y-69465000D01*
G36*
X88640000Y-64123920D02*
X89786000Y-64123920D01*
X89786000Y-64103920D01*
X90040000Y-64103920D01*
X90040000Y-64123920D01*
X91186000Y-64123920D01*
X91186000Y-64103920D01*
X91440000Y-64103920D01*
X91440000Y-64123920D01*
X92586000Y-64123920D01*
X92586000Y-64103920D01*
X92840000Y-64103920D01*
X92840000Y-64123920D01*
X92860000Y-64123920D01*
X92860000Y-64377920D01*
X92840000Y-64377920D01*
X92840000Y-65523920D01*
X92860000Y-65523920D01*
X92860000Y-65777920D01*
X92840000Y-65777920D01*
X92840000Y-66923920D01*
X92860000Y-66923920D01*
X92860000Y-67177920D01*
X92840000Y-67177920D01*
X92840000Y-68323920D01*
X92860000Y-68323920D01*
X92860000Y-68577920D01*
X92840000Y-68577920D01*
X92840000Y-68597920D01*
X92586000Y-68597920D01*
X92586000Y-68577920D01*
X91440000Y-68577920D01*
X91440000Y-68597920D01*
X91186000Y-68597920D01*
X91186000Y-68577920D01*
X90040000Y-68577920D01*
X90040000Y-68597920D01*
X89786000Y-68597920D01*
X89786000Y-68577920D01*
X88640000Y-68577920D01*
X88640000Y-68597920D01*
X88386000Y-68597920D01*
X88386000Y-68577920D01*
X88366000Y-68577920D01*
X88366000Y-68323920D01*
X88386000Y-68323920D01*
X88386000Y-67336670D01*
X88578000Y-67336670D01*
X88578000Y-68165170D01*
X88640000Y-68227170D01*
X88640000Y-68323920D01*
X88736750Y-68323920D01*
X88798750Y-68385920D01*
X89627250Y-68385920D01*
X89689250Y-68323920D01*
X89786000Y-68323920D01*
X89786000Y-68227170D01*
X89848000Y-68165170D01*
X89848000Y-67336670D01*
X89978000Y-67336670D01*
X89978000Y-68165170D01*
X90040000Y-68227170D01*
X90040000Y-68323920D01*
X90136750Y-68323920D01*
X90198750Y-68385920D01*
X91027250Y-68385920D01*
X91089250Y-68323920D01*
X91186000Y-68323920D01*
X91186000Y-68227170D01*
X91248000Y-68165170D01*
X91248000Y-67336670D01*
X91378000Y-67336670D01*
X91378000Y-68165170D01*
X91440000Y-68227170D01*
X91440000Y-68323920D01*
X91536750Y-68323920D01*
X91598750Y-68385920D01*
X92427250Y-68385920D01*
X92489250Y-68323920D01*
X92586000Y-68323920D01*
X92586000Y-68227170D01*
X92648000Y-68165170D01*
X92648000Y-67336670D01*
X92586000Y-67274670D01*
X92586000Y-67177920D01*
X92489250Y-67177920D01*
X92427250Y-67115920D01*
X91598750Y-67115920D01*
X91536750Y-67177920D01*
X91440000Y-67177920D01*
X91440000Y-67274670D01*
X91378000Y-67336670D01*
X91248000Y-67336670D01*
X91186000Y-67274670D01*
X91186000Y-67177920D01*
X91089250Y-67177920D01*
X91027250Y-67115920D01*
X90198750Y-67115920D01*
X90136750Y-67177920D01*
X90040000Y-67177920D01*
X90040000Y-67274670D01*
X89978000Y-67336670D01*
X89848000Y-67336670D01*
X89786000Y-67274670D01*
X89786000Y-67177920D01*
X89689250Y-67177920D01*
X89627250Y-67115920D01*
X88798750Y-67115920D01*
X88736750Y-67177920D01*
X88640000Y-67177920D01*
X88640000Y-67274670D01*
X88578000Y-67336670D01*
X88386000Y-67336670D01*
X88386000Y-67177920D01*
X88366000Y-67177920D01*
X88366000Y-66923920D01*
X88386000Y-66923920D01*
X88386000Y-65936670D01*
X88578000Y-65936670D01*
X88578000Y-66765170D01*
X88640000Y-66827170D01*
X88640000Y-66923920D01*
X88736750Y-66923920D01*
X88798750Y-66985920D01*
X89627250Y-66985920D01*
X89689250Y-66923920D01*
X89786000Y-66923920D01*
X89786000Y-66827170D01*
X89848000Y-66765170D01*
X89848000Y-65936670D01*
X89978000Y-65936670D01*
X89978000Y-66765170D01*
X90040000Y-66827170D01*
X90040000Y-66923920D01*
X90136750Y-66923920D01*
X90198750Y-66985920D01*
X91027250Y-66985920D01*
X91089250Y-66923920D01*
X91186000Y-66923920D01*
X91186000Y-66827170D01*
X91248000Y-66765170D01*
X91248000Y-65936670D01*
X91378000Y-65936670D01*
X91378000Y-66765170D01*
X91440000Y-66827170D01*
X91440000Y-66923920D01*
X91536750Y-66923920D01*
X91598750Y-66985920D01*
X92427250Y-66985920D01*
X92489250Y-66923920D01*
X92586000Y-66923920D01*
X92586000Y-66827170D01*
X92648000Y-66765170D01*
X92648000Y-65936670D01*
X92586000Y-65874670D01*
X92586000Y-65777920D01*
X92489250Y-65777920D01*
X92427250Y-65715920D01*
X91598750Y-65715920D01*
X91536750Y-65777920D01*
X91440000Y-65777920D01*
X91440000Y-65874670D01*
X91378000Y-65936670D01*
X91248000Y-65936670D01*
X91186000Y-65874670D01*
X91186000Y-65777920D01*
X91089250Y-65777920D01*
X91027250Y-65715920D01*
X90198750Y-65715920D01*
X90136750Y-65777920D01*
X90040000Y-65777920D01*
X90040000Y-65874670D01*
X89978000Y-65936670D01*
X89848000Y-65936670D01*
X89786000Y-65874670D01*
X89786000Y-65777920D01*
X89689250Y-65777920D01*
X89627250Y-65715920D01*
X88798750Y-65715920D01*
X88736750Y-65777920D01*
X88640000Y-65777920D01*
X88640000Y-65874670D01*
X88578000Y-65936670D01*
X88386000Y-65936670D01*
X88386000Y-65777920D01*
X88366000Y-65777920D01*
X88366000Y-65523920D01*
X88386000Y-65523920D01*
X88386000Y-64536670D01*
X88578000Y-64536670D01*
X88578000Y-65365170D01*
X88640000Y-65427170D01*
X88640000Y-65523920D01*
X88736750Y-65523920D01*
X88798750Y-65585920D01*
X89627250Y-65585920D01*
X89689250Y-65523920D01*
X89786000Y-65523920D01*
X89786000Y-65427170D01*
X89848000Y-65365170D01*
X89848000Y-64536670D01*
X89978000Y-64536670D01*
X89978000Y-65365170D01*
X90040000Y-65427170D01*
X90040000Y-65523920D01*
X90136750Y-65523920D01*
X90198750Y-65585920D01*
X91027250Y-65585920D01*
X91089250Y-65523920D01*
X91186000Y-65523920D01*
X91186000Y-65427170D01*
X91248000Y-65365170D01*
X91248000Y-64536670D01*
X91378000Y-64536670D01*
X91378000Y-65365170D01*
X91440000Y-65427170D01*
X91440000Y-65523920D01*
X91536750Y-65523920D01*
X91598750Y-65585920D01*
X92427250Y-65585920D01*
X92489250Y-65523920D01*
X92586000Y-65523920D01*
X92586000Y-65427170D01*
X92648000Y-65365170D01*
X92648000Y-64536670D01*
X92586000Y-64474670D01*
X92586000Y-64377920D01*
X92489250Y-64377920D01*
X92427250Y-64315920D01*
X91598750Y-64315920D01*
X91536750Y-64377920D01*
X91440000Y-64377920D01*
X91440000Y-64474670D01*
X91378000Y-64536670D01*
X91248000Y-64536670D01*
X91186000Y-64474670D01*
X91186000Y-64377920D01*
X91089250Y-64377920D01*
X91027250Y-64315920D01*
X90198750Y-64315920D01*
X90136750Y-64377920D01*
X90040000Y-64377920D01*
X90040000Y-64474670D01*
X89978000Y-64536670D01*
X89848000Y-64536670D01*
X89786000Y-64474670D01*
X89786000Y-64377920D01*
X89689250Y-64377920D01*
X89627250Y-64315920D01*
X88798750Y-64315920D01*
X88736750Y-64377920D01*
X88640000Y-64377920D01*
X88640000Y-64474670D01*
X88578000Y-64536670D01*
X88386000Y-64536670D01*
X88386000Y-64377920D01*
X88366000Y-64377920D01*
X88366000Y-64123920D01*
X88386000Y-64123920D01*
X88386000Y-64103920D01*
X88640000Y-64103920D01*
X88640000Y-64123920D01*
X88640000Y-64123920D01*
G37*
X88640000Y-64123920D02*
X89786000Y-64123920D01*
X89786000Y-64103920D01*
X90040000Y-64103920D01*
X90040000Y-64123920D01*
X91186000Y-64123920D01*
X91186000Y-64103920D01*
X91440000Y-64103920D01*
X91440000Y-64123920D01*
X92586000Y-64123920D01*
X92586000Y-64103920D01*
X92840000Y-64103920D01*
X92840000Y-64123920D01*
X92860000Y-64123920D01*
X92860000Y-64377920D01*
X92840000Y-64377920D01*
X92840000Y-65523920D01*
X92860000Y-65523920D01*
X92860000Y-65777920D01*
X92840000Y-65777920D01*
X92840000Y-66923920D01*
X92860000Y-66923920D01*
X92860000Y-67177920D01*
X92840000Y-67177920D01*
X92840000Y-68323920D01*
X92860000Y-68323920D01*
X92860000Y-68577920D01*
X92840000Y-68577920D01*
X92840000Y-68597920D01*
X92586000Y-68597920D01*
X92586000Y-68577920D01*
X91440000Y-68577920D01*
X91440000Y-68597920D01*
X91186000Y-68597920D01*
X91186000Y-68577920D01*
X90040000Y-68577920D01*
X90040000Y-68597920D01*
X89786000Y-68597920D01*
X89786000Y-68577920D01*
X88640000Y-68577920D01*
X88640000Y-68597920D01*
X88386000Y-68597920D01*
X88386000Y-68577920D01*
X88366000Y-68577920D01*
X88366000Y-68323920D01*
X88386000Y-68323920D01*
X88386000Y-67336670D01*
X88578000Y-67336670D01*
X88578000Y-68165170D01*
X88640000Y-68227170D01*
X88640000Y-68323920D01*
X88736750Y-68323920D01*
X88798750Y-68385920D01*
X89627250Y-68385920D01*
X89689250Y-68323920D01*
X89786000Y-68323920D01*
X89786000Y-68227170D01*
X89848000Y-68165170D01*
X89848000Y-67336670D01*
X89978000Y-67336670D01*
X89978000Y-68165170D01*
X90040000Y-68227170D01*
X90040000Y-68323920D01*
X90136750Y-68323920D01*
X90198750Y-68385920D01*
X91027250Y-68385920D01*
X91089250Y-68323920D01*
X91186000Y-68323920D01*
X91186000Y-68227170D01*
X91248000Y-68165170D01*
X91248000Y-67336670D01*
X91378000Y-67336670D01*
X91378000Y-68165170D01*
X91440000Y-68227170D01*
X91440000Y-68323920D01*
X91536750Y-68323920D01*
X91598750Y-68385920D01*
X92427250Y-68385920D01*
X92489250Y-68323920D01*
X92586000Y-68323920D01*
X92586000Y-68227170D01*
X92648000Y-68165170D01*
X92648000Y-67336670D01*
X92586000Y-67274670D01*
X92586000Y-67177920D01*
X92489250Y-67177920D01*
X92427250Y-67115920D01*
X91598750Y-67115920D01*
X91536750Y-67177920D01*
X91440000Y-67177920D01*
X91440000Y-67274670D01*
X91378000Y-67336670D01*
X91248000Y-67336670D01*
X91186000Y-67274670D01*
X91186000Y-67177920D01*
X91089250Y-67177920D01*
X91027250Y-67115920D01*
X90198750Y-67115920D01*
X90136750Y-67177920D01*
X90040000Y-67177920D01*
X90040000Y-67274670D01*
X89978000Y-67336670D01*
X89848000Y-67336670D01*
X89786000Y-67274670D01*
X89786000Y-67177920D01*
X89689250Y-67177920D01*
X89627250Y-67115920D01*
X88798750Y-67115920D01*
X88736750Y-67177920D01*
X88640000Y-67177920D01*
X88640000Y-67274670D01*
X88578000Y-67336670D01*
X88386000Y-67336670D01*
X88386000Y-67177920D01*
X88366000Y-67177920D01*
X88366000Y-66923920D01*
X88386000Y-66923920D01*
X88386000Y-65936670D01*
X88578000Y-65936670D01*
X88578000Y-66765170D01*
X88640000Y-66827170D01*
X88640000Y-66923920D01*
X88736750Y-66923920D01*
X88798750Y-66985920D01*
X89627250Y-66985920D01*
X89689250Y-66923920D01*
X89786000Y-66923920D01*
X89786000Y-66827170D01*
X89848000Y-66765170D01*
X89848000Y-65936670D01*
X89978000Y-65936670D01*
X89978000Y-66765170D01*
X90040000Y-66827170D01*
X90040000Y-66923920D01*
X90136750Y-66923920D01*
X90198750Y-66985920D01*
X91027250Y-66985920D01*
X91089250Y-66923920D01*
X91186000Y-66923920D01*
X91186000Y-66827170D01*
X91248000Y-66765170D01*
X91248000Y-65936670D01*
X91378000Y-65936670D01*
X91378000Y-66765170D01*
X91440000Y-66827170D01*
X91440000Y-66923920D01*
X91536750Y-66923920D01*
X91598750Y-66985920D01*
X92427250Y-66985920D01*
X92489250Y-66923920D01*
X92586000Y-66923920D01*
X92586000Y-66827170D01*
X92648000Y-66765170D01*
X92648000Y-65936670D01*
X92586000Y-65874670D01*
X92586000Y-65777920D01*
X92489250Y-65777920D01*
X92427250Y-65715920D01*
X91598750Y-65715920D01*
X91536750Y-65777920D01*
X91440000Y-65777920D01*
X91440000Y-65874670D01*
X91378000Y-65936670D01*
X91248000Y-65936670D01*
X91186000Y-65874670D01*
X91186000Y-65777920D01*
X91089250Y-65777920D01*
X91027250Y-65715920D01*
X90198750Y-65715920D01*
X90136750Y-65777920D01*
X90040000Y-65777920D01*
X90040000Y-65874670D01*
X89978000Y-65936670D01*
X89848000Y-65936670D01*
X89786000Y-65874670D01*
X89786000Y-65777920D01*
X89689250Y-65777920D01*
X89627250Y-65715920D01*
X88798750Y-65715920D01*
X88736750Y-65777920D01*
X88640000Y-65777920D01*
X88640000Y-65874670D01*
X88578000Y-65936670D01*
X88386000Y-65936670D01*
X88386000Y-65777920D01*
X88366000Y-65777920D01*
X88366000Y-65523920D01*
X88386000Y-65523920D01*
X88386000Y-64536670D01*
X88578000Y-64536670D01*
X88578000Y-65365170D01*
X88640000Y-65427170D01*
X88640000Y-65523920D01*
X88736750Y-65523920D01*
X88798750Y-65585920D01*
X89627250Y-65585920D01*
X89689250Y-65523920D01*
X89786000Y-65523920D01*
X89786000Y-65427170D01*
X89848000Y-65365170D01*
X89848000Y-64536670D01*
X89978000Y-64536670D01*
X89978000Y-65365170D01*
X90040000Y-65427170D01*
X90040000Y-65523920D01*
X90136750Y-65523920D01*
X90198750Y-65585920D01*
X91027250Y-65585920D01*
X91089250Y-65523920D01*
X91186000Y-65523920D01*
X91186000Y-65427170D01*
X91248000Y-65365170D01*
X91248000Y-64536670D01*
X91378000Y-64536670D01*
X91378000Y-65365170D01*
X91440000Y-65427170D01*
X91440000Y-65523920D01*
X91536750Y-65523920D01*
X91598750Y-65585920D01*
X92427250Y-65585920D01*
X92489250Y-65523920D01*
X92586000Y-65523920D01*
X92586000Y-65427170D01*
X92648000Y-65365170D01*
X92648000Y-64536670D01*
X92586000Y-64474670D01*
X92586000Y-64377920D01*
X92489250Y-64377920D01*
X92427250Y-64315920D01*
X91598750Y-64315920D01*
X91536750Y-64377920D01*
X91440000Y-64377920D01*
X91440000Y-64474670D01*
X91378000Y-64536670D01*
X91248000Y-64536670D01*
X91186000Y-64474670D01*
X91186000Y-64377920D01*
X91089250Y-64377920D01*
X91027250Y-64315920D01*
X90198750Y-64315920D01*
X90136750Y-64377920D01*
X90040000Y-64377920D01*
X90040000Y-64474670D01*
X89978000Y-64536670D01*
X89848000Y-64536670D01*
X89786000Y-64474670D01*
X89786000Y-64377920D01*
X89689250Y-64377920D01*
X89627250Y-64315920D01*
X88798750Y-64315920D01*
X88736750Y-64377920D01*
X88640000Y-64377920D01*
X88640000Y-64474670D01*
X88578000Y-64536670D01*
X88386000Y-64536670D01*
X88386000Y-64377920D01*
X88366000Y-64377920D01*
X88366000Y-64123920D01*
X88386000Y-64123920D01*
X88386000Y-64103920D01*
X88640000Y-64103920D01*
X88640000Y-64123920D01*
G36*
X100530722Y-67990925D02*
X100635716Y-68061080D01*
X100530722Y-68131235D01*
X100384627Y-68349880D01*
X98751752Y-68349880D01*
X98463992Y-68062120D01*
X99683082Y-68062120D01*
X99955247Y-68007983D01*
X100185976Y-67853814D01*
X100267510Y-67772280D01*
X100384627Y-67772280D01*
X100530722Y-67990925D01*
X100530722Y-67990925D01*
G37*
X100530722Y-67990925D02*
X100635716Y-68061080D01*
X100530722Y-68131235D01*
X100384627Y-68349880D01*
X98751752Y-68349880D01*
X98463992Y-68062120D01*
X99683082Y-68062120D01*
X99955247Y-68007983D01*
X100185976Y-67853814D01*
X100267510Y-67772280D01*
X100384627Y-67772280D01*
X100530722Y-67990925D01*
G36*
X84837000Y-60095000D02*
X84857000Y-60095000D01*
X84857000Y-60345000D01*
X84837000Y-60345000D01*
X84837000Y-60523750D01*
X84807000Y-60553750D01*
X84807000Y-61155000D01*
X84827000Y-61155000D01*
X84827000Y-61405000D01*
X84807000Y-61405000D01*
X84807000Y-62006250D01*
X84815000Y-62014250D01*
X84815000Y-62273000D01*
X84837000Y-62273000D01*
X84837000Y-62527000D01*
X84815000Y-62527000D01*
X84815000Y-62547000D01*
X84565000Y-62547000D01*
X84565000Y-62527000D01*
X84543000Y-62527000D01*
X84543000Y-62273000D01*
X84565000Y-62273000D01*
X84565000Y-61623750D01*
X84553000Y-61611750D01*
X84553000Y-61405000D01*
X84533000Y-61405000D01*
X84533000Y-61155000D01*
X84553000Y-61155000D01*
X84553000Y-60976250D01*
X84583000Y-60946250D01*
X84583000Y-60345000D01*
X84563000Y-60345000D01*
X84563000Y-60254042D01*
X84590821Y-60226269D01*
X84654464Y-60073000D01*
X84837000Y-60073000D01*
X84837000Y-60095000D01*
X84837000Y-60095000D01*
G37*
X84837000Y-60095000D02*
X84857000Y-60095000D01*
X84857000Y-60345000D01*
X84837000Y-60345000D01*
X84837000Y-60523750D01*
X84807000Y-60553750D01*
X84807000Y-61155000D01*
X84827000Y-61155000D01*
X84827000Y-61405000D01*
X84807000Y-61405000D01*
X84807000Y-62006250D01*
X84815000Y-62014250D01*
X84815000Y-62273000D01*
X84837000Y-62273000D01*
X84837000Y-62527000D01*
X84815000Y-62527000D01*
X84815000Y-62547000D01*
X84565000Y-62547000D01*
X84565000Y-62527000D01*
X84543000Y-62527000D01*
X84543000Y-62273000D01*
X84565000Y-62273000D01*
X84565000Y-61623750D01*
X84553000Y-61611750D01*
X84553000Y-61405000D01*
X84533000Y-61405000D01*
X84533000Y-61155000D01*
X84553000Y-61155000D01*
X84553000Y-60976250D01*
X84583000Y-60946250D01*
X84583000Y-60345000D01*
X84563000Y-60345000D01*
X84563000Y-60254042D01*
X84590821Y-60226269D01*
X84654464Y-60073000D01*
X84837000Y-60073000D01*
X84837000Y-60095000D01*
G36*
X87505000Y-52173691D02*
X87505000Y-53264250D01*
X87663750Y-53423000D01*
X88588000Y-53423000D01*
X88588000Y-53403000D01*
X88842000Y-53403000D01*
X88842000Y-53423000D01*
X88862000Y-53423000D01*
X88862000Y-53677000D01*
X88842000Y-53677000D01*
X88842000Y-53697000D01*
X88588000Y-53697000D01*
X88588000Y-53677000D01*
X87663750Y-53677000D01*
X87505000Y-53835750D01*
X87505000Y-54926309D01*
X87601673Y-55159698D01*
X87780301Y-55338327D01*
X88013690Y-55435000D01*
X88429250Y-55435000D01*
X88587998Y-55276252D01*
X88587998Y-55346214D01*
X87397106Y-56537106D01*
X87249898Y-56757417D01*
X87152235Y-56776843D01*
X86942191Y-56917191D01*
X86801843Y-57127235D01*
X86752560Y-57375000D01*
X86752560Y-57725000D01*
X86779936Y-57862632D01*
X86765000Y-57898691D01*
X86765000Y-57953750D01*
X86837744Y-58026494D01*
X86942191Y-58182809D01*
X86967919Y-58200000D01*
X86942191Y-58217191D01*
X86837744Y-58373506D01*
X86765000Y-58446250D01*
X86765000Y-58501309D01*
X86779936Y-58537368D01*
X86752560Y-58675000D01*
X86752560Y-59025000D01*
X86801843Y-59272765D01*
X86942191Y-59482809D01*
X87152235Y-59623157D01*
X87400000Y-59672440D01*
X87870887Y-59672440D01*
X87909668Y-59867400D01*
X87920949Y-59924114D01*
X88080277Y-60162565D01*
X88878001Y-60960290D01*
X88878001Y-61379505D01*
X88841825Y-61291952D01*
X88556269Y-61005897D01*
X88182982Y-60850894D01*
X88102902Y-60850824D01*
X87962680Y-60710602D01*
X87701438Y-60536045D01*
X87393282Y-60474749D01*
X86756495Y-60474749D01*
X86757440Y-60470000D01*
X86757440Y-59970000D01*
X86708157Y-59722235D01*
X86567809Y-59512191D01*
X86357765Y-59371843D01*
X86110000Y-59322560D01*
X85510000Y-59322560D01*
X85262235Y-59371843D01*
X85248084Y-59381299D01*
X85136309Y-59335000D01*
X85113026Y-59335000D01*
X85258327Y-59189698D01*
X85355000Y-58956309D01*
X85355000Y-58815750D01*
X85196250Y-58657000D01*
X84595000Y-58657000D01*
X84595000Y-58677000D01*
X84441200Y-58677000D01*
X84441200Y-58383000D01*
X84595000Y-58383000D01*
X84595000Y-58403000D01*
X85196250Y-58403000D01*
X85355000Y-58244250D01*
X85355000Y-58103691D01*
X85308701Y-57991916D01*
X85318157Y-57977765D01*
X85343456Y-57850576D01*
X85361924Y-57842945D01*
X85647979Y-57557389D01*
X85802982Y-57184102D01*
X85803309Y-56809121D01*
X85817400Y-56738278D01*
X85817400Y-56208523D01*
X85928157Y-56042765D01*
X85977440Y-55795000D01*
X85977440Y-54345000D01*
X85928157Y-54097235D01*
X85787809Y-53887191D01*
X85577765Y-53746843D01*
X85330000Y-53697560D01*
X84730000Y-53697560D01*
X84482235Y-53746843D01*
X84272191Y-53887191D01*
X84230000Y-53950334D01*
X84187809Y-53887191D01*
X84073831Y-53811033D01*
X86231195Y-51954960D01*
X87595601Y-51954960D01*
X87505000Y-52173691D01*
X87505000Y-52173691D01*
G37*
X87505000Y-52173691D02*
X87505000Y-53264250D01*
X87663750Y-53423000D01*
X88588000Y-53423000D01*
X88588000Y-53403000D01*
X88842000Y-53403000D01*
X88842000Y-53423000D01*
X88862000Y-53423000D01*
X88862000Y-53677000D01*
X88842000Y-53677000D01*
X88842000Y-53697000D01*
X88588000Y-53697000D01*
X88588000Y-53677000D01*
X87663750Y-53677000D01*
X87505000Y-53835750D01*
X87505000Y-54926309D01*
X87601673Y-55159698D01*
X87780301Y-55338327D01*
X88013690Y-55435000D01*
X88429250Y-55435000D01*
X88587998Y-55276252D01*
X88587998Y-55346214D01*
X87397106Y-56537106D01*
X87249898Y-56757417D01*
X87152235Y-56776843D01*
X86942191Y-56917191D01*
X86801843Y-57127235D01*
X86752560Y-57375000D01*
X86752560Y-57725000D01*
X86779936Y-57862632D01*
X86765000Y-57898691D01*
X86765000Y-57953750D01*
X86837744Y-58026494D01*
X86942191Y-58182809D01*
X86967919Y-58200000D01*
X86942191Y-58217191D01*
X86837744Y-58373506D01*
X86765000Y-58446250D01*
X86765000Y-58501309D01*
X86779936Y-58537368D01*
X86752560Y-58675000D01*
X86752560Y-59025000D01*
X86801843Y-59272765D01*
X86942191Y-59482809D01*
X87152235Y-59623157D01*
X87400000Y-59672440D01*
X87870887Y-59672440D01*
X87909668Y-59867400D01*
X87920949Y-59924114D01*
X88080277Y-60162565D01*
X88878001Y-60960290D01*
X88878001Y-61379505D01*
X88841825Y-61291952D01*
X88556269Y-61005897D01*
X88182982Y-60850894D01*
X88102902Y-60850824D01*
X87962680Y-60710602D01*
X87701438Y-60536045D01*
X87393282Y-60474749D01*
X86756495Y-60474749D01*
X86757440Y-60470000D01*
X86757440Y-59970000D01*
X86708157Y-59722235D01*
X86567809Y-59512191D01*
X86357765Y-59371843D01*
X86110000Y-59322560D01*
X85510000Y-59322560D01*
X85262235Y-59371843D01*
X85248084Y-59381299D01*
X85136309Y-59335000D01*
X85113026Y-59335000D01*
X85258327Y-59189698D01*
X85355000Y-58956309D01*
X85355000Y-58815750D01*
X85196250Y-58657000D01*
X84595000Y-58657000D01*
X84595000Y-58677000D01*
X84441200Y-58677000D01*
X84441200Y-58383000D01*
X84595000Y-58383000D01*
X84595000Y-58403000D01*
X85196250Y-58403000D01*
X85355000Y-58244250D01*
X85355000Y-58103691D01*
X85308701Y-57991916D01*
X85318157Y-57977765D01*
X85343456Y-57850576D01*
X85361924Y-57842945D01*
X85647979Y-57557389D01*
X85802982Y-57184102D01*
X85803309Y-56809121D01*
X85817400Y-56738278D01*
X85817400Y-56208523D01*
X85928157Y-56042765D01*
X85977440Y-55795000D01*
X85977440Y-54345000D01*
X85928157Y-54097235D01*
X85787809Y-53887191D01*
X85577765Y-53746843D01*
X85330000Y-53697560D01*
X84730000Y-53697560D01*
X84482235Y-53746843D01*
X84272191Y-53887191D01*
X84230000Y-53950334D01*
X84187809Y-53887191D01*
X84073831Y-53811033D01*
X86231195Y-51954960D01*
X87595601Y-51954960D01*
X87505000Y-52173691D01*
G36*
X81955000Y-60703000D02*
X83105000Y-60703000D01*
X83105000Y-60683000D01*
X83355000Y-60683000D01*
X83355000Y-60703000D01*
X83377000Y-60703000D01*
X83377000Y-60957000D01*
X83355000Y-60957000D01*
X83355000Y-60977000D01*
X83105000Y-60977000D01*
X83105000Y-60957000D01*
X81955000Y-60957000D01*
X81955000Y-60977000D01*
X81705000Y-60977000D01*
X81705000Y-60957000D01*
X81683000Y-60957000D01*
X81683000Y-60703000D01*
X81705000Y-60703000D01*
X81705000Y-60683000D01*
X81955000Y-60683000D01*
X81955000Y-60703000D01*
X81955000Y-60703000D01*
G37*
X81955000Y-60703000D02*
X83105000Y-60703000D01*
X83105000Y-60683000D01*
X83355000Y-60683000D01*
X83355000Y-60703000D01*
X83377000Y-60703000D01*
X83377000Y-60957000D01*
X83355000Y-60957000D01*
X83355000Y-60977000D01*
X83105000Y-60977000D01*
X83105000Y-60957000D01*
X81955000Y-60957000D01*
X81955000Y-60977000D01*
X81705000Y-60977000D01*
X81705000Y-60957000D01*
X81683000Y-60957000D01*
X81683000Y-60703000D01*
X81705000Y-60703000D01*
X81705000Y-60683000D01*
X81955000Y-60683000D01*
X81955000Y-60703000D01*
G36*
X101654144Y-57746080D02*
X101460567Y-57746080D01*
X100957338Y-57846178D01*
X100530722Y-58131235D01*
X100245665Y-58557851D01*
X100145567Y-59061080D01*
X100201533Y-59342439D01*
X99367106Y-60176866D01*
X99212937Y-60407595D01*
X99193811Y-60503750D01*
X99158800Y-60679760D01*
X99158800Y-60703334D01*
X99057809Y-60552191D01*
X98847765Y-60411843D01*
X98600000Y-60362560D01*
X98100000Y-60362560D01*
X97852235Y-60411843D01*
X97642191Y-60552191D01*
X97611048Y-60598800D01*
X97580000Y-60598800D01*
X97307836Y-60652937D01*
X97231274Y-60704094D01*
X97077105Y-60807106D01*
X97056086Y-60828125D01*
X97056176Y-60724590D01*
X96901825Y-60351032D01*
X96616269Y-60064977D01*
X96242982Y-59909974D01*
X95838792Y-59909622D01*
X95736029Y-59952083D01*
X95718157Y-59862235D01*
X95708701Y-59848084D01*
X95755000Y-59736309D01*
X95755000Y-59595750D01*
X95596250Y-59437000D01*
X94995000Y-59437000D01*
X94995000Y-59457000D01*
X94745000Y-59457000D01*
X94745000Y-59437000D01*
X94723000Y-59437000D01*
X94723000Y-59268314D01*
X97010972Y-59268314D01*
X97283137Y-59214177D01*
X97513866Y-59060008D01*
X97640868Y-58933007D01*
X97662692Y-58900345D01*
X97785738Y-58875870D01*
X97995782Y-58735522D01*
X98136130Y-58525478D01*
X98185413Y-58277713D01*
X98185413Y-57377713D01*
X98136130Y-57129948D01*
X98126674Y-57115797D01*
X98172973Y-57004022D01*
X98172973Y-56713463D01*
X98014223Y-56554713D01*
X97264973Y-56554713D01*
X97264973Y-56574713D01*
X97085413Y-56574713D01*
X97085413Y-55977713D01*
X97036130Y-55729948D01*
X97010973Y-55692298D01*
X97010973Y-55501463D01*
X97264973Y-55501463D01*
X97264973Y-56300713D01*
X98014223Y-56300713D01*
X98172973Y-56141963D01*
X98172973Y-55851404D01*
X98076300Y-55618015D01*
X97897672Y-55439386D01*
X97664283Y-55342713D01*
X97423723Y-55342713D01*
X97264973Y-55501463D01*
X97010973Y-55501463D01*
X96852223Y-55342713D01*
X96611663Y-55342713D01*
X96575604Y-55357649D01*
X96437973Y-55330273D01*
X95637973Y-55330273D01*
X95390208Y-55379556D01*
X95180164Y-55519904D01*
X95092051Y-55651773D01*
X94624973Y-55651773D01*
X94377208Y-55701056D01*
X94167164Y-55841404D01*
X94026816Y-56051448D01*
X93977533Y-56299213D01*
X93977533Y-56540864D01*
X92823212Y-57695186D01*
X92769699Y-57641673D01*
X92536310Y-57545000D01*
X92443750Y-57545000D01*
X92285000Y-57703750D01*
X92285000Y-58249342D01*
X92162937Y-58432021D01*
X92124153Y-58627000D01*
X92035000Y-58627000D01*
X92035000Y-58607000D01*
X91433750Y-58607000D01*
X91275000Y-58765750D01*
X91275000Y-58906309D01*
X91321299Y-59018084D01*
X91311843Y-59032235D01*
X91262560Y-59280000D01*
X91262560Y-59333923D01*
X91148792Y-59333824D01*
X90775234Y-59488175D01*
X90489179Y-59773731D01*
X90444241Y-59881952D01*
X90228967Y-59666678D01*
X90447765Y-59623157D01*
X90657809Y-59482809D01*
X90798157Y-59272765D01*
X90847440Y-59025000D01*
X90847440Y-58675000D01*
X90820064Y-58537368D01*
X90835000Y-58501309D01*
X90835000Y-58446250D01*
X90762256Y-58373506D01*
X90657809Y-58217191D01*
X90626653Y-58196373D01*
X90738327Y-58084698D01*
X90751170Y-58053691D01*
X91275000Y-58053691D01*
X91275000Y-58194250D01*
X91433750Y-58353000D01*
X92035000Y-58353000D01*
X92035000Y-57703750D01*
X91876250Y-57545000D01*
X91783690Y-57545000D01*
X91550301Y-57641673D01*
X91371673Y-57820302D01*
X91275000Y-58053691D01*
X90751170Y-58053691D01*
X90762563Y-58026187D01*
X90835000Y-57953750D01*
X90835000Y-57898691D01*
X90825187Y-57875000D01*
X90835000Y-57851309D01*
X90835000Y-57796250D01*
X90762563Y-57723813D01*
X90738327Y-57665302D01*
X90559699Y-57486673D01*
X90501340Y-57462500D01*
X90676250Y-57462500D01*
X90835000Y-57303750D01*
X90835000Y-57248691D01*
X90738327Y-57015302D01*
X90559699Y-56836673D01*
X90326310Y-56740000D01*
X89985750Y-56740000D01*
X89827000Y-56898750D01*
X89827000Y-57462500D01*
X89913250Y-57462500D01*
X89827000Y-57548750D01*
X89827000Y-57697000D01*
X89573000Y-57697000D01*
X89573000Y-57548750D01*
X89553000Y-57528750D01*
X89553000Y-57462500D01*
X89573000Y-57462500D01*
X89573000Y-56898750D01*
X89414250Y-56740000D01*
X89205788Y-56740000D01*
X89511532Y-56434256D01*
X89577235Y-56478157D01*
X89825000Y-56527440D01*
X90975000Y-56527440D01*
X91222765Y-56478157D01*
X91432809Y-56337809D01*
X91573157Y-56127765D01*
X91622440Y-55880000D01*
X91622440Y-55435000D01*
X91799250Y-55435000D01*
X91958000Y-55276250D01*
X91958000Y-53677000D01*
X92212000Y-53677000D01*
X92212000Y-55276250D01*
X92370750Y-55435000D01*
X92811309Y-55435000D01*
X93044698Y-55338327D01*
X93223327Y-55159699D01*
X93320000Y-54926310D01*
X93320000Y-53835750D01*
X93161250Y-53677000D01*
X92212000Y-53677000D01*
X91958000Y-53677000D01*
X91938000Y-53677000D01*
X91938000Y-53423000D01*
X91958000Y-53423000D01*
X91958000Y-53403000D01*
X92212000Y-53403000D01*
X92212000Y-53423000D01*
X93161250Y-53423000D01*
X93320000Y-53264250D01*
X93320000Y-52173690D01*
X93229399Y-51954960D01*
X94922965Y-51954960D01*
X101654144Y-57746080D01*
X101654144Y-57746080D01*
G37*
X101654144Y-57746080D02*
X101460567Y-57746080D01*
X100957338Y-57846178D01*
X100530722Y-58131235D01*
X100245665Y-58557851D01*
X100145567Y-59061080D01*
X100201533Y-59342439D01*
X99367106Y-60176866D01*
X99212937Y-60407595D01*
X99193811Y-60503750D01*
X99158800Y-60679760D01*
X99158800Y-60703334D01*
X99057809Y-60552191D01*
X98847765Y-60411843D01*
X98600000Y-60362560D01*
X98100000Y-60362560D01*
X97852235Y-60411843D01*
X97642191Y-60552191D01*
X97611048Y-60598800D01*
X97580000Y-60598800D01*
X97307836Y-60652937D01*
X97231274Y-60704094D01*
X97077105Y-60807106D01*
X97056086Y-60828125D01*
X97056176Y-60724590D01*
X96901825Y-60351032D01*
X96616269Y-60064977D01*
X96242982Y-59909974D01*
X95838792Y-59909622D01*
X95736029Y-59952083D01*
X95718157Y-59862235D01*
X95708701Y-59848084D01*
X95755000Y-59736309D01*
X95755000Y-59595750D01*
X95596250Y-59437000D01*
X94995000Y-59437000D01*
X94995000Y-59457000D01*
X94745000Y-59457000D01*
X94745000Y-59437000D01*
X94723000Y-59437000D01*
X94723000Y-59268314D01*
X97010972Y-59268314D01*
X97283137Y-59214177D01*
X97513866Y-59060008D01*
X97640868Y-58933007D01*
X97662692Y-58900345D01*
X97785738Y-58875870D01*
X97995782Y-58735522D01*
X98136130Y-58525478D01*
X98185413Y-58277713D01*
X98185413Y-57377713D01*
X98136130Y-57129948D01*
X98126674Y-57115797D01*
X98172973Y-57004022D01*
X98172973Y-56713463D01*
X98014223Y-56554713D01*
X97264973Y-56554713D01*
X97264973Y-56574713D01*
X97085413Y-56574713D01*
X97085413Y-55977713D01*
X97036130Y-55729948D01*
X97010973Y-55692298D01*
X97010973Y-55501463D01*
X97264973Y-55501463D01*
X97264973Y-56300713D01*
X98014223Y-56300713D01*
X98172973Y-56141963D01*
X98172973Y-55851404D01*
X98076300Y-55618015D01*
X97897672Y-55439386D01*
X97664283Y-55342713D01*
X97423723Y-55342713D01*
X97264973Y-55501463D01*
X97010973Y-55501463D01*
X96852223Y-55342713D01*
X96611663Y-55342713D01*
X96575604Y-55357649D01*
X96437973Y-55330273D01*
X95637973Y-55330273D01*
X95390208Y-55379556D01*
X95180164Y-55519904D01*
X95092051Y-55651773D01*
X94624973Y-55651773D01*
X94377208Y-55701056D01*
X94167164Y-55841404D01*
X94026816Y-56051448D01*
X93977533Y-56299213D01*
X93977533Y-56540864D01*
X92823212Y-57695186D01*
X92769699Y-57641673D01*
X92536310Y-57545000D01*
X92443750Y-57545000D01*
X92285000Y-57703750D01*
X92285000Y-58249342D01*
X92162937Y-58432021D01*
X92124153Y-58627000D01*
X92035000Y-58627000D01*
X92035000Y-58607000D01*
X91433750Y-58607000D01*
X91275000Y-58765750D01*
X91275000Y-58906309D01*
X91321299Y-59018084D01*
X91311843Y-59032235D01*
X91262560Y-59280000D01*
X91262560Y-59333923D01*
X91148792Y-59333824D01*
X90775234Y-59488175D01*
X90489179Y-59773731D01*
X90444241Y-59881952D01*
X90228967Y-59666678D01*
X90447765Y-59623157D01*
X90657809Y-59482809D01*
X90798157Y-59272765D01*
X90847440Y-59025000D01*
X90847440Y-58675000D01*
X90820064Y-58537368D01*
X90835000Y-58501309D01*
X90835000Y-58446250D01*
X90762256Y-58373506D01*
X90657809Y-58217191D01*
X90626653Y-58196373D01*
X90738327Y-58084698D01*
X90751170Y-58053691D01*
X91275000Y-58053691D01*
X91275000Y-58194250D01*
X91433750Y-58353000D01*
X92035000Y-58353000D01*
X92035000Y-57703750D01*
X91876250Y-57545000D01*
X91783690Y-57545000D01*
X91550301Y-57641673D01*
X91371673Y-57820302D01*
X91275000Y-58053691D01*
X90751170Y-58053691D01*
X90762563Y-58026187D01*
X90835000Y-57953750D01*
X90835000Y-57898691D01*
X90825187Y-57875000D01*
X90835000Y-57851309D01*
X90835000Y-57796250D01*
X90762563Y-57723813D01*
X90738327Y-57665302D01*
X90559699Y-57486673D01*
X90501340Y-57462500D01*
X90676250Y-57462500D01*
X90835000Y-57303750D01*
X90835000Y-57248691D01*
X90738327Y-57015302D01*
X90559699Y-56836673D01*
X90326310Y-56740000D01*
X89985750Y-56740000D01*
X89827000Y-56898750D01*
X89827000Y-57462500D01*
X89913250Y-57462500D01*
X89827000Y-57548750D01*
X89827000Y-57697000D01*
X89573000Y-57697000D01*
X89573000Y-57548750D01*
X89553000Y-57528750D01*
X89553000Y-57462500D01*
X89573000Y-57462500D01*
X89573000Y-56898750D01*
X89414250Y-56740000D01*
X89205788Y-56740000D01*
X89511532Y-56434256D01*
X89577235Y-56478157D01*
X89825000Y-56527440D01*
X90975000Y-56527440D01*
X91222765Y-56478157D01*
X91432809Y-56337809D01*
X91573157Y-56127765D01*
X91622440Y-55880000D01*
X91622440Y-55435000D01*
X91799250Y-55435000D01*
X91958000Y-55276250D01*
X91958000Y-53677000D01*
X92212000Y-53677000D01*
X92212000Y-55276250D01*
X92370750Y-55435000D01*
X92811309Y-55435000D01*
X93044698Y-55338327D01*
X93223327Y-55159699D01*
X93320000Y-54926310D01*
X93320000Y-53835750D01*
X93161250Y-53677000D01*
X92212000Y-53677000D01*
X91958000Y-53677000D01*
X91938000Y-53677000D01*
X91938000Y-53423000D01*
X91958000Y-53423000D01*
X91958000Y-53403000D01*
X92212000Y-53403000D01*
X92212000Y-53423000D01*
X93161250Y-53423000D01*
X93320000Y-53264250D01*
X93320000Y-52173690D01*
X93229399Y-51954960D01*
X94922965Y-51954960D01*
X101654144Y-57746080D01*
G36*
X94999973Y-57572213D02*
X95021973Y-57572213D01*
X95021973Y-57700711D01*
X95002973Y-57700711D01*
X95002973Y-57826213D01*
X94999973Y-57826213D01*
X94999973Y-57845914D01*
X94749973Y-57845914D01*
X94749973Y-57826213D01*
X94727973Y-57826213D01*
X94727973Y-57802002D01*
X94977762Y-57552213D01*
X94999973Y-57552213D01*
X94999973Y-57572213D01*
X94999973Y-57572213D01*
G37*
X94999973Y-57572213D02*
X95021973Y-57572213D01*
X95021973Y-57700711D01*
X95002973Y-57700711D01*
X95002973Y-57826213D01*
X94999973Y-57826213D01*
X94999973Y-57845914D01*
X94749973Y-57845914D01*
X94749973Y-57826213D01*
X94727973Y-57826213D01*
X94727973Y-57802002D01*
X94977762Y-57552213D01*
X94999973Y-57552213D01*
X94999973Y-57572213D01*
G36*
X96090533Y-57845914D02*
X95890973Y-57845914D01*
X95890973Y-57700713D01*
X95910973Y-57700713D01*
X95910973Y-57680713D01*
X96090533Y-57680713D01*
X96090533Y-57845914D01*
X96090533Y-57845914D01*
G37*
X96090533Y-57845914D02*
X95890973Y-57845914D01*
X95890973Y-57700713D01*
X95910973Y-57700713D01*
X95910973Y-57680713D01*
X96090533Y-57680713D01*
X96090533Y-57845914D01*
G36*
X93073431Y-63890489D02*
X93085451Y-63950920D01*
X93065560Y-64050920D01*
X93065560Y-64250920D01*
X93085451Y-64350920D01*
X93065560Y-64450920D01*
X93065560Y-64650920D01*
X93085451Y-64750920D01*
X93065560Y-64850920D01*
X93065560Y-65050920D01*
X93085451Y-65150920D01*
X93065560Y-65250920D01*
X93065560Y-65450920D01*
X93085451Y-65550920D01*
X93065560Y-65650920D01*
X93065560Y-65850920D01*
X93085451Y-65950920D01*
X93065560Y-66050920D01*
X93065560Y-66250920D01*
X93085451Y-66350920D01*
X93065560Y-66450920D01*
X93065560Y-66650920D01*
X93085451Y-66750920D01*
X93065560Y-66850920D01*
X93065560Y-67050920D01*
X93085451Y-67150920D01*
X93065560Y-67250920D01*
X93065560Y-67450920D01*
X93085451Y-67550920D01*
X93065560Y-67650920D01*
X93065560Y-67850920D01*
X93085451Y-67950920D01*
X93065560Y-68050920D01*
X93065560Y-68250920D01*
X93085451Y-68350920D01*
X93065560Y-68450920D01*
X93065560Y-68650920D01*
X93085451Y-68750920D01*
X93073431Y-68811351D01*
X93013000Y-68823371D01*
X92913000Y-68803480D01*
X92713000Y-68803480D01*
X92613000Y-68823371D01*
X92513000Y-68803480D01*
X92313000Y-68803480D01*
X92213000Y-68823371D01*
X92113000Y-68803480D01*
X91913000Y-68803480D01*
X91813000Y-68823371D01*
X91713000Y-68803480D01*
X91513000Y-68803480D01*
X91413000Y-68823371D01*
X91313000Y-68803480D01*
X91113000Y-68803480D01*
X91013000Y-68823371D01*
X90913000Y-68803480D01*
X90713000Y-68803480D01*
X90613000Y-68823371D01*
X90513000Y-68803480D01*
X90313000Y-68803480D01*
X90213000Y-68823371D01*
X90113000Y-68803480D01*
X89913000Y-68803480D01*
X89813000Y-68823371D01*
X89713000Y-68803480D01*
X89513000Y-68803480D01*
X89413000Y-68823371D01*
X89313000Y-68803480D01*
X89113000Y-68803480D01*
X89013000Y-68823371D01*
X88913000Y-68803480D01*
X88713000Y-68803480D01*
X88613000Y-68823371D01*
X88513000Y-68803480D01*
X88313000Y-68803480D01*
X88157169Y-68834476D01*
X88140549Y-68750920D01*
X88160440Y-68650920D01*
X88160440Y-68450920D01*
X88140549Y-68350920D01*
X88160440Y-68250920D01*
X88160440Y-68050920D01*
X88140549Y-67950920D01*
X88160440Y-67850920D01*
X88160440Y-67650920D01*
X88140549Y-67550920D01*
X88160440Y-67450920D01*
X88160440Y-67250920D01*
X88140549Y-67150920D01*
X88160440Y-67050920D01*
X88160440Y-66850920D01*
X88140549Y-66750920D01*
X88160440Y-66650920D01*
X88160440Y-66450920D01*
X88140549Y-66350920D01*
X88160440Y-66250920D01*
X88160440Y-66050920D01*
X88140549Y-65950920D01*
X88160440Y-65850920D01*
X88160440Y-65650920D01*
X88140549Y-65550920D01*
X88160440Y-65450920D01*
X88160440Y-65250920D01*
X88140549Y-65150920D01*
X88160440Y-65050920D01*
X88160440Y-64850920D01*
X88140549Y-64750920D01*
X88160440Y-64650920D01*
X88160440Y-64450920D01*
X88140549Y-64350920D01*
X88160440Y-64250920D01*
X88160440Y-64050920D01*
X88140549Y-63950920D01*
X88152569Y-63890489D01*
X88213000Y-63878469D01*
X88313000Y-63898360D01*
X88513000Y-63898360D01*
X88613000Y-63878469D01*
X88713000Y-63898360D01*
X88913000Y-63898360D01*
X89013000Y-63878469D01*
X89113000Y-63898360D01*
X89313000Y-63898360D01*
X89413000Y-63878469D01*
X89513000Y-63898360D01*
X89713000Y-63898360D01*
X89813000Y-63878469D01*
X89913000Y-63898360D01*
X90113000Y-63898360D01*
X90213000Y-63878469D01*
X90313000Y-63898360D01*
X90513000Y-63898360D01*
X90613000Y-63878469D01*
X90713000Y-63898360D01*
X90913000Y-63898360D01*
X91013000Y-63878469D01*
X91113000Y-63898360D01*
X91313000Y-63898360D01*
X91413000Y-63878469D01*
X91513000Y-63898360D01*
X91713000Y-63898360D01*
X91813000Y-63878469D01*
X91913000Y-63898360D01*
X92113000Y-63898360D01*
X92213000Y-63878469D01*
X92313000Y-63898360D01*
X92513000Y-63898360D01*
X92613000Y-63878469D01*
X92713000Y-63898360D01*
X92913000Y-63898360D01*
X93013000Y-63878469D01*
X93073431Y-63890489D01*
X93073431Y-63890489D01*
G37*
X93073431Y-63890489D02*
X93085451Y-63950920D01*
X93065560Y-64050920D01*
X93065560Y-64250920D01*
X93085451Y-64350920D01*
X93065560Y-64450920D01*
X93065560Y-64650920D01*
X93085451Y-64750920D01*
X93065560Y-64850920D01*
X93065560Y-65050920D01*
X93085451Y-65150920D01*
X93065560Y-65250920D01*
X93065560Y-65450920D01*
X93085451Y-65550920D01*
X93065560Y-65650920D01*
X93065560Y-65850920D01*
X93085451Y-65950920D01*
X93065560Y-66050920D01*
X93065560Y-66250920D01*
X93085451Y-66350920D01*
X93065560Y-66450920D01*
X93065560Y-66650920D01*
X93085451Y-66750920D01*
X93065560Y-66850920D01*
X93065560Y-67050920D01*
X93085451Y-67150920D01*
X93065560Y-67250920D01*
X93065560Y-67450920D01*
X93085451Y-67550920D01*
X93065560Y-67650920D01*
X93065560Y-67850920D01*
X93085451Y-67950920D01*
X93065560Y-68050920D01*
X93065560Y-68250920D01*
X93085451Y-68350920D01*
X93065560Y-68450920D01*
X93065560Y-68650920D01*
X93085451Y-68750920D01*
X93073431Y-68811351D01*
X93013000Y-68823371D01*
X92913000Y-68803480D01*
X92713000Y-68803480D01*
X92613000Y-68823371D01*
X92513000Y-68803480D01*
X92313000Y-68803480D01*
X92213000Y-68823371D01*
X92113000Y-68803480D01*
X91913000Y-68803480D01*
X91813000Y-68823371D01*
X91713000Y-68803480D01*
X91513000Y-68803480D01*
X91413000Y-68823371D01*
X91313000Y-68803480D01*
X91113000Y-68803480D01*
X91013000Y-68823371D01*
X90913000Y-68803480D01*
X90713000Y-68803480D01*
X90613000Y-68823371D01*
X90513000Y-68803480D01*
X90313000Y-68803480D01*
X90213000Y-68823371D01*
X90113000Y-68803480D01*
X89913000Y-68803480D01*
X89813000Y-68823371D01*
X89713000Y-68803480D01*
X89513000Y-68803480D01*
X89413000Y-68823371D01*
X89313000Y-68803480D01*
X89113000Y-68803480D01*
X89013000Y-68823371D01*
X88913000Y-68803480D01*
X88713000Y-68803480D01*
X88613000Y-68823371D01*
X88513000Y-68803480D01*
X88313000Y-68803480D01*
X88157169Y-68834476D01*
X88140549Y-68750920D01*
X88160440Y-68650920D01*
X88160440Y-68450920D01*
X88140549Y-68350920D01*
X88160440Y-68250920D01*
X88160440Y-68050920D01*
X88140549Y-67950920D01*
X88160440Y-67850920D01*
X88160440Y-67650920D01*
X88140549Y-67550920D01*
X88160440Y-67450920D01*
X88160440Y-67250920D01*
X88140549Y-67150920D01*
X88160440Y-67050920D01*
X88160440Y-66850920D01*
X88140549Y-66750920D01*
X88160440Y-66650920D01*
X88160440Y-66450920D01*
X88140549Y-66350920D01*
X88160440Y-66250920D01*
X88160440Y-66050920D01*
X88140549Y-65950920D01*
X88160440Y-65850920D01*
X88160440Y-65650920D01*
X88140549Y-65550920D01*
X88160440Y-65450920D01*
X88160440Y-65250920D01*
X88140549Y-65150920D01*
X88160440Y-65050920D01*
X88160440Y-64850920D01*
X88140549Y-64750920D01*
X88160440Y-64650920D01*
X88160440Y-64450920D01*
X88140549Y-64350920D01*
X88160440Y-64250920D01*
X88160440Y-64050920D01*
X88140549Y-63950920D01*
X88152569Y-63890489D01*
X88213000Y-63878469D01*
X88313000Y-63898360D01*
X88513000Y-63898360D01*
X88613000Y-63878469D01*
X88713000Y-63898360D01*
X88913000Y-63898360D01*
X89013000Y-63878469D01*
X89113000Y-63898360D01*
X89313000Y-63898360D01*
X89413000Y-63878469D01*
X89513000Y-63898360D01*
X89713000Y-63898360D01*
X89813000Y-63878469D01*
X89913000Y-63898360D01*
X90113000Y-63898360D01*
X90213000Y-63878469D01*
X90313000Y-63898360D01*
X90513000Y-63898360D01*
X90613000Y-63878469D01*
X90713000Y-63898360D01*
X90913000Y-63898360D01*
X91013000Y-63878469D01*
X91113000Y-63898360D01*
X91313000Y-63898360D01*
X91413000Y-63878469D01*
X91513000Y-63898360D01*
X91713000Y-63898360D01*
X91813000Y-63878469D01*
X91913000Y-63898360D01*
X92113000Y-63898360D01*
X92213000Y-63878469D01*
X92313000Y-63898360D01*
X92513000Y-63898360D01*
X92613000Y-63878469D01*
X92713000Y-63898360D01*
X92913000Y-63898360D01*
X93013000Y-63878469D01*
X93073431Y-63890489D01*
M02*
