M48
METRIC,TZ
T1C0.300
T2C0.305
T3C0.800
T4C0.800
%
G90
G05
T1
X79000Y-78300
X79800Y-78300
X80600Y-78300
X81400Y-72700
X81400Y-73500
X81400Y-75900
X81400Y-76700
X81400Y-77500
X81400Y-78300
X83700Y-54100
X84400Y-53600
X84800Y-54300
X85000Y-53000
X85100Y-78300
X85200Y-55000
X85500Y-55700
X85600Y-52500
X85700Y-56500
X85700Y-58200
X85900Y-78300
X86200Y-52000
X86500Y-58200
X86700Y-78300
X87000Y-52000
X87800Y-52000
X87900Y-60500
X89600Y-52000
X90400Y-52000
X91200Y-52000
X93300Y-52000
X94100Y-52000
X94100Y-78300
X94800Y-52000
X94900Y-78300
X95400Y-52600
X95600Y-74600
X95700Y-78300
X96000Y-53100
X96500Y-78300
X96600Y-53600
X97200Y-54100
X97300Y-78300
X97800Y-54600
X98400Y-55100
X98900Y-61200
X99000Y-55600
X99000Y-60400
X99500Y-59800
X99600Y-56100
X99800Y-71400
X100000Y-59300
X100100Y-58500
X100200Y-56600
X100600Y-57900
X100800Y-57100
X101400Y-57600
T2
X81260Y-69820
X81660Y-59740
X82540Y-60840
X82740Y-66240
X82869Y-58942
X83531Y-65248
X83710Y-68748
X83782Y-66166
X83809Y-57320
X83870Y-78100
X83910Y-58400
X84130Y-60840
X84580Y-69280
X84764Y-66160
X84950Y-71690
X85493Y-76357
X85810Y-62970
X86200Y-70300
X86620Y-71936
X86750Y-73110
X86890Y-61160
X86940Y-58810
X88058Y-72731
X88513Y-64251
X88513Y-65651
X88513Y-67051
X88513Y-68451
X89913Y-64251
X89913Y-65651
X89913Y-67051
X89913Y-68451
X90549Y-61410
X90600Y-72950
X90880Y-58160
X91313Y-64251
X91313Y-65651
X91313Y-67051
X91313Y-68451
X92713Y-64251
X92713Y-65651
X92713Y-67051
X92713Y-68451
X93130Y-73070
X93270Y-60520
X93799Y-61393
X94300Y-76250
X94450Y-72550
X94620Y-70320
X94790Y-61760
X95420Y-57810
X95560Y-59290
X95770Y-70560
X96089Y-64674
X96390Y-63330
X96456Y-74269
X96660Y-76670
X97350Y-63240
X97360Y-64670
X97780Y-56460
X97823Y-72317
X97900Y-62190
X98100Y-60900
X99039Y-63507
X99883Y-70455
T3
X79609Y-59061
X79609Y-61061
X79609Y-63061
X79609Y-65061
X79609Y-67061
X79609Y-69061
X79609Y-71061
X79609Y-73061
X79609Y-75061
X79609Y-77061
X101609Y-59061
X101609Y-61061
X101609Y-63061
X101609Y-65061
X101609Y-67061
X101609Y-69061
X101609Y-71061
X101609Y-73061
X101609Y-75061
X101609Y-77061
T4
X82677Y-76278
X98770Y-76278
T0
M30
