G04 #@! TF.GenerationSoftware,KiCad,Pcbnew,no-vcs-found-96b3286~58~ubuntu16.10.1*
G04 #@! TF.CreationDate,2017-03-05T12:49:51+01:00*
G04 #@! TF.ProjectId,cc2538module,6363323533386D6F64756C652E6B6963,rev?*
G04 #@! TF.FileFunction,Copper,L4,Bot,Signal*
G04 #@! TF.FilePolarity,Positive*
%FSLAX46Y46*%
G04 Gerber Fmt 4.6, Leading zero omitted, Abs format (unit mm)*
G04 Created by KiCad (PCBNEW no-vcs-found-96b3286~58~ubuntu16.10.1) date Sun Mar  5 12:49:51 2017*
%MOMM*%
%LPD*%
G01*
G04 APERTURE LIST*
%ADD10C,0.150000*%
%ADD11C,0.600000*%
%ADD12R,0.740000X2.400000*%
%ADD13O,1.600000X1.360000*%
%ADD14R,1.360000X1.360000*%
%ADD15C,0.762000*%
%ADD16C,0.340502*%
%ADD17C,0.152400*%
%ADD18C,0.254000*%
G04 APERTURE END LIST*
D10*
D11*
X86350000Y-54750000D03*
X86200000Y-53800000D03*
X99350000Y-59700000D03*
X99800000Y-58800000D03*
X100200000Y-57900000D03*
X98550000Y-55600000D03*
X97800000Y-54950000D03*
X82450000Y-73000000D03*
X99600000Y-68200000D03*
X96950000Y-78100000D03*
X81100000Y-77850000D03*
X86500000Y-77850000D03*
X95200000Y-77850000D03*
X85750000Y-52900000D03*
X87600000Y-52350000D03*
X86600000Y-52350000D03*
D12*
X93138158Y-72730794D03*
X91868158Y-72730794D03*
X90598158Y-72730794D03*
X89328158Y-72730794D03*
X88058158Y-72730794D03*
X93138158Y-76630794D03*
X91868158Y-76630794D03*
X90598158Y-76630794D03*
X89328158Y-76630794D03*
X88058158Y-76630794D03*
D13*
X101608680Y-77061080D03*
X101608680Y-75061080D03*
X101608680Y-73061080D03*
X101608680Y-71061080D03*
X101608680Y-69061080D03*
X101608680Y-67061080D03*
X101608680Y-65061080D03*
X101608680Y-63061080D03*
X101608680Y-61061080D03*
X101608680Y-59061080D03*
D14*
X79608680Y-59061080D03*
D13*
X79608680Y-61061080D03*
X79608680Y-63061080D03*
X79608680Y-65061080D03*
X79608680Y-67061080D03*
X79608680Y-69061080D03*
X79608680Y-71061080D03*
X79608680Y-73061080D03*
X79608680Y-75061080D03*
X79608680Y-77061080D03*
X79608680Y-77061080D03*
X79608680Y-75061080D03*
X79608680Y-73061080D03*
X79608680Y-71061080D03*
X79608680Y-69061080D03*
X79608680Y-67061080D03*
X79608680Y-65061080D03*
X79608680Y-63061080D03*
X79608680Y-61061080D03*
D14*
X79608680Y-59061080D03*
D13*
X101608680Y-59061080D03*
X101608680Y-61061080D03*
X101608680Y-63061080D03*
X101608680Y-65061080D03*
X101608680Y-67061080D03*
X101608680Y-69061080D03*
X101608680Y-71061080D03*
X101608680Y-73061080D03*
X101608680Y-75061080D03*
X101608680Y-77061080D03*
D12*
X88058158Y-76630794D03*
X89328158Y-76630794D03*
X90598158Y-76630794D03*
X91868158Y-76630794D03*
X93138158Y-76630794D03*
X88058158Y-72730794D03*
X89328158Y-72730794D03*
X90598158Y-72730794D03*
X91868158Y-72730794D03*
X93138158Y-72730794D03*
X93138158Y-72730794D03*
X91868158Y-72730794D03*
X90598158Y-72730794D03*
X89328158Y-72730794D03*
X88058158Y-72730794D03*
X93138158Y-76630794D03*
X91868158Y-76630794D03*
X90598158Y-76630794D03*
X89328158Y-76630794D03*
X88058158Y-76630794D03*
D13*
X101608680Y-77061080D03*
X101608680Y-75061080D03*
X101608680Y-73061080D03*
X101608680Y-71061080D03*
X101608680Y-69061080D03*
X101608680Y-67061080D03*
X101608680Y-65061080D03*
X101608680Y-63061080D03*
X101608680Y-61061080D03*
X101608680Y-59061080D03*
D14*
X79608680Y-59061080D03*
D13*
X79608680Y-61061080D03*
X79608680Y-63061080D03*
X79608680Y-65061080D03*
X79608680Y-67061080D03*
X79608680Y-69061080D03*
X79608680Y-71061080D03*
X79608680Y-73061080D03*
X79608680Y-75061080D03*
X79608680Y-77061080D03*
D11*
X93800000Y-52350000D03*
X100100000Y-56900000D03*
X99300000Y-56250000D03*
X97050000Y-54300000D03*
X96300000Y-53650000D03*
X95550000Y-53000000D03*
X94800000Y-52350000D03*
D13*
X79608680Y-77061080D03*
X79608680Y-75061080D03*
X79608680Y-73061080D03*
X79608680Y-71061080D03*
X79608680Y-69061080D03*
X79608680Y-67061080D03*
X79608680Y-65061080D03*
X79608680Y-63061080D03*
X79608680Y-61061080D03*
D14*
X79608680Y-59061080D03*
D13*
X101608680Y-59061080D03*
X101608680Y-61061080D03*
X101608680Y-63061080D03*
X101608680Y-65061080D03*
X101608680Y-67061080D03*
X101608680Y-69061080D03*
X101608680Y-71061080D03*
X101608680Y-73061080D03*
X101608680Y-75061080D03*
X101608680Y-77061080D03*
D12*
X88058158Y-76630794D03*
X89328158Y-76630794D03*
X90598158Y-76630794D03*
X91868158Y-76630794D03*
X93138158Y-76630794D03*
X88058158Y-72730794D03*
X89328158Y-72730794D03*
X90598158Y-72730794D03*
X91868158Y-72730794D03*
X93138158Y-72730794D03*
D15*
X85240000Y-59090000D03*
X98850000Y-63550000D03*
X93880002Y-72470000D03*
X96137585Y-74077585D03*
X91470000Y-58270000D03*
X95840000Y-59330000D03*
X95420000Y-57810000D03*
X88513000Y-68450920D03*
X89913000Y-68450920D03*
X91313000Y-68450920D03*
X92713000Y-68450920D03*
X92713000Y-67050920D03*
X91313000Y-67050920D03*
X89913000Y-67050920D03*
X88513000Y-67050920D03*
X88513000Y-64250920D03*
X88513000Y-65650920D03*
X89913000Y-65650920D03*
X91313000Y-65650920D03*
X92713000Y-65650920D03*
X92713000Y-64250920D03*
X91313000Y-64250920D03*
X89913000Y-64250920D03*
X85660000Y-71650000D03*
X86467479Y-58133287D03*
X82490000Y-60210000D03*
X98890000Y-62380000D03*
X83870000Y-78100000D03*
X97340000Y-69850000D03*
X90426703Y-58136579D03*
X90400000Y-57600000D03*
X94299990Y-76250000D03*
X97380000Y-62660000D03*
X85492867Y-76357133D03*
X81560000Y-69310000D03*
X83108403Y-66153502D03*
X82649153Y-65277891D03*
X87041504Y-72301390D03*
X90522789Y-72599590D03*
X87012616Y-71336610D03*
X91350000Y-60350000D03*
X95728954Y-65263277D03*
X91899723Y-70946315D03*
X96660000Y-76670000D03*
X94730000Y-71830000D03*
X92988019Y-61258019D03*
X84787158Y-56981120D03*
X87980000Y-61866718D03*
X94811454Y-69584382D03*
X84510000Y-69880000D03*
X85530000Y-63524212D03*
X88123522Y-72600410D03*
X98080000Y-71387422D03*
X95770846Y-63931694D03*
X95472482Y-63013765D03*
X84780000Y-66602355D03*
X84009538Y-65807685D03*
X93961705Y-70066610D03*
X82300000Y-56150000D03*
X96040000Y-60925798D03*
X84019513Y-69018018D03*
X83730000Y-59650000D03*
X97031632Y-71743033D03*
X97476422Y-63677488D03*
X93920000Y-61890000D03*
X87060000Y-69653390D03*
D16*
X93138158Y-72730794D02*
X93619208Y-72730794D01*
X93619208Y-72730794D02*
X93880002Y-72470000D01*
D17*
X93138158Y-76630794D02*
X93919196Y-76630794D01*
X93919196Y-76630794D02*
X94299990Y-76250000D01*
X82624389Y-66637516D02*
X82727404Y-66534501D01*
X82624389Y-71217298D02*
X82624389Y-66637516D01*
X82727404Y-66534501D02*
X83108403Y-66153502D01*
X88588586Y-75061222D02*
X86468313Y-75061222D01*
X89328158Y-75800794D02*
X88588586Y-75061222D01*
X86468313Y-75061222D02*
X82624389Y-71217298D01*
X89328158Y-76630794D02*
X89328158Y-75800794D01*
X82268154Y-71363972D02*
X82268154Y-65658890D01*
X87534976Y-76630794D02*
X82268154Y-71363972D01*
X88058158Y-76630794D02*
X87534976Y-76630794D01*
X82268154Y-65658890D02*
X82649153Y-65277891D01*
X87393615Y-70955611D02*
X87012616Y-71336610D01*
X88331542Y-70904178D02*
X87445048Y-70904178D01*
X87445048Y-70904178D02*
X87393615Y-70955611D01*
X89328158Y-71900794D02*
X88331542Y-70904178D01*
X89328158Y-72730794D02*
X89328158Y-71900794D01*
X94730000Y-71830000D02*
X94730000Y-74740000D01*
X94730000Y-74740000D02*
X96660000Y-76670000D01*
X79728680Y-71061080D02*
X79608680Y-71061080D01*
X84399001Y-66983354D02*
X84780000Y-66602355D01*
X91868158Y-76630794D02*
X91868158Y-75800794D01*
X83340000Y-68042355D02*
X84399001Y-66983354D01*
X86870000Y-74350000D02*
X83340000Y-70820000D01*
X90417364Y-74350000D02*
X86870000Y-74350000D01*
X91868158Y-75800794D02*
X90417364Y-74350000D01*
X83340000Y-70820000D02*
X83340000Y-68042355D01*
X90598158Y-76630794D02*
X90598158Y-75800794D01*
X82980000Y-67376038D02*
X84009538Y-66346500D01*
X90598158Y-75800794D02*
X89502975Y-74705611D01*
X89502975Y-74705611D02*
X86615611Y-74705611D01*
X86615611Y-74705611D02*
X82980000Y-71070000D01*
X82980000Y-71070000D02*
X82980000Y-67376038D01*
X84009538Y-66346500D02*
X84009538Y-65807685D01*
X93332391Y-70447609D02*
X93580706Y-70447609D01*
X93580706Y-70447609D02*
X93961705Y-70066610D01*
X91868158Y-72730794D02*
X91868158Y-71911842D01*
X91868158Y-71911842D02*
X93332391Y-70447609D01*
D18*
G36*
X80983731Y-70170821D02*
X81357018Y-70325824D01*
X81556954Y-70325998D01*
X81556954Y-71363972D01*
X81611091Y-71636137D01*
X81765260Y-71866866D01*
X85254645Y-75356251D01*
X84918101Y-75495308D01*
X84632046Y-75780864D01*
X84477043Y-76154151D01*
X84476691Y-76558341D01*
X84631042Y-76931899D01*
X84916598Y-77217954D01*
X85289885Y-77372957D01*
X85694075Y-77373309D01*
X86067633Y-77218958D01*
X86353688Y-76933402D01*
X86493967Y-76595573D01*
X87032082Y-77133688D01*
X87040718Y-77139458D01*
X87040718Y-77830794D01*
X87090001Y-78078559D01*
X87167778Y-78194960D01*
X79072080Y-78194960D01*
X79072080Y-76482971D01*
X81641821Y-76482971D01*
X81799058Y-76863515D01*
X82089954Y-77154919D01*
X82470223Y-77312820D01*
X82881971Y-77313179D01*
X83262515Y-77155942D01*
X83553919Y-76865046D01*
X83711820Y-76484777D01*
X83712179Y-76073029D01*
X83554942Y-75692485D01*
X83264046Y-75401081D01*
X82883777Y-75243180D01*
X82472029Y-75242821D01*
X82091485Y-75400058D01*
X81800081Y-75690954D01*
X81642180Y-76071223D01*
X81641821Y-76482971D01*
X79072080Y-76482971D01*
X79072080Y-76298805D01*
X79460567Y-76376080D01*
X79756793Y-76376080D01*
X80260022Y-76275982D01*
X80686638Y-75990925D01*
X80971695Y-75564309D01*
X81071793Y-75061080D01*
X80971695Y-74557851D01*
X80686638Y-74131235D01*
X80581644Y-74061080D01*
X80686638Y-73990925D01*
X80971695Y-73564309D01*
X81071793Y-73061080D01*
X80971695Y-72557851D01*
X80686638Y-72131235D01*
X80581644Y-72061080D01*
X80686638Y-71990925D01*
X80971695Y-71564309D01*
X81071793Y-71061080D01*
X80971695Y-70557851D01*
X80686638Y-70131235D01*
X80581644Y-70061080D01*
X80686638Y-69990925D01*
X80733756Y-69920409D01*
X80983731Y-70170821D01*
X80983731Y-70170821D01*
G37*
X80983731Y-70170821D02*
X81357018Y-70325824D01*
X81556954Y-70325998D01*
X81556954Y-71363972D01*
X81611091Y-71636137D01*
X81765260Y-71866866D01*
X85254645Y-75356251D01*
X84918101Y-75495308D01*
X84632046Y-75780864D01*
X84477043Y-76154151D01*
X84476691Y-76558341D01*
X84631042Y-76931899D01*
X84916598Y-77217954D01*
X85289885Y-77372957D01*
X85694075Y-77373309D01*
X86067633Y-77218958D01*
X86353688Y-76933402D01*
X86493967Y-76595573D01*
X87032082Y-77133688D01*
X87040718Y-77139458D01*
X87040718Y-77830794D01*
X87090001Y-78078559D01*
X87167778Y-78194960D01*
X79072080Y-78194960D01*
X79072080Y-76482971D01*
X81641821Y-76482971D01*
X81799058Y-76863515D01*
X82089954Y-77154919D01*
X82470223Y-77312820D01*
X82881971Y-77313179D01*
X83262515Y-77155942D01*
X83553919Y-76865046D01*
X83711820Y-76484777D01*
X83712179Y-76073029D01*
X83554942Y-75692485D01*
X83264046Y-75401081D01*
X82883777Y-75243180D01*
X82472029Y-75242821D01*
X82091485Y-75400058D01*
X81800081Y-75690954D01*
X81642180Y-76071223D01*
X81641821Y-76482971D01*
X79072080Y-76482971D01*
X79072080Y-76298805D01*
X79460567Y-76376080D01*
X79756793Y-76376080D01*
X80260022Y-76275982D01*
X80686638Y-75990925D01*
X80971695Y-75564309D01*
X81071793Y-75061080D01*
X80971695Y-74557851D01*
X80686638Y-74131235D01*
X80581644Y-74061080D01*
X80686638Y-73990925D01*
X80971695Y-73564309D01*
X81071793Y-73061080D01*
X80971695Y-72557851D01*
X80686638Y-72131235D01*
X80581644Y-72061080D01*
X80686638Y-71990925D01*
X80971695Y-71564309D01*
X81071793Y-71061080D01*
X80971695Y-70557851D01*
X80686638Y-70131235D01*
X80581644Y-70061080D01*
X80686638Y-69990925D01*
X80733756Y-69920409D01*
X80983731Y-70170821D01*
G36*
X101654144Y-57746080D02*
X101460567Y-57746080D01*
X100957338Y-57846178D01*
X100530722Y-58131235D01*
X100245665Y-58557851D01*
X100145567Y-59061080D01*
X100245665Y-59564309D01*
X100530722Y-59990925D01*
X100635716Y-60061080D01*
X100530722Y-60131235D01*
X100245665Y-60557851D01*
X100145567Y-61061080D01*
X100245665Y-61564309D01*
X100530722Y-61990925D01*
X100635716Y-62061080D01*
X100530722Y-62131235D01*
X100245665Y-62557851D01*
X100145567Y-63061080D01*
X100245665Y-63564309D01*
X100530722Y-63990925D01*
X100635716Y-64061080D01*
X100530722Y-64131235D01*
X100245665Y-64557851D01*
X100145567Y-65061080D01*
X100245665Y-65564309D01*
X100530722Y-65990925D01*
X100635716Y-66061080D01*
X100530722Y-66131235D01*
X100245665Y-66557851D01*
X100145567Y-67061080D01*
X100245665Y-67564309D01*
X100530722Y-67990925D01*
X100635716Y-68061080D01*
X100530722Y-68131235D01*
X100245665Y-68557851D01*
X100145567Y-69061080D01*
X100245665Y-69564309D01*
X100530722Y-69990925D01*
X100635716Y-70061080D01*
X100530722Y-70131235D01*
X100245665Y-70557851D01*
X100145567Y-71061080D01*
X100245665Y-71564309D01*
X100530722Y-71990925D01*
X100635716Y-72061080D01*
X100530722Y-72131235D01*
X100245665Y-72557851D01*
X100145567Y-73061080D01*
X100245665Y-73564309D01*
X100530722Y-73990925D01*
X100635716Y-74061080D01*
X100530722Y-74131235D01*
X100245665Y-74557851D01*
X100145567Y-75061080D01*
X100245665Y-75564309D01*
X100530722Y-75990925D01*
X100635716Y-76061080D01*
X100530722Y-76131235D01*
X100245665Y-76557851D01*
X100145567Y-77061080D01*
X100245665Y-77564309D01*
X100530722Y-77990925D01*
X100836081Y-78194960D01*
X94028538Y-78194960D01*
X94106315Y-78078559D01*
X94155598Y-77830794D01*
X94155598Y-77294971D01*
X94191361Y-77287857D01*
X94224170Y-77265935D01*
X94501198Y-77266176D01*
X94874756Y-77111825D01*
X95160811Y-76826269D01*
X95315814Y-76452982D01*
X95315920Y-76331708D01*
X95644008Y-76659796D01*
X95643824Y-76871208D01*
X95798175Y-77244766D01*
X96083731Y-77530821D01*
X96457018Y-77685824D01*
X96861208Y-77686176D01*
X97234766Y-77531825D01*
X97520821Y-77246269D01*
X97675824Y-76872982D01*
X97676163Y-76482971D01*
X97735261Y-76482971D01*
X97892498Y-76863515D01*
X98183394Y-77154919D01*
X98563663Y-77312820D01*
X98975411Y-77313179D01*
X99355955Y-77155942D01*
X99647359Y-76865046D01*
X99805260Y-76484777D01*
X99805619Y-76073029D01*
X99648382Y-75692485D01*
X99357486Y-75401081D01*
X98977217Y-75243180D01*
X98565469Y-75242821D01*
X98184925Y-75400058D01*
X97893521Y-75690954D01*
X97735620Y-76071223D01*
X97735261Y-76482971D01*
X97676163Y-76482971D01*
X97676176Y-76468792D01*
X97521825Y-76095234D01*
X97236269Y-75809179D01*
X96862982Y-75654176D01*
X96649778Y-75653990D01*
X95441200Y-74445412D01*
X95441200Y-72555629D01*
X95590821Y-72406269D01*
X95745824Y-72032982D01*
X95745901Y-71944241D01*
X96015456Y-71944241D01*
X96169807Y-72317799D01*
X96455363Y-72603854D01*
X96828650Y-72758857D01*
X97232840Y-72759209D01*
X97606398Y-72604858D01*
X97828531Y-72383112D01*
X97877018Y-72403246D01*
X98281208Y-72403598D01*
X98654766Y-72249247D01*
X98940821Y-71963691D01*
X99095824Y-71590404D01*
X99096176Y-71186214D01*
X98941825Y-70812656D01*
X98656269Y-70526601D01*
X98282982Y-70371598D01*
X97878792Y-70371246D01*
X97505234Y-70525597D01*
X97283101Y-70747343D01*
X97234614Y-70727209D01*
X96830424Y-70726857D01*
X96456866Y-70881208D01*
X96170811Y-71166764D01*
X96015808Y-71540051D01*
X96015456Y-71944241D01*
X95745901Y-71944241D01*
X95746176Y-71628792D01*
X95591825Y-71255234D01*
X95306269Y-70969179D01*
X94932982Y-70814176D01*
X94651176Y-70813931D01*
X94822526Y-70642879D01*
X94840162Y-70600408D01*
X95012662Y-70600558D01*
X95386220Y-70446207D01*
X95672275Y-70160651D01*
X95827278Y-69787364D01*
X95827630Y-69383174D01*
X95673279Y-69009616D01*
X95387723Y-68723561D01*
X95014436Y-68568558D01*
X94610246Y-68568206D01*
X94236688Y-68722557D01*
X93950633Y-69008113D01*
X93932997Y-69050584D01*
X93760497Y-69050434D01*
X93386939Y-69204785D01*
X93100884Y-69490341D01*
X92945881Y-69863628D01*
X92945878Y-69866951D01*
X92829497Y-69944715D01*
X92582262Y-70191950D01*
X92475992Y-70085494D01*
X92102705Y-69930491D01*
X91698515Y-69930139D01*
X91324957Y-70084490D01*
X91038902Y-70370046D01*
X90883899Y-70743333D01*
X90883777Y-70883354D01*
X90228158Y-70883354D01*
X89980393Y-70932637D01*
X89963158Y-70944153D01*
X89945923Y-70932637D01*
X89698158Y-70883354D01*
X89316506Y-70883354D01*
X88834436Y-70401284D01*
X88603707Y-70247115D01*
X88331542Y-70192978D01*
X87936052Y-70192978D01*
X88075824Y-69856372D01*
X88076176Y-69452182D01*
X87921825Y-69078624D01*
X87636269Y-68792569D01*
X87262982Y-68637566D01*
X86858792Y-68637214D01*
X86485234Y-68791565D01*
X86199179Y-69077121D01*
X86044176Y-69450408D01*
X86043824Y-69854598D01*
X86198175Y-70228156D01*
X86442469Y-70472877D01*
X86437850Y-70474785D01*
X86151795Y-70760341D01*
X85996792Y-71133628D01*
X85996440Y-71537818D01*
X86127126Y-71854101D01*
X86025680Y-72098408D01*
X86025331Y-72499543D01*
X84421712Y-70895924D01*
X84711208Y-70896176D01*
X85084766Y-70741825D01*
X85370821Y-70456269D01*
X85525824Y-70082982D01*
X85526176Y-69678792D01*
X85371825Y-69305234D01*
X85086269Y-69019179D01*
X85035531Y-68998111D01*
X85035689Y-68816810D01*
X84881338Y-68443252D01*
X84595782Y-68157197D01*
X84337991Y-68050152D01*
X84769797Y-67618347D01*
X84981208Y-67618531D01*
X85354766Y-67464180D01*
X85640821Y-67178624D01*
X85795824Y-66805337D01*
X85796176Y-66401147D01*
X85641825Y-66027589D01*
X85356269Y-65741534D01*
X85024616Y-65603819D01*
X84871363Y-65232919D01*
X84585807Y-64946864D01*
X84212520Y-64791861D01*
X83808330Y-64791509D01*
X83585535Y-64883566D01*
X83510978Y-64703125D01*
X83225422Y-64417070D01*
X82852135Y-64262067D01*
X82447945Y-64261715D01*
X82074387Y-64416066D01*
X81788332Y-64701622D01*
X81633329Y-65074909D01*
X81633086Y-65353807D01*
X81611091Y-65386725D01*
X81567380Y-65606477D01*
X81556954Y-65658890D01*
X81556954Y-68293997D01*
X81358792Y-68293824D01*
X80985234Y-68448175D01*
X80933151Y-68500167D01*
X80686638Y-68131235D01*
X80581644Y-68061080D01*
X80686638Y-67990925D01*
X80971695Y-67564309D01*
X81071793Y-67061080D01*
X80971695Y-66557851D01*
X80686638Y-66131235D01*
X80581644Y-66061080D01*
X80686638Y-65990925D01*
X80971695Y-65564309D01*
X81071793Y-65061080D01*
X80971695Y-64557851D01*
X80686638Y-64131235D01*
X80581644Y-64061080D01*
X80686638Y-63990925D01*
X80864043Y-63725420D01*
X84513824Y-63725420D01*
X84668175Y-64098978D01*
X84953731Y-64385033D01*
X85327018Y-64540036D01*
X85731208Y-64540388D01*
X86104766Y-64386037D01*
X86390821Y-64100481D01*
X86545824Y-63727194D01*
X86546176Y-63323004D01*
X86391825Y-62949446D01*
X86106269Y-62663391D01*
X85732982Y-62508388D01*
X85328792Y-62508036D01*
X84955234Y-62662387D01*
X84669179Y-62947943D01*
X84514176Y-63321230D01*
X84513824Y-63725420D01*
X80864043Y-63725420D01*
X80971695Y-63564309D01*
X81071793Y-63061080D01*
X80971695Y-62557851D01*
X80686638Y-62131235D01*
X80591890Y-62067926D01*
X86963824Y-62067926D01*
X87118175Y-62441484D01*
X87403731Y-62727539D01*
X87777018Y-62882542D01*
X88181208Y-62882894D01*
X88554766Y-62728543D01*
X88840821Y-62442987D01*
X88995824Y-62069700D01*
X88996176Y-61665510D01*
X88841825Y-61291952D01*
X88556269Y-61005897D01*
X88182982Y-60850894D01*
X87778792Y-60850542D01*
X87405234Y-61004893D01*
X87119179Y-61290449D01*
X86964176Y-61663736D01*
X86963824Y-62067926D01*
X80591890Y-62067926D01*
X80581644Y-62061080D01*
X80686638Y-61990925D01*
X80971695Y-61564309D01*
X81071793Y-61061080D01*
X80971695Y-60557851D01*
X80736364Y-60205655D01*
X80746489Y-60198889D01*
X80886837Y-59988845D01*
X80914214Y-59851208D01*
X82713824Y-59851208D01*
X82868175Y-60224766D01*
X83153731Y-60510821D01*
X83527018Y-60665824D01*
X83931208Y-60666176D01*
X84209451Y-60551208D01*
X90333824Y-60551208D01*
X90488175Y-60924766D01*
X90773731Y-61210821D01*
X91147018Y-61365824D01*
X91551208Y-61366176D01*
X91924766Y-61211825D01*
X91972100Y-61164574D01*
X91971843Y-61459227D01*
X92126194Y-61832785D01*
X92411750Y-62118840D01*
X92785037Y-62273843D01*
X92979357Y-62274012D01*
X93058175Y-62464766D01*
X93343731Y-62750821D01*
X93717018Y-62905824D01*
X94121208Y-62906176D01*
X94478317Y-62758621D01*
X94456658Y-62810783D01*
X94456306Y-63214973D01*
X94610657Y-63588531D01*
X94755018Y-63733144D01*
X94754670Y-64132902D01*
X94909021Y-64506460D01*
X94978887Y-64576448D01*
X94868133Y-64687008D01*
X94713130Y-65060295D01*
X94712778Y-65464485D01*
X94867129Y-65838043D01*
X95152685Y-66124098D01*
X95525972Y-66279101D01*
X95930162Y-66279453D01*
X96303720Y-66125102D01*
X96589775Y-65839546D01*
X96744778Y-65466259D01*
X96745130Y-65062069D01*
X96590779Y-64688511D01*
X96520913Y-64618523D01*
X96631667Y-64507963D01*
X96701640Y-64339449D01*
X96900153Y-64538309D01*
X97273440Y-64693312D01*
X97677630Y-64693664D01*
X98051188Y-64539313D01*
X98337243Y-64253757D01*
X98492246Y-63880470D01*
X98492598Y-63476280D01*
X98338247Y-63102722D01*
X98308605Y-63073028D01*
X98395824Y-62862982D01*
X98396176Y-62458792D01*
X98241825Y-62085234D01*
X97956269Y-61799179D01*
X97582982Y-61644176D01*
X97178792Y-61643824D01*
X96805234Y-61798175D01*
X96519179Y-62083731D01*
X96364176Y-62457018D01*
X96364129Y-62511173D01*
X96334307Y-62438999D01*
X96048751Y-62152944D01*
X95675464Y-61997941D01*
X95271274Y-61997589D01*
X94914165Y-62145144D01*
X94935824Y-62092982D01*
X94936176Y-61688792D01*
X94781825Y-61315234D01*
X94593926Y-61127006D01*
X95023824Y-61127006D01*
X95178175Y-61500564D01*
X95463731Y-61786619D01*
X95837018Y-61941622D01*
X96241208Y-61941974D01*
X96614766Y-61787623D01*
X96900821Y-61502067D01*
X97055824Y-61128780D01*
X97056176Y-60724590D01*
X96901825Y-60351032D01*
X96616269Y-60064977D01*
X96242982Y-59909974D01*
X95838792Y-59909622D01*
X95465234Y-60063973D01*
X95179179Y-60349529D01*
X95024176Y-60722816D01*
X95023824Y-61127006D01*
X94593926Y-61127006D01*
X94496269Y-61029179D01*
X94122982Y-60874176D01*
X93928662Y-60874007D01*
X93849844Y-60683253D01*
X93564288Y-60397198D01*
X93191001Y-60242195D01*
X92786811Y-60241843D01*
X92413253Y-60396194D01*
X92365919Y-60443445D01*
X92366176Y-60148792D01*
X92211825Y-59775234D01*
X91926269Y-59489179D01*
X91552982Y-59334176D01*
X91148792Y-59333824D01*
X90775234Y-59488175D01*
X90489179Y-59773731D01*
X90334176Y-60147018D01*
X90333824Y-60551208D01*
X84209451Y-60551208D01*
X84304766Y-60511825D01*
X84590821Y-60226269D01*
X84745824Y-59852982D01*
X84746176Y-59448792D01*
X84591825Y-59075234D01*
X84306269Y-58789179D01*
X83932982Y-58634176D01*
X83528792Y-58633824D01*
X83155234Y-58788175D01*
X82869179Y-59073731D01*
X82714176Y-59447018D01*
X82713824Y-59851208D01*
X80914214Y-59851208D01*
X80936120Y-59741080D01*
X80936120Y-58381080D01*
X80886837Y-58133315D01*
X80746489Y-57923271D01*
X80536445Y-57782923D01*
X80288680Y-57733640D01*
X79514475Y-57733640D01*
X80155280Y-57182328D01*
X83770982Y-57182328D01*
X83925333Y-57555886D01*
X84210889Y-57841941D01*
X84584176Y-57996944D01*
X84988366Y-57997296D01*
X85361924Y-57842945D01*
X85647979Y-57557389D01*
X85802982Y-57184102D01*
X85803334Y-56779912D01*
X85648983Y-56406354D01*
X85363427Y-56120299D01*
X84990140Y-55965296D01*
X84585950Y-55964944D01*
X84212392Y-56119295D01*
X83926337Y-56404851D01*
X83771334Y-56778138D01*
X83770982Y-57182328D01*
X80155280Y-57182328D01*
X81283946Y-56211289D01*
X81283824Y-56351208D01*
X81438175Y-56724766D01*
X81723731Y-57010821D01*
X82097018Y-57165824D01*
X82501208Y-57166176D01*
X82874766Y-57011825D01*
X83160821Y-56726269D01*
X83315824Y-56352982D01*
X83316176Y-55948792D01*
X83161825Y-55575234D01*
X82876269Y-55289179D01*
X82525187Y-55143396D01*
X86231195Y-51954960D01*
X94922965Y-51954960D01*
X101654144Y-57746080D01*
X101654144Y-57746080D01*
G37*
X101654144Y-57746080D02*
X101460567Y-57746080D01*
X100957338Y-57846178D01*
X100530722Y-58131235D01*
X100245665Y-58557851D01*
X100145567Y-59061080D01*
X100245665Y-59564309D01*
X100530722Y-59990925D01*
X100635716Y-60061080D01*
X100530722Y-60131235D01*
X100245665Y-60557851D01*
X100145567Y-61061080D01*
X100245665Y-61564309D01*
X100530722Y-61990925D01*
X100635716Y-62061080D01*
X100530722Y-62131235D01*
X100245665Y-62557851D01*
X100145567Y-63061080D01*
X100245665Y-63564309D01*
X100530722Y-63990925D01*
X100635716Y-64061080D01*
X100530722Y-64131235D01*
X100245665Y-64557851D01*
X100145567Y-65061080D01*
X100245665Y-65564309D01*
X100530722Y-65990925D01*
X100635716Y-66061080D01*
X100530722Y-66131235D01*
X100245665Y-66557851D01*
X100145567Y-67061080D01*
X100245665Y-67564309D01*
X100530722Y-67990925D01*
X100635716Y-68061080D01*
X100530722Y-68131235D01*
X100245665Y-68557851D01*
X100145567Y-69061080D01*
X100245665Y-69564309D01*
X100530722Y-69990925D01*
X100635716Y-70061080D01*
X100530722Y-70131235D01*
X100245665Y-70557851D01*
X100145567Y-71061080D01*
X100245665Y-71564309D01*
X100530722Y-71990925D01*
X100635716Y-72061080D01*
X100530722Y-72131235D01*
X100245665Y-72557851D01*
X100145567Y-73061080D01*
X100245665Y-73564309D01*
X100530722Y-73990925D01*
X100635716Y-74061080D01*
X100530722Y-74131235D01*
X100245665Y-74557851D01*
X100145567Y-75061080D01*
X100245665Y-75564309D01*
X100530722Y-75990925D01*
X100635716Y-76061080D01*
X100530722Y-76131235D01*
X100245665Y-76557851D01*
X100145567Y-77061080D01*
X100245665Y-77564309D01*
X100530722Y-77990925D01*
X100836081Y-78194960D01*
X94028538Y-78194960D01*
X94106315Y-78078559D01*
X94155598Y-77830794D01*
X94155598Y-77294971D01*
X94191361Y-77287857D01*
X94224170Y-77265935D01*
X94501198Y-77266176D01*
X94874756Y-77111825D01*
X95160811Y-76826269D01*
X95315814Y-76452982D01*
X95315920Y-76331708D01*
X95644008Y-76659796D01*
X95643824Y-76871208D01*
X95798175Y-77244766D01*
X96083731Y-77530821D01*
X96457018Y-77685824D01*
X96861208Y-77686176D01*
X97234766Y-77531825D01*
X97520821Y-77246269D01*
X97675824Y-76872982D01*
X97676163Y-76482971D01*
X97735261Y-76482971D01*
X97892498Y-76863515D01*
X98183394Y-77154919D01*
X98563663Y-77312820D01*
X98975411Y-77313179D01*
X99355955Y-77155942D01*
X99647359Y-76865046D01*
X99805260Y-76484777D01*
X99805619Y-76073029D01*
X99648382Y-75692485D01*
X99357486Y-75401081D01*
X98977217Y-75243180D01*
X98565469Y-75242821D01*
X98184925Y-75400058D01*
X97893521Y-75690954D01*
X97735620Y-76071223D01*
X97735261Y-76482971D01*
X97676163Y-76482971D01*
X97676176Y-76468792D01*
X97521825Y-76095234D01*
X97236269Y-75809179D01*
X96862982Y-75654176D01*
X96649778Y-75653990D01*
X95441200Y-74445412D01*
X95441200Y-72555629D01*
X95590821Y-72406269D01*
X95745824Y-72032982D01*
X95745901Y-71944241D01*
X96015456Y-71944241D01*
X96169807Y-72317799D01*
X96455363Y-72603854D01*
X96828650Y-72758857D01*
X97232840Y-72759209D01*
X97606398Y-72604858D01*
X97828531Y-72383112D01*
X97877018Y-72403246D01*
X98281208Y-72403598D01*
X98654766Y-72249247D01*
X98940821Y-71963691D01*
X99095824Y-71590404D01*
X99096176Y-71186214D01*
X98941825Y-70812656D01*
X98656269Y-70526601D01*
X98282982Y-70371598D01*
X97878792Y-70371246D01*
X97505234Y-70525597D01*
X97283101Y-70747343D01*
X97234614Y-70727209D01*
X96830424Y-70726857D01*
X96456866Y-70881208D01*
X96170811Y-71166764D01*
X96015808Y-71540051D01*
X96015456Y-71944241D01*
X95745901Y-71944241D01*
X95746176Y-71628792D01*
X95591825Y-71255234D01*
X95306269Y-70969179D01*
X94932982Y-70814176D01*
X94651176Y-70813931D01*
X94822526Y-70642879D01*
X94840162Y-70600408D01*
X95012662Y-70600558D01*
X95386220Y-70446207D01*
X95672275Y-70160651D01*
X95827278Y-69787364D01*
X95827630Y-69383174D01*
X95673279Y-69009616D01*
X95387723Y-68723561D01*
X95014436Y-68568558D01*
X94610246Y-68568206D01*
X94236688Y-68722557D01*
X93950633Y-69008113D01*
X93932997Y-69050584D01*
X93760497Y-69050434D01*
X93386939Y-69204785D01*
X93100884Y-69490341D01*
X92945881Y-69863628D01*
X92945878Y-69866951D01*
X92829497Y-69944715D01*
X92582262Y-70191950D01*
X92475992Y-70085494D01*
X92102705Y-69930491D01*
X91698515Y-69930139D01*
X91324957Y-70084490D01*
X91038902Y-70370046D01*
X90883899Y-70743333D01*
X90883777Y-70883354D01*
X90228158Y-70883354D01*
X89980393Y-70932637D01*
X89963158Y-70944153D01*
X89945923Y-70932637D01*
X89698158Y-70883354D01*
X89316506Y-70883354D01*
X88834436Y-70401284D01*
X88603707Y-70247115D01*
X88331542Y-70192978D01*
X87936052Y-70192978D01*
X88075824Y-69856372D01*
X88076176Y-69452182D01*
X87921825Y-69078624D01*
X87636269Y-68792569D01*
X87262982Y-68637566D01*
X86858792Y-68637214D01*
X86485234Y-68791565D01*
X86199179Y-69077121D01*
X86044176Y-69450408D01*
X86043824Y-69854598D01*
X86198175Y-70228156D01*
X86442469Y-70472877D01*
X86437850Y-70474785D01*
X86151795Y-70760341D01*
X85996792Y-71133628D01*
X85996440Y-71537818D01*
X86127126Y-71854101D01*
X86025680Y-72098408D01*
X86025331Y-72499543D01*
X84421712Y-70895924D01*
X84711208Y-70896176D01*
X85084766Y-70741825D01*
X85370821Y-70456269D01*
X85525824Y-70082982D01*
X85526176Y-69678792D01*
X85371825Y-69305234D01*
X85086269Y-69019179D01*
X85035531Y-68998111D01*
X85035689Y-68816810D01*
X84881338Y-68443252D01*
X84595782Y-68157197D01*
X84337991Y-68050152D01*
X84769797Y-67618347D01*
X84981208Y-67618531D01*
X85354766Y-67464180D01*
X85640821Y-67178624D01*
X85795824Y-66805337D01*
X85796176Y-66401147D01*
X85641825Y-66027589D01*
X85356269Y-65741534D01*
X85024616Y-65603819D01*
X84871363Y-65232919D01*
X84585807Y-64946864D01*
X84212520Y-64791861D01*
X83808330Y-64791509D01*
X83585535Y-64883566D01*
X83510978Y-64703125D01*
X83225422Y-64417070D01*
X82852135Y-64262067D01*
X82447945Y-64261715D01*
X82074387Y-64416066D01*
X81788332Y-64701622D01*
X81633329Y-65074909D01*
X81633086Y-65353807D01*
X81611091Y-65386725D01*
X81567380Y-65606477D01*
X81556954Y-65658890D01*
X81556954Y-68293997D01*
X81358792Y-68293824D01*
X80985234Y-68448175D01*
X80933151Y-68500167D01*
X80686638Y-68131235D01*
X80581644Y-68061080D01*
X80686638Y-67990925D01*
X80971695Y-67564309D01*
X81071793Y-67061080D01*
X80971695Y-66557851D01*
X80686638Y-66131235D01*
X80581644Y-66061080D01*
X80686638Y-65990925D01*
X80971695Y-65564309D01*
X81071793Y-65061080D01*
X80971695Y-64557851D01*
X80686638Y-64131235D01*
X80581644Y-64061080D01*
X80686638Y-63990925D01*
X80864043Y-63725420D01*
X84513824Y-63725420D01*
X84668175Y-64098978D01*
X84953731Y-64385033D01*
X85327018Y-64540036D01*
X85731208Y-64540388D01*
X86104766Y-64386037D01*
X86390821Y-64100481D01*
X86545824Y-63727194D01*
X86546176Y-63323004D01*
X86391825Y-62949446D01*
X86106269Y-62663391D01*
X85732982Y-62508388D01*
X85328792Y-62508036D01*
X84955234Y-62662387D01*
X84669179Y-62947943D01*
X84514176Y-63321230D01*
X84513824Y-63725420D01*
X80864043Y-63725420D01*
X80971695Y-63564309D01*
X81071793Y-63061080D01*
X80971695Y-62557851D01*
X80686638Y-62131235D01*
X80591890Y-62067926D01*
X86963824Y-62067926D01*
X87118175Y-62441484D01*
X87403731Y-62727539D01*
X87777018Y-62882542D01*
X88181208Y-62882894D01*
X88554766Y-62728543D01*
X88840821Y-62442987D01*
X88995824Y-62069700D01*
X88996176Y-61665510D01*
X88841825Y-61291952D01*
X88556269Y-61005897D01*
X88182982Y-60850894D01*
X87778792Y-60850542D01*
X87405234Y-61004893D01*
X87119179Y-61290449D01*
X86964176Y-61663736D01*
X86963824Y-62067926D01*
X80591890Y-62067926D01*
X80581644Y-62061080D01*
X80686638Y-61990925D01*
X80971695Y-61564309D01*
X81071793Y-61061080D01*
X80971695Y-60557851D01*
X80736364Y-60205655D01*
X80746489Y-60198889D01*
X80886837Y-59988845D01*
X80914214Y-59851208D01*
X82713824Y-59851208D01*
X82868175Y-60224766D01*
X83153731Y-60510821D01*
X83527018Y-60665824D01*
X83931208Y-60666176D01*
X84209451Y-60551208D01*
X90333824Y-60551208D01*
X90488175Y-60924766D01*
X90773731Y-61210821D01*
X91147018Y-61365824D01*
X91551208Y-61366176D01*
X91924766Y-61211825D01*
X91972100Y-61164574D01*
X91971843Y-61459227D01*
X92126194Y-61832785D01*
X92411750Y-62118840D01*
X92785037Y-62273843D01*
X92979357Y-62274012D01*
X93058175Y-62464766D01*
X93343731Y-62750821D01*
X93717018Y-62905824D01*
X94121208Y-62906176D01*
X94478317Y-62758621D01*
X94456658Y-62810783D01*
X94456306Y-63214973D01*
X94610657Y-63588531D01*
X94755018Y-63733144D01*
X94754670Y-64132902D01*
X94909021Y-64506460D01*
X94978887Y-64576448D01*
X94868133Y-64687008D01*
X94713130Y-65060295D01*
X94712778Y-65464485D01*
X94867129Y-65838043D01*
X95152685Y-66124098D01*
X95525972Y-66279101D01*
X95930162Y-66279453D01*
X96303720Y-66125102D01*
X96589775Y-65839546D01*
X96744778Y-65466259D01*
X96745130Y-65062069D01*
X96590779Y-64688511D01*
X96520913Y-64618523D01*
X96631667Y-64507963D01*
X96701640Y-64339449D01*
X96900153Y-64538309D01*
X97273440Y-64693312D01*
X97677630Y-64693664D01*
X98051188Y-64539313D01*
X98337243Y-64253757D01*
X98492246Y-63880470D01*
X98492598Y-63476280D01*
X98338247Y-63102722D01*
X98308605Y-63073028D01*
X98395824Y-62862982D01*
X98396176Y-62458792D01*
X98241825Y-62085234D01*
X97956269Y-61799179D01*
X97582982Y-61644176D01*
X97178792Y-61643824D01*
X96805234Y-61798175D01*
X96519179Y-62083731D01*
X96364176Y-62457018D01*
X96364129Y-62511173D01*
X96334307Y-62438999D01*
X96048751Y-62152944D01*
X95675464Y-61997941D01*
X95271274Y-61997589D01*
X94914165Y-62145144D01*
X94935824Y-62092982D01*
X94936176Y-61688792D01*
X94781825Y-61315234D01*
X94593926Y-61127006D01*
X95023824Y-61127006D01*
X95178175Y-61500564D01*
X95463731Y-61786619D01*
X95837018Y-61941622D01*
X96241208Y-61941974D01*
X96614766Y-61787623D01*
X96900821Y-61502067D01*
X97055824Y-61128780D01*
X97056176Y-60724590D01*
X96901825Y-60351032D01*
X96616269Y-60064977D01*
X96242982Y-59909974D01*
X95838792Y-59909622D01*
X95465234Y-60063973D01*
X95179179Y-60349529D01*
X95024176Y-60722816D01*
X95023824Y-61127006D01*
X94593926Y-61127006D01*
X94496269Y-61029179D01*
X94122982Y-60874176D01*
X93928662Y-60874007D01*
X93849844Y-60683253D01*
X93564288Y-60397198D01*
X93191001Y-60242195D01*
X92786811Y-60241843D01*
X92413253Y-60396194D01*
X92365919Y-60443445D01*
X92366176Y-60148792D01*
X92211825Y-59775234D01*
X91926269Y-59489179D01*
X91552982Y-59334176D01*
X91148792Y-59333824D01*
X90775234Y-59488175D01*
X90489179Y-59773731D01*
X90334176Y-60147018D01*
X90333824Y-60551208D01*
X84209451Y-60551208D01*
X84304766Y-60511825D01*
X84590821Y-60226269D01*
X84745824Y-59852982D01*
X84746176Y-59448792D01*
X84591825Y-59075234D01*
X84306269Y-58789179D01*
X83932982Y-58634176D01*
X83528792Y-58633824D01*
X83155234Y-58788175D01*
X82869179Y-59073731D01*
X82714176Y-59447018D01*
X82713824Y-59851208D01*
X80914214Y-59851208D01*
X80936120Y-59741080D01*
X80936120Y-58381080D01*
X80886837Y-58133315D01*
X80746489Y-57923271D01*
X80536445Y-57782923D01*
X80288680Y-57733640D01*
X79514475Y-57733640D01*
X80155280Y-57182328D01*
X83770982Y-57182328D01*
X83925333Y-57555886D01*
X84210889Y-57841941D01*
X84584176Y-57996944D01*
X84988366Y-57997296D01*
X85361924Y-57842945D01*
X85647979Y-57557389D01*
X85802982Y-57184102D01*
X85803334Y-56779912D01*
X85648983Y-56406354D01*
X85363427Y-56120299D01*
X84990140Y-55965296D01*
X84585950Y-55964944D01*
X84212392Y-56119295D01*
X83926337Y-56404851D01*
X83771334Y-56778138D01*
X83770982Y-57182328D01*
X80155280Y-57182328D01*
X81283946Y-56211289D01*
X81283824Y-56351208D01*
X81438175Y-56724766D01*
X81723731Y-57010821D01*
X82097018Y-57165824D01*
X82501208Y-57166176D01*
X82874766Y-57011825D01*
X83160821Y-56726269D01*
X83315824Y-56352982D01*
X83316176Y-55948792D01*
X83161825Y-55575234D01*
X82876269Y-55289179D01*
X82525187Y-55143396D01*
X86231195Y-51954960D01*
X94922965Y-51954960D01*
X101654144Y-57746080D01*
G36*
X94040529Y-71082679D02*
X93869179Y-71253731D01*
X93714176Y-71627018D01*
X93713824Y-72031208D01*
X93868175Y-72404766D01*
X94018800Y-72555654D01*
X94018800Y-74740000D01*
X94072937Y-75012165D01*
X94221117Y-75233931D01*
X94116422Y-75233839D01*
X94106315Y-75183029D01*
X93965967Y-74972985D01*
X93755923Y-74832637D01*
X93508158Y-74783354D01*
X92768158Y-74783354D01*
X92520393Y-74832637D01*
X92503158Y-74844153D01*
X92485923Y-74832637D01*
X92238158Y-74783354D01*
X91856507Y-74783354D01*
X91651387Y-74578234D01*
X92238158Y-74578234D01*
X92485923Y-74528951D01*
X92695967Y-74388603D01*
X92836315Y-74178559D01*
X92885598Y-73930794D01*
X92885598Y-71900190D01*
X93638469Y-71147319D01*
X93852871Y-71104672D01*
X93885986Y-71082545D01*
X94040529Y-71082679D01*
X94040529Y-71082679D01*
G37*
X94040529Y-71082679D02*
X93869179Y-71253731D01*
X93714176Y-71627018D01*
X93713824Y-72031208D01*
X93868175Y-72404766D01*
X94018800Y-72555654D01*
X94018800Y-74740000D01*
X94072937Y-75012165D01*
X94221117Y-75233931D01*
X94116422Y-75233839D01*
X94106315Y-75183029D01*
X93965967Y-74972985D01*
X93755923Y-74832637D01*
X93508158Y-74783354D01*
X92768158Y-74783354D01*
X92520393Y-74832637D01*
X92503158Y-74844153D01*
X92485923Y-74832637D01*
X92238158Y-74783354D01*
X91856507Y-74783354D01*
X91651387Y-74578234D01*
X92238158Y-74578234D01*
X92485923Y-74528951D01*
X92695967Y-74388603D01*
X92836315Y-74178559D01*
X92885598Y-73930794D01*
X92885598Y-71900190D01*
X93638469Y-71147319D01*
X93852871Y-71104672D01*
X93885986Y-71082545D01*
X94040529Y-71082679D01*
M02*
