G04 #@! TF.GenerationSoftware,KiCad,Pcbnew,no-vcs-found-0f0cb64~58~ubuntu16.10.1*
G04 #@! TF.CreationDate,2017-03-28T21:56:20+02:00*
G04 #@! TF.ProjectId,cc2538module,6363323533386D6F64756C652E6B6963,rev?*
G04 #@! TF.FileFunction,Legend,Top*
G04 #@! TF.FilePolarity,Positive*
%FSLAX46Y46*%
G04 Gerber Fmt 4.6, Leading zero omitted, Abs format (unit mm)*
G04 Created by KiCad (PCBNEW no-vcs-found-0f0cb64~58~ubuntu16.10.1) date Tue Mar 28 21:56:20 2017*
%MOMM*%
%LPD*%
G01*
G04 APERTURE LIST*
%ADD10C,0.150000*%
%ADD11C,0.120000*%
G04 APERTURE END LIST*
D10*
X83530000Y-56530000D02*
G75*
G03X83530000Y-56530000I-200000J0D01*
G01*
X82080000Y-57230000D02*
X82080000Y-58230000D01*
X82080000Y-58230000D02*
X83580000Y-58230000D01*
X83580000Y-58230000D02*
X83580000Y-57230000D01*
X83580000Y-57230000D02*
X82080000Y-57230000D01*
X78414174Y-57805224D02*
X78414174Y-78885224D01*
X85904174Y-51275224D02*
X78414174Y-57805224D01*
X95104174Y-51275224D02*
X85904174Y-51275224D01*
X102694174Y-57805224D02*
X95104174Y-51275224D01*
X102794174Y-78885224D02*
X102794174Y-57805224D01*
X78414174Y-78885224D02*
X102794174Y-78885224D01*
X86613000Y-70350920D02*
X86613000Y-70050920D01*
X86613000Y-62350920D02*
X87013000Y-62350920D01*
X86613000Y-62750920D02*
X86613000Y-62350920D01*
X94613000Y-70350920D02*
X94613000Y-70050920D01*
X94313000Y-70350920D02*
X94613000Y-70350920D01*
X94613000Y-62750920D02*
X94613000Y-62350920D01*
X94613000Y-62350920D02*
X94213000Y-62350920D01*
D11*
X89300000Y-78250000D02*
X89300000Y-76800000D01*
X90200000Y-78250000D02*
X90200000Y-76800000D01*
X89300000Y-78250000D02*
X90200000Y-78250000D01*
X88050000Y-78250000D02*
X88950000Y-78250000D01*
X88950000Y-78250000D02*
X88950000Y-76800000D01*
X88050000Y-78250000D02*
X88050000Y-76800000D01*
X90550000Y-78260000D02*
X90550000Y-76810000D01*
X91450000Y-78260000D02*
X91450000Y-76810000D01*
X90550000Y-78260000D02*
X91450000Y-78260000D01*
X91800000Y-78290000D02*
X92700000Y-78290000D01*
X92700000Y-78290000D02*
X92700000Y-76840000D01*
X91800000Y-78290000D02*
X91800000Y-76840000D01*
X99870440Y-77928000D02*
X100170440Y-77928000D01*
X100170440Y-77928000D02*
X100170440Y-74628000D01*
X100170440Y-74628000D02*
X99870440Y-74628000D01*
X97670440Y-77928000D02*
X97370440Y-77928000D01*
X97370440Y-77928000D02*
X97370440Y-74628000D01*
X97370440Y-74628000D02*
X97670440Y-74628000D01*
X81277000Y-74628000D02*
X81577000Y-74628000D01*
X81277000Y-77928000D02*
X81277000Y-74628000D01*
X81577000Y-77928000D02*
X81277000Y-77928000D01*
X84077000Y-74628000D02*
X83777000Y-74628000D01*
X84077000Y-77928000D02*
X84077000Y-74628000D01*
X83777000Y-77928000D02*
X84077000Y-77928000D01*
X83717928Y-62508560D02*
X81317928Y-62508560D01*
X83717928Y-64108560D02*
X83717928Y-62508560D01*
X81317928Y-64108560D02*
X83717928Y-64108560D01*
X97737973Y-58477713D02*
X97737973Y-55777713D01*
X95437973Y-58477713D02*
X97737973Y-58477713D01*
D10*
X89220000Y-58400000D02*
X89220000Y-58000000D01*
X89220000Y-58000000D02*
X88820000Y-58000000D01*
X88820000Y-58000000D02*
X88820000Y-58400000D01*
X88820000Y-58400000D02*
X89220000Y-58400000D01*
X88420000Y-57800000D02*
X89620000Y-57800000D01*
X89620000Y-57800000D02*
X89620000Y-59800000D01*
X89620000Y-59800000D02*
X88420000Y-59800000D01*
X88420000Y-59800000D02*
X88420000Y-57800000D01*
M02*
