G04 #@! TF.GenerationSoftware,KiCad,Pcbnew,no-vcs-found-96b3286~58~ubuntu16.10.1*
G04 #@! TF.CreationDate,2017-03-05T12:49:51+01:00*
G04 #@! TF.ProjectId,cc2538module,6363323533386D6F64756C652E6B6963,rev?*
G04 #@! TF.FileFunction,Soldermask,Top*
G04 #@! TF.FilePolarity,Negative*
%FSLAX46Y46*%
G04 Gerber Fmt 4.6, Leading zero omitted, Abs format (unit mm)*
G04 Created by KiCad (PCBNEW no-vcs-found-96b3286~58~ubuntu16.10.1) date Sun Mar  5 12:49:51 2017*
%MOMM*%
%LPD*%
G01*
G04 APERTURE LIST*
%ADD10C,0.150000*%
%ADD11O,2.000000X1.760000*%
%ADD12R,1.760000X1.760000*%
%ADD13R,0.900000X1.000000*%
%ADD14R,1.100000X1.000000*%
%ADD15R,2.100000X1.300000*%
%ADD16C,1.200000*%
%ADD17R,1.000000X0.900000*%
%ADD18R,1.000000X1.500000*%
%ADD19R,1.200000X1.300000*%
%ADD20R,1.800000X1.800000*%
%ADD21R,1.200000X0.600000*%
%ADD22R,0.600000X1.200000*%
%ADD23R,1.000000X0.800000*%
%ADD24R,0.800000X1.000000*%
%ADD25R,1.550000X2.900000*%
%ADD26R,1.550000X1.600000*%
%ADD27R,1.600000X2.900000*%
%ADD28R,1.400000X0.750000*%
%ADD29R,1.000000X1.850000*%
%ADD30R,0.621600X0.401600*%
G04 APERTURE END LIST*
D10*
D11*
X101608680Y-77061080D03*
X101608680Y-75061080D03*
X101608680Y-73061080D03*
X101608680Y-71061080D03*
X101608680Y-69061080D03*
X101608680Y-67061080D03*
X101608680Y-65061080D03*
X101608680Y-63061080D03*
X101608680Y-61061080D03*
X101608680Y-59061080D03*
D12*
X79608680Y-59061080D03*
D11*
X79608680Y-61061080D03*
X79608680Y-63061080D03*
X79608680Y-65061080D03*
X79608680Y-67061080D03*
X79608680Y-69061080D03*
X79608680Y-71061080D03*
X79608680Y-73061080D03*
X79608680Y-75061080D03*
X79608680Y-77061080D03*
X79608680Y-77061080D03*
X79608680Y-75061080D03*
X79608680Y-73061080D03*
X79608680Y-71061080D03*
X79608680Y-69061080D03*
X79608680Y-67061080D03*
X79608680Y-65061080D03*
X79608680Y-63061080D03*
X79608680Y-61061080D03*
D12*
X79608680Y-59061080D03*
D11*
X101608680Y-59061080D03*
X101608680Y-61061080D03*
X101608680Y-63061080D03*
X101608680Y-65061080D03*
X101608680Y-67061080D03*
X101608680Y-69061080D03*
X101608680Y-71061080D03*
X101608680Y-73061080D03*
X101608680Y-75061080D03*
X101608680Y-77061080D03*
X101608680Y-77061080D03*
X101608680Y-75061080D03*
X101608680Y-73061080D03*
X101608680Y-71061080D03*
X101608680Y-69061080D03*
X101608680Y-67061080D03*
X101608680Y-65061080D03*
X101608680Y-63061080D03*
X101608680Y-61061080D03*
X101608680Y-59061080D03*
D12*
X79608680Y-59061080D03*
D11*
X79608680Y-61061080D03*
X79608680Y-63061080D03*
X79608680Y-65061080D03*
X79608680Y-67061080D03*
X79608680Y-69061080D03*
X79608680Y-71061080D03*
X79608680Y-73061080D03*
X79608680Y-75061080D03*
X79608680Y-77061080D03*
D13*
X96700000Y-74169580D03*
X96700000Y-73069580D03*
D14*
X89750000Y-77850000D03*
X89750000Y-76750000D03*
D11*
X79608680Y-77061080D03*
X79608680Y-75061080D03*
X79608680Y-73061080D03*
X79608680Y-71061080D03*
X79608680Y-69061080D03*
X79608680Y-67061080D03*
X79608680Y-65061080D03*
X79608680Y-63061080D03*
X79608680Y-61061080D03*
D12*
X79608680Y-59061080D03*
D11*
X101608680Y-59061080D03*
X101608680Y-61061080D03*
X101608680Y-63061080D03*
X101608680Y-65061080D03*
X101608680Y-67061080D03*
X101608680Y-69061080D03*
X101608680Y-71061080D03*
X101608680Y-73061080D03*
X101608680Y-75061080D03*
X101608680Y-77061080D03*
D14*
X88500000Y-76750000D03*
X88500000Y-77850000D03*
X91000000Y-77860000D03*
X91000000Y-76760000D03*
X92250000Y-76790000D03*
X92250000Y-77890000D03*
D15*
X98770440Y-77978000D03*
X98770440Y-74578000D03*
D16*
X98770440Y-76278000D03*
X82677000Y-76278000D03*
D15*
X82677000Y-74578000D03*
X82677000Y-77978000D03*
D13*
X98350000Y-62410000D03*
X98350000Y-61310000D03*
X94870000Y-60410000D03*
X94870000Y-59310000D03*
X84660000Y-77380000D03*
X84660000Y-76280000D03*
X86150000Y-69910000D03*
X86150000Y-71010000D03*
X94874973Y-56599213D03*
X94874973Y-57699213D03*
X83230000Y-60830000D03*
X83230000Y-61930000D03*
D17*
X85780000Y-61280000D03*
X84680000Y-61280000D03*
D13*
X84470000Y-58530000D03*
X84470000Y-57430000D03*
D17*
X81770000Y-59080000D03*
X82870000Y-59080000D03*
X93610000Y-71630000D03*
X92510000Y-71630000D03*
X95440000Y-69590000D03*
X96540000Y-69590000D03*
D13*
X98320000Y-63520000D03*
X98320000Y-64620000D03*
X85010000Y-70080000D03*
X85010000Y-71180000D03*
X93880000Y-59300000D03*
X93880000Y-60400000D03*
X92160000Y-59580000D03*
X92160000Y-58480000D03*
X84690000Y-62400000D03*
X84690000Y-63500000D03*
D17*
X85810000Y-60220000D03*
X84710000Y-60220000D03*
D13*
X81830000Y-60830000D03*
X81830000Y-61930000D03*
D18*
X81817928Y-63308560D03*
X83217928Y-63308560D03*
D19*
X96037973Y-57827713D03*
X96037973Y-56427713D03*
X97137973Y-56427713D03*
X97137973Y-57827713D03*
D20*
X92713000Y-67050920D03*
X92713000Y-68450920D03*
X92713000Y-65650920D03*
X92713000Y-64250920D03*
X91313000Y-67050920D03*
X91313000Y-68450920D03*
X91313000Y-65650920D03*
X91313000Y-64250920D03*
X89913000Y-67050920D03*
X89913000Y-68450920D03*
X89913000Y-65650920D03*
X89913000Y-64250920D03*
X88513000Y-64250920D03*
X88513000Y-65650920D03*
X88513000Y-67050920D03*
D21*
X87113000Y-65750920D03*
X87113000Y-63750920D03*
X87113000Y-64150920D03*
X87113000Y-64950920D03*
X87113000Y-65350920D03*
X87113000Y-64550920D03*
X87113000Y-68150920D03*
X87113000Y-66550920D03*
X87113000Y-67750920D03*
X87113000Y-67350920D03*
X87113000Y-66150920D03*
X87113000Y-66950920D03*
X87113000Y-68950920D03*
X87113000Y-68550920D03*
D22*
X93213000Y-62850920D03*
X92013000Y-62850920D03*
X92413000Y-62850920D03*
X92813000Y-62850920D03*
X90013000Y-62850920D03*
X90413000Y-62850920D03*
X91613000Y-62850920D03*
X91213000Y-62850920D03*
X90813000Y-62850920D03*
X88813000Y-62850920D03*
X89613000Y-62850920D03*
X89213000Y-62850920D03*
X88413000Y-62850920D03*
X88013000Y-62850920D03*
D21*
X94113000Y-63750920D03*
X94113000Y-64150920D03*
X94113000Y-64550920D03*
X94113000Y-64950920D03*
D22*
X93213000Y-69850920D03*
X92813000Y-69850920D03*
D20*
X88513000Y-68450920D03*
D21*
X94113000Y-65350920D03*
X94113000Y-65750920D03*
X94113000Y-66150920D03*
X94113000Y-66550920D03*
X94113000Y-66950920D03*
X94113000Y-67350920D03*
X94113000Y-67750920D03*
X94113000Y-68150920D03*
X94113000Y-68550920D03*
X94113000Y-68950920D03*
D22*
X92413000Y-69850920D03*
X92013000Y-69850920D03*
X91613000Y-69850920D03*
X91213000Y-69850920D03*
X90813000Y-69850920D03*
X90413000Y-69850920D03*
X90013000Y-69850920D03*
X89613000Y-69850920D03*
X89213000Y-69850920D03*
X88813000Y-69850920D03*
X88413000Y-69850920D03*
X88013000Y-69850920D03*
D23*
X96320000Y-62610000D03*
X96320000Y-61710000D03*
X84680000Y-75280000D03*
X84680000Y-74380000D03*
D24*
X85710000Y-62640000D03*
X86610000Y-62640000D03*
D23*
X96690000Y-75040000D03*
X96690000Y-75940000D03*
D24*
X97880000Y-73170000D03*
X98780000Y-73170000D03*
D23*
X92200000Y-74850000D03*
X92200000Y-75750000D03*
X91000000Y-75750000D03*
X91000000Y-74850000D03*
X89750000Y-74850000D03*
X89750000Y-75750000D03*
X88500000Y-75750000D03*
X88500000Y-74850000D03*
D25*
X88715000Y-53550000D03*
D26*
X90400000Y-55280000D03*
D27*
X92085000Y-53550000D03*
D28*
X87900000Y-58200000D03*
X89700000Y-58200000D03*
X87900000Y-57550000D03*
X87900000Y-58850000D03*
X89700000Y-58850000D03*
X89700000Y-57550000D03*
D29*
X83430000Y-55070000D03*
X85030000Y-55070000D03*
D30*
X81935000Y-57040000D03*
X81935000Y-57540000D03*
X81935000Y-58040000D03*
X82705000Y-58040000D03*
X82705000Y-57540000D03*
X82705000Y-57040000D03*
M02*
