G04 #@! TF.GenerationSoftware,KiCad,Pcbnew,no-vcs-found-96b3286~58~ubuntu16.10.1*
G04 #@! TF.CreationDate,2017-03-05T12:49:51+01:00*
G04 #@! TF.ProjectId,cc2538module,6363323533386D6F64756C652E6B6963,rev?*
G04 #@! TF.FileFunction,Copper,L2,Inr,Plane*
G04 #@! TF.FilePolarity,Positive*
%FSLAX46Y46*%
G04 Gerber Fmt 4.6, Leading zero omitted, Abs format (unit mm)*
G04 Created by KiCad (PCBNEW no-vcs-found-96b3286~58~ubuntu16.10.1) date Sun Mar  5 12:49:51 2017*
%MOMM*%
%LPD*%
G01*
G04 APERTURE LIST*
%ADD10C,0.150000*%
%ADD11C,0.600000*%
%ADD12O,1.600000X1.360000*%
%ADD13R,1.360000X1.360000*%
%ADD14C,0.762000*%
%ADD15C,0.254000*%
G04 APERTURE END LIST*
D10*
D11*
X86350000Y-54750000D03*
X86200000Y-53800000D03*
X99350000Y-59700000D03*
X99800000Y-58800000D03*
X100200000Y-57900000D03*
X98550000Y-55600000D03*
X97800000Y-54950000D03*
X82450000Y-73000000D03*
X99600000Y-68200000D03*
X96950000Y-78100000D03*
X81100000Y-77850000D03*
X86500000Y-77850000D03*
X95200000Y-77850000D03*
X85750000Y-52900000D03*
X87600000Y-52350000D03*
X86600000Y-52350000D03*
D12*
X101608680Y-77061080D03*
X101608680Y-75061080D03*
X101608680Y-73061080D03*
X101608680Y-71061080D03*
X101608680Y-69061080D03*
X101608680Y-67061080D03*
X101608680Y-65061080D03*
X101608680Y-63061080D03*
X101608680Y-61061080D03*
X101608680Y-59061080D03*
D13*
X79608680Y-59061080D03*
D12*
X79608680Y-61061080D03*
X79608680Y-63061080D03*
X79608680Y-65061080D03*
X79608680Y-67061080D03*
X79608680Y-69061080D03*
X79608680Y-71061080D03*
X79608680Y-73061080D03*
X79608680Y-75061080D03*
X79608680Y-77061080D03*
X79608680Y-77061080D03*
X79608680Y-75061080D03*
X79608680Y-73061080D03*
X79608680Y-71061080D03*
X79608680Y-69061080D03*
X79608680Y-67061080D03*
X79608680Y-65061080D03*
X79608680Y-63061080D03*
X79608680Y-61061080D03*
D13*
X79608680Y-59061080D03*
D12*
X101608680Y-59061080D03*
X101608680Y-61061080D03*
X101608680Y-63061080D03*
X101608680Y-65061080D03*
X101608680Y-67061080D03*
X101608680Y-69061080D03*
X101608680Y-71061080D03*
X101608680Y-73061080D03*
X101608680Y-75061080D03*
X101608680Y-77061080D03*
X101608680Y-77061080D03*
X101608680Y-75061080D03*
X101608680Y-73061080D03*
X101608680Y-71061080D03*
X101608680Y-69061080D03*
X101608680Y-67061080D03*
X101608680Y-65061080D03*
X101608680Y-63061080D03*
X101608680Y-61061080D03*
X101608680Y-59061080D03*
D13*
X79608680Y-59061080D03*
D12*
X79608680Y-61061080D03*
X79608680Y-63061080D03*
X79608680Y-65061080D03*
X79608680Y-67061080D03*
X79608680Y-69061080D03*
X79608680Y-71061080D03*
X79608680Y-73061080D03*
X79608680Y-75061080D03*
X79608680Y-77061080D03*
D11*
X93800000Y-52350000D03*
X100100000Y-56900000D03*
X99300000Y-56250000D03*
X97050000Y-54300000D03*
X96300000Y-53650000D03*
X95550000Y-53000000D03*
X94800000Y-52350000D03*
D12*
X79608680Y-77061080D03*
X79608680Y-75061080D03*
X79608680Y-73061080D03*
X79608680Y-71061080D03*
X79608680Y-69061080D03*
X79608680Y-67061080D03*
X79608680Y-65061080D03*
X79608680Y-63061080D03*
X79608680Y-61061080D03*
D13*
X79608680Y-59061080D03*
D12*
X101608680Y-59061080D03*
X101608680Y-61061080D03*
X101608680Y-63061080D03*
X101608680Y-65061080D03*
X101608680Y-67061080D03*
X101608680Y-69061080D03*
X101608680Y-71061080D03*
X101608680Y-73061080D03*
X101608680Y-75061080D03*
X101608680Y-77061080D03*
D14*
X85240000Y-59090000D03*
X98850000Y-63550000D03*
X93880002Y-72470000D03*
X96137585Y-74077585D03*
X91470000Y-58270000D03*
X95840000Y-59330000D03*
X95420000Y-57810000D03*
X88513000Y-68450920D03*
X89913000Y-68450920D03*
X91313000Y-68450920D03*
X92713000Y-68450920D03*
X92713000Y-67050920D03*
X91313000Y-67050920D03*
X89913000Y-67050920D03*
X88513000Y-67050920D03*
X88513000Y-64250920D03*
X88513000Y-65650920D03*
X89913000Y-65650920D03*
X91313000Y-65650920D03*
X92713000Y-65650920D03*
X92713000Y-64250920D03*
X91313000Y-64250920D03*
X89913000Y-64250920D03*
X85660000Y-71650000D03*
X86467479Y-58133287D03*
X82490000Y-60210000D03*
X98890000Y-62380000D03*
X83870000Y-78100000D03*
X97340000Y-69850000D03*
X90426703Y-58136579D03*
X90400000Y-57600000D03*
X94299990Y-76250000D03*
X97380000Y-62660000D03*
X85492867Y-76357133D03*
X81560000Y-69310000D03*
X83108403Y-66153502D03*
X82649153Y-65277891D03*
X87041504Y-72301390D03*
X90522789Y-72599590D03*
X87012616Y-71336610D03*
X91350000Y-60350000D03*
X95728954Y-65263277D03*
X91899723Y-70946315D03*
X96660000Y-76670000D03*
X94730000Y-71830000D03*
X92988019Y-61258019D03*
X84787158Y-56981120D03*
X87980000Y-61866718D03*
X94811454Y-69584382D03*
X84510000Y-69880000D03*
X85530000Y-63524212D03*
X88123522Y-72600410D03*
X98080000Y-71387422D03*
X95770846Y-63931694D03*
X95472482Y-63013765D03*
X84780000Y-66602355D03*
X84009538Y-65807685D03*
X93961705Y-70066610D03*
X82300000Y-56150000D03*
X96040000Y-60925798D03*
X84019513Y-69018018D03*
X83730000Y-59650000D03*
X97031632Y-71743033D03*
X97476422Y-63677488D03*
X93920000Y-61890000D03*
X87060000Y-69653390D03*
D15*
G36*
X101654144Y-57746080D02*
X101460567Y-57746080D01*
X100957338Y-57846178D01*
X100530722Y-58131235D01*
X100245665Y-58557851D01*
X100145567Y-59061080D01*
X100245665Y-59564309D01*
X100530722Y-59990925D01*
X100635716Y-60061080D01*
X100530722Y-60131235D01*
X100245665Y-60557851D01*
X100145567Y-61061080D01*
X100245665Y-61564309D01*
X100530722Y-61990925D01*
X100635716Y-62061080D01*
X100530722Y-62131235D01*
X100245665Y-62557851D01*
X100145567Y-63061080D01*
X100245665Y-63564309D01*
X100530722Y-63990925D01*
X100635716Y-64061080D01*
X100530722Y-64131235D01*
X100245665Y-64557851D01*
X100145567Y-65061080D01*
X100245665Y-65564309D01*
X100530722Y-65990925D01*
X100635716Y-66061080D01*
X100530722Y-66131235D01*
X100245665Y-66557851D01*
X100145567Y-67061080D01*
X100245665Y-67564309D01*
X100530722Y-67990925D01*
X100635716Y-68061080D01*
X100530722Y-68131235D01*
X100245665Y-68557851D01*
X100145567Y-69061080D01*
X100245665Y-69564309D01*
X100530722Y-69990925D01*
X100635716Y-70061080D01*
X100530722Y-70131235D01*
X100245665Y-70557851D01*
X100145567Y-71061080D01*
X100245665Y-71564309D01*
X100530722Y-71990925D01*
X100635716Y-72061080D01*
X100530722Y-72131235D01*
X100245665Y-72557851D01*
X100145567Y-73061080D01*
X100245665Y-73564309D01*
X100530722Y-73990925D01*
X100635716Y-74061080D01*
X100530722Y-74131235D01*
X100245665Y-74557851D01*
X100145567Y-75061080D01*
X100245665Y-75564309D01*
X100530722Y-75990925D01*
X100635716Y-76061080D01*
X100530722Y-76131235D01*
X100245665Y-76557851D01*
X100145567Y-77061080D01*
X100245665Y-77564309D01*
X100530722Y-77990925D01*
X100836081Y-78194960D01*
X79072080Y-78194960D01*
X79072080Y-76482971D01*
X81641821Y-76482971D01*
X81799058Y-76863515D01*
X82089954Y-77154919D01*
X82470223Y-77312820D01*
X82881971Y-77313179D01*
X83262515Y-77155942D01*
X83553919Y-76865046D01*
X83681273Y-76558341D01*
X84476691Y-76558341D01*
X84631042Y-76931899D01*
X84916598Y-77217954D01*
X85289885Y-77372957D01*
X85694075Y-77373309D01*
X86067633Y-77218958D01*
X86353688Y-76933402D01*
X86508691Y-76560115D01*
X86508785Y-76451208D01*
X93283814Y-76451208D01*
X93438165Y-76824766D01*
X93723721Y-77110821D01*
X94097008Y-77265824D01*
X94501198Y-77266176D01*
X94874756Y-77111825D01*
X95115793Y-76871208D01*
X95643824Y-76871208D01*
X95798175Y-77244766D01*
X96083731Y-77530821D01*
X96457018Y-77685824D01*
X96861208Y-77686176D01*
X97234766Y-77531825D01*
X97520821Y-77246269D01*
X97675824Y-76872982D01*
X97676163Y-76482971D01*
X97735261Y-76482971D01*
X97892498Y-76863515D01*
X98183394Y-77154919D01*
X98563663Y-77312820D01*
X98975411Y-77313179D01*
X99355955Y-77155942D01*
X99647359Y-76865046D01*
X99805260Y-76484777D01*
X99805619Y-76073029D01*
X99648382Y-75692485D01*
X99357486Y-75401081D01*
X98977217Y-75243180D01*
X98565469Y-75242821D01*
X98184925Y-75400058D01*
X97893521Y-75690954D01*
X97735620Y-76071223D01*
X97735261Y-76482971D01*
X97676163Y-76482971D01*
X97676176Y-76468792D01*
X97521825Y-76095234D01*
X97236269Y-75809179D01*
X96862982Y-75654176D01*
X96458792Y-75653824D01*
X96085234Y-75808175D01*
X95799179Y-76093731D01*
X95644176Y-76467018D01*
X95643824Y-76871208D01*
X95115793Y-76871208D01*
X95160811Y-76826269D01*
X95315814Y-76452982D01*
X95316166Y-76048792D01*
X95161815Y-75675234D01*
X94876259Y-75389179D01*
X94502972Y-75234176D01*
X94098782Y-75233824D01*
X93725224Y-75388175D01*
X93439169Y-75673731D01*
X93284166Y-76047018D01*
X93283814Y-76451208D01*
X86508785Y-76451208D01*
X86509043Y-76155925D01*
X86354692Y-75782367D01*
X86069136Y-75496312D01*
X85695849Y-75341309D01*
X85291659Y-75340957D01*
X84918101Y-75495308D01*
X84632046Y-75780864D01*
X84477043Y-76154151D01*
X84476691Y-76558341D01*
X83681273Y-76558341D01*
X83711820Y-76484777D01*
X83712179Y-76073029D01*
X83554942Y-75692485D01*
X83264046Y-75401081D01*
X82883777Y-75243180D01*
X82472029Y-75242821D01*
X82091485Y-75400058D01*
X81800081Y-75690954D01*
X81642180Y-76071223D01*
X81641821Y-76482971D01*
X79072080Y-76482971D01*
X79072080Y-76298805D01*
X79460567Y-76376080D01*
X79756793Y-76376080D01*
X80260022Y-76275982D01*
X80686638Y-75990925D01*
X80971695Y-75564309D01*
X81071793Y-75061080D01*
X80971695Y-74557851D01*
X80686638Y-74131235D01*
X80581644Y-74061080D01*
X80686638Y-73990925D01*
X80971695Y-73564309D01*
X81071793Y-73061080D01*
X80971695Y-72557851D01*
X80686638Y-72131235D01*
X80581644Y-72061080D01*
X80686638Y-71990925D01*
X80971695Y-71564309D01*
X80976964Y-71537818D01*
X85996440Y-71537818D01*
X86127126Y-71854101D01*
X86025680Y-72098408D01*
X86025328Y-72502598D01*
X86179679Y-72876156D01*
X86465235Y-73162211D01*
X86838522Y-73317214D01*
X87242712Y-73317566D01*
X87356786Y-73270431D01*
X87547253Y-73461231D01*
X87920540Y-73616234D01*
X88324730Y-73616586D01*
X88698288Y-73462235D01*
X88984343Y-73176679D01*
X89139346Y-72803392D01*
X89139348Y-72800798D01*
X89506613Y-72800798D01*
X89660964Y-73174356D01*
X89946520Y-73460411D01*
X90319807Y-73615414D01*
X90723997Y-73615766D01*
X91097555Y-73461415D01*
X91383610Y-73175859D01*
X91538613Y-72802572D01*
X91538965Y-72398382D01*
X91384614Y-72024824D01*
X91099058Y-71738769D01*
X90725771Y-71583766D01*
X90321581Y-71583414D01*
X89948023Y-71737765D01*
X89661968Y-72023321D01*
X89506965Y-72396608D01*
X89506613Y-72800798D01*
X89139348Y-72800798D01*
X89139698Y-72399202D01*
X88985347Y-72025644D01*
X88699791Y-71739589D01*
X88326504Y-71584586D01*
X88009871Y-71584310D01*
X88028440Y-71539592D01*
X88028781Y-71147523D01*
X90883547Y-71147523D01*
X91037898Y-71521081D01*
X91323454Y-71807136D01*
X91696741Y-71962139D01*
X92100931Y-71962491D01*
X92474489Y-71808140D01*
X92760544Y-71522584D01*
X92915547Y-71149297D01*
X92915899Y-70745107D01*
X92761548Y-70371549D01*
X92657998Y-70267818D01*
X92945529Y-70267818D01*
X93099880Y-70641376D01*
X93385436Y-70927431D01*
X93758723Y-71082434D01*
X94040529Y-71082679D01*
X93869179Y-71253731D01*
X93714176Y-71627018D01*
X93713824Y-72031208D01*
X93868175Y-72404766D01*
X94153731Y-72690821D01*
X94527018Y-72845824D01*
X94931208Y-72846176D01*
X95304766Y-72691825D01*
X95590821Y-72406269D01*
X95745824Y-72032982D01*
X95745901Y-71944241D01*
X96015456Y-71944241D01*
X96169807Y-72317799D01*
X96455363Y-72603854D01*
X96828650Y-72758857D01*
X97232840Y-72759209D01*
X97606398Y-72604858D01*
X97828531Y-72383112D01*
X97877018Y-72403246D01*
X98281208Y-72403598D01*
X98654766Y-72249247D01*
X98940821Y-71963691D01*
X99095824Y-71590404D01*
X99096176Y-71186214D01*
X98941825Y-70812656D01*
X98656269Y-70526601D01*
X98282982Y-70371598D01*
X97878792Y-70371246D01*
X97505234Y-70525597D01*
X97283101Y-70747343D01*
X97234614Y-70727209D01*
X96830424Y-70726857D01*
X96456866Y-70881208D01*
X96170811Y-71166764D01*
X96015808Y-71540051D01*
X96015456Y-71944241D01*
X95745901Y-71944241D01*
X95746176Y-71628792D01*
X95591825Y-71255234D01*
X95306269Y-70969179D01*
X94932982Y-70814176D01*
X94651176Y-70813931D01*
X94822526Y-70642879D01*
X94840162Y-70600408D01*
X95012662Y-70600558D01*
X95386220Y-70446207D01*
X95672275Y-70160651D01*
X95827278Y-69787364D01*
X95827630Y-69383174D01*
X95673279Y-69009616D01*
X95387723Y-68723561D01*
X95014436Y-68568558D01*
X94610246Y-68568206D01*
X94236688Y-68722557D01*
X93950633Y-69008113D01*
X93932997Y-69050584D01*
X93760497Y-69050434D01*
X93386939Y-69204785D01*
X93100884Y-69490341D01*
X92945881Y-69863628D01*
X92945529Y-70267818D01*
X92657998Y-70267818D01*
X92475992Y-70085494D01*
X92102705Y-69930491D01*
X91698515Y-69930139D01*
X91324957Y-70084490D01*
X91038902Y-70370046D01*
X90883899Y-70743333D01*
X90883547Y-71147523D01*
X88028781Y-71147523D01*
X88028792Y-71135402D01*
X87874441Y-70761844D01*
X87630147Y-70517123D01*
X87634766Y-70515215D01*
X87920821Y-70229659D01*
X88075824Y-69856372D01*
X88076176Y-69452182D01*
X87921825Y-69078624D01*
X87636269Y-68792569D01*
X87262982Y-68637566D01*
X86858792Y-68637214D01*
X86485234Y-68791565D01*
X86199179Y-69077121D01*
X86044176Y-69450408D01*
X86043824Y-69854598D01*
X86198175Y-70228156D01*
X86442469Y-70472877D01*
X86437850Y-70474785D01*
X86151795Y-70760341D01*
X85996792Y-71133628D01*
X85996440Y-71537818D01*
X80976964Y-71537818D01*
X81071793Y-71061080D01*
X80971695Y-70557851D01*
X80686638Y-70131235D01*
X80581644Y-70061080D01*
X80686638Y-69990925D01*
X80733756Y-69920409D01*
X80983731Y-70170821D01*
X81357018Y-70325824D01*
X81761208Y-70326176D01*
X82134766Y-70171825D01*
X82420821Y-69886269D01*
X82575824Y-69512982D01*
X82576079Y-69219226D01*
X83003337Y-69219226D01*
X83157688Y-69592784D01*
X83443244Y-69878839D01*
X83493982Y-69899907D01*
X83493824Y-70081208D01*
X83648175Y-70454766D01*
X83933731Y-70740821D01*
X84307018Y-70895824D01*
X84711208Y-70896176D01*
X85084766Y-70741825D01*
X85370821Y-70456269D01*
X85525824Y-70082982D01*
X85526176Y-69678792D01*
X85371825Y-69305234D01*
X85086269Y-69019179D01*
X85035531Y-68998111D01*
X85035689Y-68816810D01*
X84881338Y-68443252D01*
X84595782Y-68157197D01*
X84222495Y-68002194D01*
X83818305Y-68001842D01*
X83444747Y-68156193D01*
X83158692Y-68441749D01*
X83003689Y-68815036D01*
X83003337Y-69219226D01*
X82576079Y-69219226D01*
X82576176Y-69108792D01*
X82421825Y-68735234D01*
X82136269Y-68449179D01*
X81762982Y-68294176D01*
X81358792Y-68293824D01*
X80985234Y-68448175D01*
X80933151Y-68500167D01*
X80686638Y-68131235D01*
X80581644Y-68061080D01*
X80686638Y-67990925D01*
X80971695Y-67564309D01*
X81071793Y-67061080D01*
X80971695Y-66557851D01*
X80686638Y-66131235D01*
X80581644Y-66061080D01*
X80686638Y-65990925D01*
X80971695Y-65564309D01*
X80988644Y-65479099D01*
X81632977Y-65479099D01*
X81787328Y-65852657D01*
X82072884Y-66138712D01*
X82092408Y-66146819D01*
X82092227Y-66354710D01*
X82246578Y-66728268D01*
X82532134Y-67014323D01*
X82905421Y-67169326D01*
X83309611Y-67169678D01*
X83683169Y-67015327D01*
X83802219Y-66896485D01*
X83918175Y-67177121D01*
X84203731Y-67463176D01*
X84577018Y-67618179D01*
X84981208Y-67618531D01*
X85354766Y-67464180D01*
X85640821Y-67178624D01*
X85795824Y-66805337D01*
X85796176Y-66401147D01*
X85641825Y-66027589D01*
X85356269Y-65741534D01*
X85024616Y-65603819D01*
X84871363Y-65232919D01*
X84585807Y-64946864D01*
X84212520Y-64791861D01*
X83808330Y-64791509D01*
X83585535Y-64883566D01*
X83510978Y-64703125D01*
X83225422Y-64417070D01*
X82852135Y-64262067D01*
X82447945Y-64261715D01*
X82074387Y-64416066D01*
X81788332Y-64701622D01*
X81633329Y-65074909D01*
X81632977Y-65479099D01*
X80988644Y-65479099D01*
X81071793Y-65061080D01*
X80971695Y-64557851D01*
X80686638Y-64131235D01*
X80581644Y-64061080D01*
X80686638Y-63990925D01*
X80864043Y-63725420D01*
X84513824Y-63725420D01*
X84668175Y-64098978D01*
X84953731Y-64385033D01*
X85327018Y-64540036D01*
X85731208Y-64540388D01*
X86104766Y-64386037D01*
X86390821Y-64100481D01*
X86545824Y-63727194D01*
X86546176Y-63323004D01*
X86391825Y-62949446D01*
X86106269Y-62663391D01*
X85732982Y-62508388D01*
X85328792Y-62508036D01*
X84955234Y-62662387D01*
X84669179Y-62947943D01*
X84514176Y-63321230D01*
X84513824Y-63725420D01*
X80864043Y-63725420D01*
X80971695Y-63564309D01*
X81071793Y-63061080D01*
X80971695Y-62557851D01*
X80686638Y-62131235D01*
X80591890Y-62067926D01*
X86963824Y-62067926D01*
X87118175Y-62441484D01*
X87403731Y-62727539D01*
X87777018Y-62882542D01*
X88181208Y-62882894D01*
X88554766Y-62728543D01*
X88840821Y-62442987D01*
X88995824Y-62069700D01*
X88996176Y-61665510D01*
X88841825Y-61291952D01*
X88556269Y-61005897D01*
X88182982Y-60850894D01*
X87778792Y-60850542D01*
X87405234Y-61004893D01*
X87119179Y-61290449D01*
X86964176Y-61663736D01*
X86963824Y-62067926D01*
X80591890Y-62067926D01*
X80581644Y-62061080D01*
X80686638Y-61990925D01*
X80971695Y-61564309D01*
X81071793Y-61061080D01*
X80971695Y-60557851D01*
X80736364Y-60205655D01*
X80746489Y-60198889D01*
X80886837Y-59988845D01*
X80914214Y-59851208D01*
X82713824Y-59851208D01*
X82868175Y-60224766D01*
X83153731Y-60510821D01*
X83527018Y-60665824D01*
X83931208Y-60666176D01*
X84209451Y-60551208D01*
X90333824Y-60551208D01*
X90488175Y-60924766D01*
X90773731Y-61210821D01*
X91147018Y-61365824D01*
X91551208Y-61366176D01*
X91924766Y-61211825D01*
X91972100Y-61164574D01*
X91971843Y-61459227D01*
X92126194Y-61832785D01*
X92411750Y-62118840D01*
X92785037Y-62273843D01*
X92979357Y-62274012D01*
X93058175Y-62464766D01*
X93343731Y-62750821D01*
X93717018Y-62905824D01*
X94121208Y-62906176D01*
X94478317Y-62758621D01*
X94456658Y-62810783D01*
X94456306Y-63214973D01*
X94610657Y-63588531D01*
X94755018Y-63733144D01*
X94754670Y-64132902D01*
X94909021Y-64506460D01*
X94978887Y-64576448D01*
X94868133Y-64687008D01*
X94713130Y-65060295D01*
X94712778Y-65464485D01*
X94867129Y-65838043D01*
X95152685Y-66124098D01*
X95525972Y-66279101D01*
X95930162Y-66279453D01*
X96303720Y-66125102D01*
X96589775Y-65839546D01*
X96744778Y-65466259D01*
X96745130Y-65062069D01*
X96590779Y-64688511D01*
X96520913Y-64618523D01*
X96631667Y-64507963D01*
X96701640Y-64339449D01*
X96900153Y-64538309D01*
X97273440Y-64693312D01*
X97677630Y-64693664D01*
X98051188Y-64539313D01*
X98337243Y-64253757D01*
X98492246Y-63880470D01*
X98492598Y-63476280D01*
X98338247Y-63102722D01*
X98308605Y-63073028D01*
X98395824Y-62862982D01*
X98396176Y-62458792D01*
X98241825Y-62085234D01*
X97956269Y-61799179D01*
X97582982Y-61644176D01*
X97178792Y-61643824D01*
X96805234Y-61798175D01*
X96519179Y-62083731D01*
X96364176Y-62457018D01*
X96364129Y-62511173D01*
X96334307Y-62438999D01*
X96048751Y-62152944D01*
X95675464Y-61997941D01*
X95271274Y-61997589D01*
X94914165Y-62145144D01*
X94935824Y-62092982D01*
X94936176Y-61688792D01*
X94781825Y-61315234D01*
X94593926Y-61127006D01*
X95023824Y-61127006D01*
X95178175Y-61500564D01*
X95463731Y-61786619D01*
X95837018Y-61941622D01*
X96241208Y-61941974D01*
X96614766Y-61787623D01*
X96900821Y-61502067D01*
X97055824Y-61128780D01*
X97056176Y-60724590D01*
X96901825Y-60351032D01*
X96616269Y-60064977D01*
X96242982Y-59909974D01*
X95838792Y-59909622D01*
X95465234Y-60063973D01*
X95179179Y-60349529D01*
X95024176Y-60722816D01*
X95023824Y-61127006D01*
X94593926Y-61127006D01*
X94496269Y-61029179D01*
X94122982Y-60874176D01*
X93928662Y-60874007D01*
X93849844Y-60683253D01*
X93564288Y-60397198D01*
X93191001Y-60242195D01*
X92786811Y-60241843D01*
X92413253Y-60396194D01*
X92365919Y-60443445D01*
X92366176Y-60148792D01*
X92211825Y-59775234D01*
X91926269Y-59489179D01*
X91552982Y-59334176D01*
X91148792Y-59333824D01*
X90775234Y-59488175D01*
X90489179Y-59773731D01*
X90334176Y-60147018D01*
X90333824Y-60551208D01*
X84209451Y-60551208D01*
X84304766Y-60511825D01*
X84590821Y-60226269D01*
X84745824Y-59852982D01*
X84746176Y-59448792D01*
X84591825Y-59075234D01*
X84306269Y-58789179D01*
X83932982Y-58634176D01*
X83528792Y-58633824D01*
X83155234Y-58788175D01*
X82869179Y-59073731D01*
X82714176Y-59447018D01*
X82713824Y-59851208D01*
X80914214Y-59851208D01*
X80936120Y-59741080D01*
X80936120Y-58381080D01*
X80886837Y-58133315D01*
X80746489Y-57923271D01*
X80536445Y-57782923D01*
X80288680Y-57733640D01*
X79514475Y-57733640D01*
X80155280Y-57182328D01*
X83770982Y-57182328D01*
X83925333Y-57555886D01*
X84210889Y-57841941D01*
X84584176Y-57996944D01*
X84988366Y-57997296D01*
X85361924Y-57842945D01*
X85647979Y-57557389D01*
X85802982Y-57184102D01*
X85803334Y-56779912D01*
X85648983Y-56406354D01*
X85363427Y-56120299D01*
X84990140Y-55965296D01*
X84585950Y-55964944D01*
X84212392Y-56119295D01*
X83926337Y-56404851D01*
X83771334Y-56778138D01*
X83770982Y-57182328D01*
X80155280Y-57182328D01*
X81283946Y-56211289D01*
X81283824Y-56351208D01*
X81438175Y-56724766D01*
X81723731Y-57010821D01*
X82097018Y-57165824D01*
X82501208Y-57166176D01*
X82874766Y-57011825D01*
X83160821Y-56726269D01*
X83315824Y-56352982D01*
X83316176Y-55948792D01*
X83161825Y-55575234D01*
X82876269Y-55289179D01*
X82525187Y-55143396D01*
X86231195Y-51954960D01*
X94922965Y-51954960D01*
X101654144Y-57746080D01*
X101654144Y-57746080D01*
G37*
X101654144Y-57746080D02*
X101460567Y-57746080D01*
X100957338Y-57846178D01*
X100530722Y-58131235D01*
X100245665Y-58557851D01*
X100145567Y-59061080D01*
X100245665Y-59564309D01*
X100530722Y-59990925D01*
X100635716Y-60061080D01*
X100530722Y-60131235D01*
X100245665Y-60557851D01*
X100145567Y-61061080D01*
X100245665Y-61564309D01*
X100530722Y-61990925D01*
X100635716Y-62061080D01*
X100530722Y-62131235D01*
X100245665Y-62557851D01*
X100145567Y-63061080D01*
X100245665Y-63564309D01*
X100530722Y-63990925D01*
X100635716Y-64061080D01*
X100530722Y-64131235D01*
X100245665Y-64557851D01*
X100145567Y-65061080D01*
X100245665Y-65564309D01*
X100530722Y-65990925D01*
X100635716Y-66061080D01*
X100530722Y-66131235D01*
X100245665Y-66557851D01*
X100145567Y-67061080D01*
X100245665Y-67564309D01*
X100530722Y-67990925D01*
X100635716Y-68061080D01*
X100530722Y-68131235D01*
X100245665Y-68557851D01*
X100145567Y-69061080D01*
X100245665Y-69564309D01*
X100530722Y-69990925D01*
X100635716Y-70061080D01*
X100530722Y-70131235D01*
X100245665Y-70557851D01*
X100145567Y-71061080D01*
X100245665Y-71564309D01*
X100530722Y-71990925D01*
X100635716Y-72061080D01*
X100530722Y-72131235D01*
X100245665Y-72557851D01*
X100145567Y-73061080D01*
X100245665Y-73564309D01*
X100530722Y-73990925D01*
X100635716Y-74061080D01*
X100530722Y-74131235D01*
X100245665Y-74557851D01*
X100145567Y-75061080D01*
X100245665Y-75564309D01*
X100530722Y-75990925D01*
X100635716Y-76061080D01*
X100530722Y-76131235D01*
X100245665Y-76557851D01*
X100145567Y-77061080D01*
X100245665Y-77564309D01*
X100530722Y-77990925D01*
X100836081Y-78194960D01*
X79072080Y-78194960D01*
X79072080Y-76482971D01*
X81641821Y-76482971D01*
X81799058Y-76863515D01*
X82089954Y-77154919D01*
X82470223Y-77312820D01*
X82881971Y-77313179D01*
X83262515Y-77155942D01*
X83553919Y-76865046D01*
X83681273Y-76558341D01*
X84476691Y-76558341D01*
X84631042Y-76931899D01*
X84916598Y-77217954D01*
X85289885Y-77372957D01*
X85694075Y-77373309D01*
X86067633Y-77218958D01*
X86353688Y-76933402D01*
X86508691Y-76560115D01*
X86508785Y-76451208D01*
X93283814Y-76451208D01*
X93438165Y-76824766D01*
X93723721Y-77110821D01*
X94097008Y-77265824D01*
X94501198Y-77266176D01*
X94874756Y-77111825D01*
X95115793Y-76871208D01*
X95643824Y-76871208D01*
X95798175Y-77244766D01*
X96083731Y-77530821D01*
X96457018Y-77685824D01*
X96861208Y-77686176D01*
X97234766Y-77531825D01*
X97520821Y-77246269D01*
X97675824Y-76872982D01*
X97676163Y-76482971D01*
X97735261Y-76482971D01*
X97892498Y-76863515D01*
X98183394Y-77154919D01*
X98563663Y-77312820D01*
X98975411Y-77313179D01*
X99355955Y-77155942D01*
X99647359Y-76865046D01*
X99805260Y-76484777D01*
X99805619Y-76073029D01*
X99648382Y-75692485D01*
X99357486Y-75401081D01*
X98977217Y-75243180D01*
X98565469Y-75242821D01*
X98184925Y-75400058D01*
X97893521Y-75690954D01*
X97735620Y-76071223D01*
X97735261Y-76482971D01*
X97676163Y-76482971D01*
X97676176Y-76468792D01*
X97521825Y-76095234D01*
X97236269Y-75809179D01*
X96862982Y-75654176D01*
X96458792Y-75653824D01*
X96085234Y-75808175D01*
X95799179Y-76093731D01*
X95644176Y-76467018D01*
X95643824Y-76871208D01*
X95115793Y-76871208D01*
X95160811Y-76826269D01*
X95315814Y-76452982D01*
X95316166Y-76048792D01*
X95161815Y-75675234D01*
X94876259Y-75389179D01*
X94502972Y-75234176D01*
X94098782Y-75233824D01*
X93725224Y-75388175D01*
X93439169Y-75673731D01*
X93284166Y-76047018D01*
X93283814Y-76451208D01*
X86508785Y-76451208D01*
X86509043Y-76155925D01*
X86354692Y-75782367D01*
X86069136Y-75496312D01*
X85695849Y-75341309D01*
X85291659Y-75340957D01*
X84918101Y-75495308D01*
X84632046Y-75780864D01*
X84477043Y-76154151D01*
X84476691Y-76558341D01*
X83681273Y-76558341D01*
X83711820Y-76484777D01*
X83712179Y-76073029D01*
X83554942Y-75692485D01*
X83264046Y-75401081D01*
X82883777Y-75243180D01*
X82472029Y-75242821D01*
X82091485Y-75400058D01*
X81800081Y-75690954D01*
X81642180Y-76071223D01*
X81641821Y-76482971D01*
X79072080Y-76482971D01*
X79072080Y-76298805D01*
X79460567Y-76376080D01*
X79756793Y-76376080D01*
X80260022Y-76275982D01*
X80686638Y-75990925D01*
X80971695Y-75564309D01*
X81071793Y-75061080D01*
X80971695Y-74557851D01*
X80686638Y-74131235D01*
X80581644Y-74061080D01*
X80686638Y-73990925D01*
X80971695Y-73564309D01*
X81071793Y-73061080D01*
X80971695Y-72557851D01*
X80686638Y-72131235D01*
X80581644Y-72061080D01*
X80686638Y-71990925D01*
X80971695Y-71564309D01*
X80976964Y-71537818D01*
X85996440Y-71537818D01*
X86127126Y-71854101D01*
X86025680Y-72098408D01*
X86025328Y-72502598D01*
X86179679Y-72876156D01*
X86465235Y-73162211D01*
X86838522Y-73317214D01*
X87242712Y-73317566D01*
X87356786Y-73270431D01*
X87547253Y-73461231D01*
X87920540Y-73616234D01*
X88324730Y-73616586D01*
X88698288Y-73462235D01*
X88984343Y-73176679D01*
X89139346Y-72803392D01*
X89139348Y-72800798D01*
X89506613Y-72800798D01*
X89660964Y-73174356D01*
X89946520Y-73460411D01*
X90319807Y-73615414D01*
X90723997Y-73615766D01*
X91097555Y-73461415D01*
X91383610Y-73175859D01*
X91538613Y-72802572D01*
X91538965Y-72398382D01*
X91384614Y-72024824D01*
X91099058Y-71738769D01*
X90725771Y-71583766D01*
X90321581Y-71583414D01*
X89948023Y-71737765D01*
X89661968Y-72023321D01*
X89506965Y-72396608D01*
X89506613Y-72800798D01*
X89139348Y-72800798D01*
X89139698Y-72399202D01*
X88985347Y-72025644D01*
X88699791Y-71739589D01*
X88326504Y-71584586D01*
X88009871Y-71584310D01*
X88028440Y-71539592D01*
X88028781Y-71147523D01*
X90883547Y-71147523D01*
X91037898Y-71521081D01*
X91323454Y-71807136D01*
X91696741Y-71962139D01*
X92100931Y-71962491D01*
X92474489Y-71808140D01*
X92760544Y-71522584D01*
X92915547Y-71149297D01*
X92915899Y-70745107D01*
X92761548Y-70371549D01*
X92657998Y-70267818D01*
X92945529Y-70267818D01*
X93099880Y-70641376D01*
X93385436Y-70927431D01*
X93758723Y-71082434D01*
X94040529Y-71082679D01*
X93869179Y-71253731D01*
X93714176Y-71627018D01*
X93713824Y-72031208D01*
X93868175Y-72404766D01*
X94153731Y-72690821D01*
X94527018Y-72845824D01*
X94931208Y-72846176D01*
X95304766Y-72691825D01*
X95590821Y-72406269D01*
X95745824Y-72032982D01*
X95745901Y-71944241D01*
X96015456Y-71944241D01*
X96169807Y-72317799D01*
X96455363Y-72603854D01*
X96828650Y-72758857D01*
X97232840Y-72759209D01*
X97606398Y-72604858D01*
X97828531Y-72383112D01*
X97877018Y-72403246D01*
X98281208Y-72403598D01*
X98654766Y-72249247D01*
X98940821Y-71963691D01*
X99095824Y-71590404D01*
X99096176Y-71186214D01*
X98941825Y-70812656D01*
X98656269Y-70526601D01*
X98282982Y-70371598D01*
X97878792Y-70371246D01*
X97505234Y-70525597D01*
X97283101Y-70747343D01*
X97234614Y-70727209D01*
X96830424Y-70726857D01*
X96456866Y-70881208D01*
X96170811Y-71166764D01*
X96015808Y-71540051D01*
X96015456Y-71944241D01*
X95745901Y-71944241D01*
X95746176Y-71628792D01*
X95591825Y-71255234D01*
X95306269Y-70969179D01*
X94932982Y-70814176D01*
X94651176Y-70813931D01*
X94822526Y-70642879D01*
X94840162Y-70600408D01*
X95012662Y-70600558D01*
X95386220Y-70446207D01*
X95672275Y-70160651D01*
X95827278Y-69787364D01*
X95827630Y-69383174D01*
X95673279Y-69009616D01*
X95387723Y-68723561D01*
X95014436Y-68568558D01*
X94610246Y-68568206D01*
X94236688Y-68722557D01*
X93950633Y-69008113D01*
X93932997Y-69050584D01*
X93760497Y-69050434D01*
X93386939Y-69204785D01*
X93100884Y-69490341D01*
X92945881Y-69863628D01*
X92945529Y-70267818D01*
X92657998Y-70267818D01*
X92475992Y-70085494D01*
X92102705Y-69930491D01*
X91698515Y-69930139D01*
X91324957Y-70084490D01*
X91038902Y-70370046D01*
X90883899Y-70743333D01*
X90883547Y-71147523D01*
X88028781Y-71147523D01*
X88028792Y-71135402D01*
X87874441Y-70761844D01*
X87630147Y-70517123D01*
X87634766Y-70515215D01*
X87920821Y-70229659D01*
X88075824Y-69856372D01*
X88076176Y-69452182D01*
X87921825Y-69078624D01*
X87636269Y-68792569D01*
X87262982Y-68637566D01*
X86858792Y-68637214D01*
X86485234Y-68791565D01*
X86199179Y-69077121D01*
X86044176Y-69450408D01*
X86043824Y-69854598D01*
X86198175Y-70228156D01*
X86442469Y-70472877D01*
X86437850Y-70474785D01*
X86151795Y-70760341D01*
X85996792Y-71133628D01*
X85996440Y-71537818D01*
X80976964Y-71537818D01*
X81071793Y-71061080D01*
X80971695Y-70557851D01*
X80686638Y-70131235D01*
X80581644Y-70061080D01*
X80686638Y-69990925D01*
X80733756Y-69920409D01*
X80983731Y-70170821D01*
X81357018Y-70325824D01*
X81761208Y-70326176D01*
X82134766Y-70171825D01*
X82420821Y-69886269D01*
X82575824Y-69512982D01*
X82576079Y-69219226D01*
X83003337Y-69219226D01*
X83157688Y-69592784D01*
X83443244Y-69878839D01*
X83493982Y-69899907D01*
X83493824Y-70081208D01*
X83648175Y-70454766D01*
X83933731Y-70740821D01*
X84307018Y-70895824D01*
X84711208Y-70896176D01*
X85084766Y-70741825D01*
X85370821Y-70456269D01*
X85525824Y-70082982D01*
X85526176Y-69678792D01*
X85371825Y-69305234D01*
X85086269Y-69019179D01*
X85035531Y-68998111D01*
X85035689Y-68816810D01*
X84881338Y-68443252D01*
X84595782Y-68157197D01*
X84222495Y-68002194D01*
X83818305Y-68001842D01*
X83444747Y-68156193D01*
X83158692Y-68441749D01*
X83003689Y-68815036D01*
X83003337Y-69219226D01*
X82576079Y-69219226D01*
X82576176Y-69108792D01*
X82421825Y-68735234D01*
X82136269Y-68449179D01*
X81762982Y-68294176D01*
X81358792Y-68293824D01*
X80985234Y-68448175D01*
X80933151Y-68500167D01*
X80686638Y-68131235D01*
X80581644Y-68061080D01*
X80686638Y-67990925D01*
X80971695Y-67564309D01*
X81071793Y-67061080D01*
X80971695Y-66557851D01*
X80686638Y-66131235D01*
X80581644Y-66061080D01*
X80686638Y-65990925D01*
X80971695Y-65564309D01*
X80988644Y-65479099D01*
X81632977Y-65479099D01*
X81787328Y-65852657D01*
X82072884Y-66138712D01*
X82092408Y-66146819D01*
X82092227Y-66354710D01*
X82246578Y-66728268D01*
X82532134Y-67014323D01*
X82905421Y-67169326D01*
X83309611Y-67169678D01*
X83683169Y-67015327D01*
X83802219Y-66896485D01*
X83918175Y-67177121D01*
X84203731Y-67463176D01*
X84577018Y-67618179D01*
X84981208Y-67618531D01*
X85354766Y-67464180D01*
X85640821Y-67178624D01*
X85795824Y-66805337D01*
X85796176Y-66401147D01*
X85641825Y-66027589D01*
X85356269Y-65741534D01*
X85024616Y-65603819D01*
X84871363Y-65232919D01*
X84585807Y-64946864D01*
X84212520Y-64791861D01*
X83808330Y-64791509D01*
X83585535Y-64883566D01*
X83510978Y-64703125D01*
X83225422Y-64417070D01*
X82852135Y-64262067D01*
X82447945Y-64261715D01*
X82074387Y-64416066D01*
X81788332Y-64701622D01*
X81633329Y-65074909D01*
X81632977Y-65479099D01*
X80988644Y-65479099D01*
X81071793Y-65061080D01*
X80971695Y-64557851D01*
X80686638Y-64131235D01*
X80581644Y-64061080D01*
X80686638Y-63990925D01*
X80864043Y-63725420D01*
X84513824Y-63725420D01*
X84668175Y-64098978D01*
X84953731Y-64385033D01*
X85327018Y-64540036D01*
X85731208Y-64540388D01*
X86104766Y-64386037D01*
X86390821Y-64100481D01*
X86545824Y-63727194D01*
X86546176Y-63323004D01*
X86391825Y-62949446D01*
X86106269Y-62663391D01*
X85732982Y-62508388D01*
X85328792Y-62508036D01*
X84955234Y-62662387D01*
X84669179Y-62947943D01*
X84514176Y-63321230D01*
X84513824Y-63725420D01*
X80864043Y-63725420D01*
X80971695Y-63564309D01*
X81071793Y-63061080D01*
X80971695Y-62557851D01*
X80686638Y-62131235D01*
X80591890Y-62067926D01*
X86963824Y-62067926D01*
X87118175Y-62441484D01*
X87403731Y-62727539D01*
X87777018Y-62882542D01*
X88181208Y-62882894D01*
X88554766Y-62728543D01*
X88840821Y-62442987D01*
X88995824Y-62069700D01*
X88996176Y-61665510D01*
X88841825Y-61291952D01*
X88556269Y-61005897D01*
X88182982Y-60850894D01*
X87778792Y-60850542D01*
X87405234Y-61004893D01*
X87119179Y-61290449D01*
X86964176Y-61663736D01*
X86963824Y-62067926D01*
X80591890Y-62067926D01*
X80581644Y-62061080D01*
X80686638Y-61990925D01*
X80971695Y-61564309D01*
X81071793Y-61061080D01*
X80971695Y-60557851D01*
X80736364Y-60205655D01*
X80746489Y-60198889D01*
X80886837Y-59988845D01*
X80914214Y-59851208D01*
X82713824Y-59851208D01*
X82868175Y-60224766D01*
X83153731Y-60510821D01*
X83527018Y-60665824D01*
X83931208Y-60666176D01*
X84209451Y-60551208D01*
X90333824Y-60551208D01*
X90488175Y-60924766D01*
X90773731Y-61210821D01*
X91147018Y-61365824D01*
X91551208Y-61366176D01*
X91924766Y-61211825D01*
X91972100Y-61164574D01*
X91971843Y-61459227D01*
X92126194Y-61832785D01*
X92411750Y-62118840D01*
X92785037Y-62273843D01*
X92979357Y-62274012D01*
X93058175Y-62464766D01*
X93343731Y-62750821D01*
X93717018Y-62905824D01*
X94121208Y-62906176D01*
X94478317Y-62758621D01*
X94456658Y-62810783D01*
X94456306Y-63214973D01*
X94610657Y-63588531D01*
X94755018Y-63733144D01*
X94754670Y-64132902D01*
X94909021Y-64506460D01*
X94978887Y-64576448D01*
X94868133Y-64687008D01*
X94713130Y-65060295D01*
X94712778Y-65464485D01*
X94867129Y-65838043D01*
X95152685Y-66124098D01*
X95525972Y-66279101D01*
X95930162Y-66279453D01*
X96303720Y-66125102D01*
X96589775Y-65839546D01*
X96744778Y-65466259D01*
X96745130Y-65062069D01*
X96590779Y-64688511D01*
X96520913Y-64618523D01*
X96631667Y-64507963D01*
X96701640Y-64339449D01*
X96900153Y-64538309D01*
X97273440Y-64693312D01*
X97677630Y-64693664D01*
X98051188Y-64539313D01*
X98337243Y-64253757D01*
X98492246Y-63880470D01*
X98492598Y-63476280D01*
X98338247Y-63102722D01*
X98308605Y-63073028D01*
X98395824Y-62862982D01*
X98396176Y-62458792D01*
X98241825Y-62085234D01*
X97956269Y-61799179D01*
X97582982Y-61644176D01*
X97178792Y-61643824D01*
X96805234Y-61798175D01*
X96519179Y-62083731D01*
X96364176Y-62457018D01*
X96364129Y-62511173D01*
X96334307Y-62438999D01*
X96048751Y-62152944D01*
X95675464Y-61997941D01*
X95271274Y-61997589D01*
X94914165Y-62145144D01*
X94935824Y-62092982D01*
X94936176Y-61688792D01*
X94781825Y-61315234D01*
X94593926Y-61127006D01*
X95023824Y-61127006D01*
X95178175Y-61500564D01*
X95463731Y-61786619D01*
X95837018Y-61941622D01*
X96241208Y-61941974D01*
X96614766Y-61787623D01*
X96900821Y-61502067D01*
X97055824Y-61128780D01*
X97056176Y-60724590D01*
X96901825Y-60351032D01*
X96616269Y-60064977D01*
X96242982Y-59909974D01*
X95838792Y-59909622D01*
X95465234Y-60063973D01*
X95179179Y-60349529D01*
X95024176Y-60722816D01*
X95023824Y-61127006D01*
X94593926Y-61127006D01*
X94496269Y-61029179D01*
X94122982Y-60874176D01*
X93928662Y-60874007D01*
X93849844Y-60683253D01*
X93564288Y-60397198D01*
X93191001Y-60242195D01*
X92786811Y-60241843D01*
X92413253Y-60396194D01*
X92365919Y-60443445D01*
X92366176Y-60148792D01*
X92211825Y-59775234D01*
X91926269Y-59489179D01*
X91552982Y-59334176D01*
X91148792Y-59333824D01*
X90775234Y-59488175D01*
X90489179Y-59773731D01*
X90334176Y-60147018D01*
X90333824Y-60551208D01*
X84209451Y-60551208D01*
X84304766Y-60511825D01*
X84590821Y-60226269D01*
X84745824Y-59852982D01*
X84746176Y-59448792D01*
X84591825Y-59075234D01*
X84306269Y-58789179D01*
X83932982Y-58634176D01*
X83528792Y-58633824D01*
X83155234Y-58788175D01*
X82869179Y-59073731D01*
X82714176Y-59447018D01*
X82713824Y-59851208D01*
X80914214Y-59851208D01*
X80936120Y-59741080D01*
X80936120Y-58381080D01*
X80886837Y-58133315D01*
X80746489Y-57923271D01*
X80536445Y-57782923D01*
X80288680Y-57733640D01*
X79514475Y-57733640D01*
X80155280Y-57182328D01*
X83770982Y-57182328D01*
X83925333Y-57555886D01*
X84210889Y-57841941D01*
X84584176Y-57996944D01*
X84988366Y-57997296D01*
X85361924Y-57842945D01*
X85647979Y-57557389D01*
X85802982Y-57184102D01*
X85803334Y-56779912D01*
X85648983Y-56406354D01*
X85363427Y-56120299D01*
X84990140Y-55965296D01*
X84585950Y-55964944D01*
X84212392Y-56119295D01*
X83926337Y-56404851D01*
X83771334Y-56778138D01*
X83770982Y-57182328D01*
X80155280Y-57182328D01*
X81283946Y-56211289D01*
X81283824Y-56351208D01*
X81438175Y-56724766D01*
X81723731Y-57010821D01*
X82097018Y-57165824D01*
X82501208Y-57166176D01*
X82874766Y-57011825D01*
X83160821Y-56726269D01*
X83315824Y-56352982D01*
X83316176Y-55948792D01*
X83161825Y-55575234D01*
X82876269Y-55289179D01*
X82525187Y-55143396D01*
X86231195Y-51954960D01*
X94922965Y-51954960D01*
X101654144Y-57746080D01*
M02*
